<svg width="999.9999999999999" height="999.9999999999999" xmlns="http://www.w3.org/2000/svg">

 <g>
  <title>background</title>
  <rect fill="none" id="canvas_background" height="1002" width="1002" y="-1" x="-1"/>
 </g>
 <g>
  <title>Layer 1</title>
  <path stroke="null" id="svg_9" fill="#434244" d="m241.840783,-21.721681c-0.047598,0 32.20012,-21.54211 58.498075,-17.52007c-8.436765,4.466289 -38.590166,16.726769 -58.498075,17.52007z"/>
  <path stroke="null" id="svg_16" fill="#434244" d="m493.618909,-21.721681c0.051565,0 -32.196154,-21.54211 -58.494108,-17.52007c8.428832,4.466289 38.5862,16.726769 58.494108,17.52007z"/>
  <g stroke="null" id="svg_34">
   <path stroke="null" id="svg_2" fill="#59595b" d="m500.437267,576.538593l3.223241,0c65.014245,-6.112255 124.667104,-30.190418 173.244649,-76.387159c42.859039,-40.757522 71.740014,-96.179876 72.326058,-159.243694c0.911115,-98.734662 -58.494507,-191.14188 -186.549677,-228.602905l9.362967,-7.810866l1.401011,0.412062l3.67651,1.085097l3.850492,1.176666l3.955796,1.268236l4.083993,1.359805l4.189298,1.460531l4.257975,1.565836l4.441114,1.675719l4.486899,1.785603l4.596782,1.904643l4.674616,2.023683l4.715822,2.15188l4.844019,2.280077l4.834862,2.412853l4.967638,2.554785l4.940167,2.692139l4.953902,2.843229l5.022579,2.98974l5.018001,3.149986l5.072943,3.305654l5.068364,3.475057l4.999687,3.639882l1.813073,1.350648l1.808495,1.37354l1.868015,1.391854l1.794759,1.419325l1.813073,1.437639l1.813073,1.455953l1.76271,1.483424l1.790181,1.501737l1.813073,1.529208l1.813073,1.547522l1.790181,1.579571l1.76271,1.597885l1.753553,1.625356l1.808495,1.648248l1.739818,1.675719l1.758132,1.698612l1.758132,1.726082l1.726082,1.748975l1.767289,1.781024l1.694033,1.803916l1.739818,1.831387l1.689455,1.858858l1.698612,1.886329l1.680298,1.909221l1.684876,1.945849l1.625356,1.968741l1.639092,2.00079l1.639092,2.028261l1.620778,2.060311l1.639092,2.087781l1.570415,2.115252l1.574993,2.147301l2.385382,3.351439l2.385382,3.410959l2.289234,3.470479l2.27092,3.529999l2.215978,3.598676l2.147301,3.653617l2.106095,3.717716l2.037418,3.781815l1.987055,3.85507l1.927535,3.919169l1.849701,3.987846l1.808495,4.056523l1.698612,4.129778l1.629935,4.198455l1.579571,4.271711l1.497159,4.344966l1.423904,4.4228l1.332334,4.496056l1.277393,4.578468l1.162931,4.656302l1.043891,4.734136l0.993528,4.816548l0.883644,4.894382l0.814967,4.976795l0.705084,5.063786l0.572308,5.150776l0.531102,5.237767l0.343385,5.32018l0.288443,5.411749l0.192296,5.49874l0.045785,5.590309l-0.045785,5.681879l-0.064099,2.916484l-0.128197,2.866121l-0.114462,2.820336l-0.109883,2.774552l-0.17856,2.733345l-0.228923,2.692139l-0.228923,2.655511l-0.23808,2.614305l-0.288443,2.586834l-0.293022,2.550207l-0.361699,2.518157l-0.334228,2.486108l-0.407484,2.467794l-0.421219,2.435745l-0.453268,2.417431l-0.480739,2.38996l-0.457847,2.380803l-0.535681,2.362489l-0.503631,2.344176l-0.595201,2.33044l-0.572308,2.321283l-0.650142,2.307548l-0.636407,2.307548l-0.645564,2.293812l-0.709663,2.293812l-0.682192,2.298391l-0.760026,2.293812l-0.764604,2.293812l-0.760026,2.302969l-0.796653,2.307548l-0.828703,2.316705l-0.869909,2.325862l-2.335019,5.979479l-2.458637,5.897067l-2.678404,5.819233l-2.802022,5.73682l-2.911906,5.658986l-3.090466,5.571996l-3.269026,5.489583l-3.369752,5.402592l-3.493371,5.315601l-3.67651,5.224032l-3.800128,5.137041l-3.891698,5.040893l-4.024473,4.949324l-4.193877,4.848598l-4.253397,4.757028l-4.390751,4.656302l-4.48232,4.555576l-4.596782,4.454849l-4.729557,4.349545l-4.789077,4.239661l-4.880647,4.138935l-4.958481,4.029052l-5.068364,3.91459l-5.132463,3.804707l-5.242346,3.699402l-5.311023,3.575783l-5.352229,3.461322l-5.475848,3.342282l-5.489583,3.223241l-5.594888,3.104201l-5.608623,2.980583l-5.704771,2.852386l-4.308338,2.09236l-4.358701,2.009947l-4.390751,1.936692l-4.372437,1.85428l-4.36328,1.781024l-4.427379,1.707769l-4.386172,1.625356l-4.372437,1.556679l-4.367858,1.478845l-4.358701,1.410168l-4.372437,1.332334l-4.386172,1.2545l-4.308338,1.185823l-4.312917,1.112568l-4.308338,1.043891l-4.248818,0.966057l-4.262554,0.89738l-4.248818,0.824124l-4.198455,0.755447l-4.198455,0.682192l-4.138935,0.618093l-4.079415,0.540259l-4.079415,0.476161l-4.042787,0.430376l-4.03363,0.343385l-3.905433,0.27013l-3.919169,0.201453l-1.58415,0.05952l0,-26.857293z"/>
   <path stroke="null" id="svg_3" fill="#808183" d="m428.605683,104.493968l9.358389,7.810866c-128.050592,37.461025 -187.460792,129.868244 -186.549677,228.602905c0.581465,63.063818 29.46702,118.486172 72.326058,159.243694c48.577545,46.196742 108.225826,70.274905 173.244649,76.387159l3.223241,0l0,26.852715l-1.58415,-0.05952l-3.919169,-0.201453l-3.905433,-0.27013l-4.03363,-0.343385l-4.019895,-0.402905l-4.079415,-0.476161l-4.079415,-0.540259l-4.138935,-0.618093l-4.198455,-0.682192l-4.198455,-0.755447l-4.24424,-0.824124l-4.262554,-0.89738l-4.253397,-0.966057l-4.308338,-1.043891l-4.312917,-1.112568l-4.308338,-1.185823l-4.386172,-1.2545l-4.372437,-1.332334l-4.36328,-1.410168l-4.36328,-1.478845l-4.372437,-1.556679l-4.386172,-1.625356l-4.427379,-1.707769l-4.36328,-1.781024l-4.372437,-1.85428l-4.390751,-1.936692l-4.36328,-2.009947l-4.308338,-2.09236l-5.70935,-2.852386l-5.604045,-2.980583l-5.590309,-3.104201l-5.489583,-3.223241l-5.475848,-3.342282l-5.352229,-3.461322l-5.315601,-3.575783l-5.237767,-3.699402l-5.137041,-3.804707l-5.068364,-3.91459l-4.958481,-4.029052l-4.885225,-4.138935l-4.789077,-4.239661l-4.729557,-4.349545l-4.596782,-4.454849l-4.48232,-4.555576l-4.386172,-4.656302l-4.253397,-4.757028l-4.193877,-4.848598l-4.019895,-4.949324l-3.891698,-5.040893l-3.804707,-5.137041l-3.671931,-5.224032l-3.493371,-5.315601l-3.374331,-5.402592l-3.264448,-5.489583l-3.090466,-5.571996l-2.916484,-5.658986l-2.802022,-5.73682l-2.678404,-5.819233l-2.458637,-5.897067l-2.33044,-5.979479l-0.874487,-2.325862l-0.824124,-2.316705l-0.796653,-2.316705l-0.764604,-2.302969l-0.764604,-2.293812l-0.760026,-2.293812l-0.682192,-2.298391l-0.714241,-2.293812l-0.640986,-2.293812l-0.631829,-2.307548l-0.650142,-2.307548l-0.572308,-2.33044l-0.595201,-2.33044l-0.503631,-2.344176l-0.540259,-2.362489l-0.453268,-2.380803l-0.480739,-2.38996l-0.453268,-2.417431l-0.421219,-2.435745l-0.402905,-2.467794l-0.338807,-2.486108l-0.357121,-2.518157l-0.293022,-2.550207l-0.288443,-2.586834l-0.247237,-2.614305l-0.228923,-2.655511l-0.228923,-2.692139l-0.17856,-2.733345l-0.109883,-2.774552l-0.114462,-2.820336l-0.128197,-2.866121l-0.064099,-2.916484l-0.050363,-5.681879l0.050363,-5.590309l0.192296,-5.49874l0.288443,-5.411749l0.347964,-5.32018l0.531102,-5.237767l0.572308,-5.150776l0.705084,-5.063786l0.810389,-4.976795l0.888223,-4.894382l0.993528,-4.816548l1.043891,-4.734136l1.162931,-4.656302l1.277393,-4.578468l1.332334,-4.496056l1.423904,-4.4228l1.497159,-4.344966l1.579571,-4.271711l1.625356,-4.198455l1.698612,-4.129778l1.813073,-4.056523l1.849701,-3.987846l1.927535,-3.919169l1.982477,-3.85507l2.037418,-3.777236l2.106095,-3.717716l2.142723,-3.653617l2.215978,-3.598676l2.275499,-3.529999l2.289234,-3.470479l2.380803,-3.410959l2.385382,-3.351439l1.574993,-2.147301l1.565836,-2.115252l1.639092,-2.087781l1.620778,-2.060311l1.639092,-2.028261l1.639092,-2.00079l1.625356,-1.968741l1.689455,-1.945849l1.684876,-1.909221l1.698612,-1.886329l1.689455,-1.858858l1.735239,-1.831387l1.698612,-1.803916l1.76271,-1.781024l1.726082,-1.748975l1.76271,-1.726082l1.753553,-1.698612l1.739818,-1.675719l1.808495,-1.648248l1.748975,-1.625356l1.76271,-1.597885l1.794759,-1.579571l1.813073,-1.547522l1.813073,-1.529208l1.790181,-1.501737l1.758132,-1.483424l1.813073,-1.455953l1.813073,-1.437639l1.790181,-1.419325l1.868015,-1.391854l1.813073,-1.37354l1.813073,-1.350648l4.995109,-3.639882l5.072943,-3.475057l5.072943,-3.305654l5.018001,-3.149986l5.022579,-2.994318l4.953902,-2.843229l4.940167,-2.692139l4.967638,-2.554785l4.834862,-2.412853l4.844019,-2.280077l4.715822,-2.15188l4.674616,-2.023683l4.596782,-1.904643l4.491477,-1.785603l4.441114,-1.675719l4.257975,-1.565836l4.189298,-1.460531l4.079415,-1.359805l3.960375,-1.268236l3.850492,-1.176666l3.67651,-1.085097l1.391854,-0.416641z"/>
   <path stroke="null" id="svg_4" fill="#929496" d="m500.437267,603.771321l0.196874,0c35.245046,-1.323177 76.634397,-11.029529 116.297665,-30.45139c60.962301,-29.851611 113.367445,-81.180815 137.216685,-145.425878c9.266819,-24.929758 14.573264,-47.753421 15.168464,-79.147976c1.213294,-61.200381 -17.617945,-106.545528 -43.435926,-142.046968c-16.853341,-23.107528 -36.201946,-40.995602 -55.550552,-55.298736c-35.853983,-26.532222 -72.641973,-39.942554 -97.93343,-47.199426l0.137354,-0.114462l13.964327,-4.509791c0.141933,-0.045785 72.518354,15.237141 130.509229,71.749171c42.318779,41.242839 77.270804,106.737824 72.138341,196.420854c-4.372437,76.483307 -46.677481,151.913567 -115.340765,202.313342c-45.972397,33.743309 -103.619887,56.429618 -170.122134,60.161069l-3.241555,0l0,-26.449809l-0.004578,0z"/>
   <path stroke="null" id="svg_5" fill="#bbbcbf" d="m414.146882,99.576694l13.964327,4.505212l0.137354,0.114462c-25.286879,7.256872 -62.074869,20.671783 -97.93343,47.199426c-19.344027,14.303134 -38.697211,32.191208 -55.550552,55.298736c-25.817981,35.501441 -44.644641,80.846587 -43.431347,142.046968c0.595201,31.394555 5.901645,54.218218 15.168464,79.147976c23.84924,64.245062 76.245227,115.588002 137.216685,145.425878c39.663268,19.435596 81.052618,29.128213 116.297665,30.45139l0.196874,0l0,26.449809l-3.241555,0c-66.502247,-3.726873 -124.154316,-26.41776 -170.122134,-60.161069c-68.667862,-50.395197 -110.972906,-125.825456 -115.349922,-202.308764c-5.127884,-89.68303 29.82414,-155.182593 72.138341,-196.420854c57.995454,-56.51203 130.367297,-71.794956 130.509229,-71.749171z"/>
   <path stroke="null" id="svg_6" d="m511.796446,509.230536l2.431166,-0.700506l2.582256,-0.741712l2.742502,-0.77834l2.902749,-0.824124l3.040103,-0.86533l3.177457,-0.901958l3.301075,-0.943164l3.40638,-0.979792l3.511685,-1.007263l3.598676,-1.043891l3.681088,-1.07594l3.745187,-1.098832l3.809285,-1.126303l3.85507,-1.149195l3.896276,-1.176666l3.919169,-1.19498l3.932904,-1.213294l3.946639,-1.231608l3.937482,-1.245343l3.928326,-1.268236l3.900855,-1.272814l3.868805,-1.286549l3.823021,-1.295706l3.768079,-1.309442l3.699402,-1.309442l3.626147,-1.318599l3.548313,-1.31402l3.456743,-1.327756l3.342282,-1.323177l3.232398,-1.323177l3.117937,-1.327756l2.971426,-1.323177l1.597885,-0.732555l1.547522,-0.741712l1.497159,-0.74629l1.451374,-0.750869l1.40559,-0.755447l1.359805,-0.760026l1.300285,-0.760026l1.259079,-0.760026l1.199559,-0.769183l1.153774,-0.764604l1.103411,-0.77834l1.048469,-0.77834l0.998106,-0.782918l0.952321,-0.801232l0.892801,-0.814967l0.819546,-0.80581l0.988949,-1.053048l0.938586,-1.048469l0.89738,-1.062205l0.86533,-1.085097l0.833281,-1.103411l0.801232,-1.130882l0.764604,-1.153774l0.732555,-1.181245l0.691349,-1.204137l0.663878,-1.227029l0.62725,-1.2545l0.590622,-1.281971l0.558573,-1.304863l0.526524,-1.336913l0.485318,-1.355227l0.467004,-1.387276l0.430376,-1.423904l0.398327,-1.442217l0.370856,-1.469688l0.352542,-1.515473l0.320493,-1.542944l0.2976,-1.579571l0.279287,-1.616199l0.260973,-1.657405l0.233502,-1.70319l0.219766,-1.739818l0.196874,-1.785603l0.187717,-1.835966l0.169403,-1.886329l0.155668,-1.94127l0.141933,-1.987055l0.132776,-2.037418l5.974901,-99.430589l33.065696,-56.191537l-197.382332,-22.123157l-197.377754,22.123157l33.065696,56.191537l5.970322,99.430589l0.128197,2.037418l0.146511,1.987055l0.155668,1.94127l0.169403,1.886329l0.183139,1.835966l0.201453,1.785603l0.219766,1.739818l0.23808,1.70319l0.256394,1.657405l0.274708,1.616199l0.302179,1.579571l0.320493,1.547522l0.352542,1.515473l0.370856,1.46511l0.402905,1.442217l0.430376,1.423904l0.462425,1.391854l0.489896,1.355227l0.526524,1.332334l0.553995,1.304863l0.595201,1.281971l0.622672,1.2545l0.663878,1.227029l0.691349,1.204137l0.732555,1.181245l0.769183,1.158352l0.796653,1.126303l0.833281,1.107989l0.869909,1.080518l0.89738,1.062205l0.938586,1.048469l0.988949,1.053048l0.819546,0.80581l0.89738,0.814967l0.947743,0.801232l0.998106,0.782918l1.048469,0.77834l1.103411,0.77834l1.153774,0.764604l1.204137,0.769183l1.2545,0.760026l1.300285,0.760026l1.359805,0.760026l1.40559,0.755447l1.451374,0.750869l1.501737,0.74629l1.547522,0.741712l1.593307,0.732555l2.971426,1.323177l3.113358,1.327756l3.236977,1.323177l3.342282,1.323177l3.452165,1.327756l3.548313,1.31402l3.626147,1.318599l3.703981,1.309442l3.768079,1.309442l3.823021,1.295706l3.864227,1.286549l3.900855,1.272814l3.928326,1.268236l3.942061,1.245343l3.942061,1.231608l3.932904,1.213294l3.923747,1.19498l3.891698,1.176666l3.85507,1.149195l3.809285,1.126303l3.749765,1.098832l3.67651,1.07594l3.603254,1.043891l3.507106,1.007263l3.40638,0.979792l3.305654,0.943164l3.172878,0.901958l3.044681,0.86533l2.902749,0.824124l2.742502,0.77834l2.577677,0.741712l2.435745,0.700506l11.469062,3.209506l11.473641,-3.209506z" fill="#a6a8aa"/>
   <path stroke="null" id="svg_7" fill="#bbbcbf" d="m437.327665,112.49713l1.858858,1.556679c-125.54617,36.888716 -183.793439,127.87661 -182.891481,225.095799c0.572308,62.097761 28.885554,116.668521 70.906733,156.803371c47.625224,45.487079 106.110573,69.189808 169.852004,75.215072l6.542631,0c63.741431,-6.020685 122.222202,-29.727992 169.852004,-75.215072c42.021179,-40.13485 70.334425,-94.70561 70.906733,-156.803371c0.89738,-97.219189 -57.34989,-188.207082 -182.89606,-225.095799l1.863436,-1.556679c127.606481,37.580065 186.824385,129.840773 185.908692,228.41061c-0.586044,63.063818 -29.46702,118.486172 -72.326058,159.243694c-48.577545,46.196742 -108.230404,70.274905 -173.244649,76.387159l-6.675406,0c-65.018824,-6.112255 -124.667104,-30.190418 -173.244649,-76.387159c-42.859039,-40.757522 -71.740014,-96.179876 -72.32148,-159.243694c-0.911115,-98.569837 58.302211,-190.830545 185.908692,-228.41061z"/>
   <path stroke="null" id="svg_8" fill="#e6e6e7" d="m265.708372,508.548344c32.328562,7.458324 45.262734,14.596156 66.241274,33.692946c0.073255,0.073255 -43.458818,2.568521 -66.241274,-33.692946zm-0.123619,-37.232101c-4.54184,-2.110674 -38.37214,-14.445066 -46.750736,-61.095076c8.525107,8.863914 17.013587,13.543108 26.779459,26.106424c6.052735,7.792552 12.609101,18.991485 19.971277,34.988652zm-36.375928,-110.212881c-2.60057,-4.120621 -23.487541,-32.255307 -8.973797,-77.128871c10.113836,22.365816 10.892175,47.419193 8.973797,77.128871zm19.609578,-114.621945c-0.283865,-4.331231 -7.137832,-31.802038 25.753882,-64.130601c-2.367068,26.248357 -12.316079,41.357301 -25.753882,64.130601zm56.479981,-76.941154c1.460531,-3.722294 3.671931,-25.891236 45.802993,-45.134537c-12.183303,22.127736 -26.559693,29.128213 -45.802993,45.134537z"/>
   <path stroke="null" id="svg_10" d="m237.427175,291.643425c6.313707,-6.831074 22.521484,-16.963224 38.390454,-59.401043c-34.581169,25.584479 -32.855086,38.16153 -38.390454,59.401043zm36.270623,-81.803487c6.602151,-3.351439 30.831403,-13.38744 49.479503,-38.317198c-31.490703,8.552578 -38.981076,23.707307 -49.479503,38.317198z"/>
   <path stroke="null" id="svg_11" fill="#e6e6e7" d="m244.134631,419.620761c3.07673,-8.982954 11.986429,-24.366606 5.333915,-77.170077c-18.817503,37.653321 -11.281345,56.347205 -5.333915,77.170077zm43.971606,78.081193c0.137354,-8.932591 3.726873,-25.405919 -18.272666,-69.881156c-6.038999,39.356511 6.528895,53.421564 18.272666,69.881156zm72.802219,62.180173c-3.127094,-8.625834 -6.799025,-32.850508 -42.552281,-62.16186c7.389647,39.498443 25.566165,49.566494 42.552281,62.16186zm92.915429,36.989443c-3.095044,-4.48232 -19.005221,-33.175579 -64.423623,-48.907195c20.484066,31.284672 41.59996,42.813254 64.423623,48.907195zm-39.338197,-9.047053c-4.69293,-2.426588 -38.257678,-20.520693 -79.321957,-12.590787c24.47649,17.489748 51.063653,16.161992 79.321957,12.590787zm82.590984,17.874339c-5.393435,-1.121725 -46.338674,-11.890281 -84.207183,7.961956c37.268729,10.960852 56.351784,2.815758 84.207183,-7.961956z"/>
   <path stroke="null" id="svg_12" d="m497.076672,605.698856c-5.393435,-1.121725 -46.32036,-11.885703 -84.18429,7.94822c21.715674,-0.105305 70.659496,-5.343072 84.129349,-7.925328a0.279287,0.279287 0 0 0 0.054942,-0.022892zm-82.595562,-17.874339c-4.702087,-2.435745 -38.262257,-20.520693 -79.317379,-12.590787l0.013735,0.009157c9.779608,2.522736 24.948072,5.553682 39.484708,8.264135c4.308338,0.801232 29.13737,3.534577 39.818936,4.317495zm-148.772738,-79.276173c32.323984,7.458324 45.258156,14.596156 66.227539,33.683789c-35.785306,-11.80329 -59.913832,-26.825244 -66.227539,-33.683789zm-46.837727,-98.29055c8.51595,8.836443 16.986116,13.520216 26.738253,26.065218c5.695614,7.330127 11.83534,17.668308 18.666414,32.177473c-21.463858,-20.328398 -31.957706,-30.945865 -45.404667,-58.242691zm69.235593,87.430424c0.141933,-8.937169 3.713138,-25.410497 -18.263509,-69.83995c0.32965,7.38049 1.977898,20.310084 6.409855,36.462919c2.774552,10.07263 6.840231,20.767931 11.853654,33.377031zm-43.971606,-78.076614c3.07673,-8.982954 11.977272,-24.371185 5.333915,-77.128871c-2.037418,5.94743 -5.164512,20.516115 -6.139726,40.958974c-0.50821,10.631203 0,22.333767 0.80581,36.169897zm116.773825,140.270523c-3.127094,-8.625834 -6.799025,-32.850508 -42.547703,-62.16186c2.188508,6.162618 8.250399,18.991485 19.252458,34.388873c6.176353,8.644148 13.982641,17.439384 23.295245,27.772987c-0.004578,0 -0.004578,0 0,0zm-140.66885,-275.893901c9.784186,21.642418 10.823498,45.798415 9.143201,74.26275c-5.55826,-23.821769 -10.15962,-51.027025 -9.143201,-74.26275z"/>
   <path stroke="null" id="svg_13" fill="#e6e6e7" d="m237.427175,291.643425c6.313707,-6.831074 22.516905,-16.963224 38.385875,-59.387308c-22.887761,22.599318 -28.308667,36.943658 -37.291622,54.932459c-0.338807,1.446796 -0.695927,2.925641 -1.094254,4.454849zm36.270623,-81.803487c6.597572,-3.34686 30.794776,-13.369126 49.42914,-38.248521c-26.948862,12.114626 -34.06838,22.031588 -46.576755,34.18742c-0.943164,1.359805 -1.88175,2.710453 -2.852386,4.061101z"/>
   <path stroke="null" id="svg_14" d="m453.823885,596.87157c-3.095044,-4.48232 -19.005221,-33.175579 -64.423623,-48.907195l0.045785,0.073255c5.938273,6.27708 19.234144,17.993379 34.81467,29.750885c8.282449,6.24503 18.194832,12.229088 29.531118,19.073898l0.032049,0.009157zm-205.005481,-350.390153l0,-0.045785c5.411749,-20.534429 9.628518,-36.073749 25.740147,-64.066502l0.018314,-0.013735c-2.371646,26.243778 -12.320657,41.352723 -25.758461,64.126022zm56.479981,-76.941154l0,-0.004578c11.812447,-15.15015 22.393287,-26.06064 45.780101,-45.084174c-12.178725,22.086529 -26.545957,29.091585 -45.780101,45.088752z"/>
   <path stroke="null" id="svg_15" fill="#e6e6e7" d="m354.365825,136.2548l0.018314,-0.013735c20.099474,-8.992111 34.082115,-15.626311 67.486618,-20.204779c-9.752137,5.164512 -44.534758,19.302821 -67.504932,20.218515zm379.280286,372.293544c-32.333141,7.458324 -45.267313,14.596156 -66.245853,33.692946c-0.073255,0.073255 43.458818,2.573099 66.245853,-33.692946zm0.123619,-37.232101c4.54184,-2.110674 38.37214,-14.445066 46.750736,-61.095076c-8.525107,8.863914 -17.013587,13.543108 -26.784038,26.106424c-6.052735,7.792552 -12.604522,18.991485 -19.966699,34.988652zm36.375928,-110.212881c2.595991,-4.120621 23.487541,-32.255307 8.973797,-77.128871c-10.113836,22.365816 -10.892175,47.419193 -8.973797,77.128871zm-19.614157,-114.621945c0.283865,-4.331231 7.14241,-31.802038 -25.753882,-64.130601c2.371646,26.248357 12.316079,41.357301 25.753882,64.130601zm-56.475402,-76.941154c-1.460531,-3.722294 -3.671931,-25.891236 -45.807572,-45.134537c12.187882,22.127736 26.559693,29.128213 45.807572,45.134537z"/>
   <path stroke="null" id="svg_17" d="m761.927308,291.643425c-6.313707,-6.831074 -22.521484,-16.963224 -38.390454,-59.401043c34.581169,25.584479 32.855086,38.16153 38.390454,59.401043zm-36.270623,-81.803487c-6.602151,-3.351439 -30.835982,-13.38744 -49.484082,-38.317198c31.495281,8.552578 38.981076,23.707307 49.484082,38.317198z"/>
   <path stroke="null" id="svg_18" fill="#e6e6e7" d="m755.219852,419.620761c-3.07673,-8.982954 -11.986429,-24.366606 -5.333915,-77.170077c18.817503,37.653321 11.281345,56.347205 5.333915,77.170077zm-43.976185,78.081193c-0.132776,-8.932591 -3.726873,-25.405919 18.272666,-69.881156c6.038999,39.356511 -6.528895,53.421564 -18.272666,69.881156zm-72.797641,62.180173c3.122515,-8.625834 6.794446,-32.850508 42.547703,-62.16186c-7.385069,39.498443 -25.566165,49.566494 -42.547703,62.16186zm-92.915429,36.989443c3.095044,-4.48232 19.000642,-33.175579 64.423623,-48.907195c-20.488644,31.284672 -41.609117,42.813254 -64.423623,48.907195zm39.338197,-9.047053c4.69293,-2.426588 38.257678,-20.520693 79.321957,-12.590787c-24.47649,17.489748 -51.063653,16.161992 -79.321957,12.590787zm-82.590984,17.874339c5.393435,-1.121725 46.338674,-11.890281 84.207183,7.961956c-37.273308,10.960852 -56.351784,2.815758 -84.207183,-7.961956z"/>
   <path stroke="null" id="svg_19" d="m502.277811,605.698856c5.388857,-1.121725 46.32036,-11.885703 84.18429,7.94822c-21.715674,-0.105305 -70.659496,-5.343072 -84.133927,-7.925328l-0.050363,-0.022892zm82.595562,-17.874339c4.702087,-2.435745 38.262257,-20.520693 79.317379,-12.590787l-0.013735,0.009157c-9.784186,2.522736 -24.948072,5.553682 -39.484708,8.264135c-4.308338,0.801232 -29.13737,3.534577 -39.818936,4.317495zm148.772738,-79.276173c-32.323984,7.458324 -45.258156,14.596156 -66.232118,33.683789c35.785306,-11.80329 59.913832,-26.825244 66.232118,-33.683789zm46.833149,-98.29055c-8.511372,8.836443 -16.986116,13.520216 -26.742831,26.065218c-5.691036,7.330127 -11.830761,17.668308 -18.661835,32.177473c21.468436,-20.328398 31.962285,-30.945865 45.404667,-58.242691zm-69.235593,87.430424c-0.137354,-8.937169 -3.713138,-25.410497 18.25893,-69.83995c-0.325071,7.38049 -1.97332,20.310084 -6.409855,36.462919c-2.765395,10.07263 -6.835653,20.767931 -11.849075,33.377031zm43.971606,-78.076614c-3.07673,-8.982954 -11.972694,-24.371185 -5.333915,-77.128871c2.037418,5.94743 5.164512,20.516115 6.144304,40.958974c0.50821,10.631203 0,22.333767 -0.810389,36.169897zm-116.769247,140.270523c3.122515,-8.625834 6.794446,-32.850508 42.547703,-62.16186c-2.188508,6.162618 -8.254978,18.991485 -19.252458,34.388873c-6.176353,8.644148 -13.98722,17.439384 -23.295245,27.772987zm140.664271,-275.893901c-9.784186,21.642418 -10.81892,45.798415 -9.138622,74.26275c5.553682,-23.821769 10.155042,-51.027025 9.138622,-74.26275z"/>
   <path stroke="null" id="svg_20" fill="#e6e6e7" d="m761.927308,291.643425c-6.313707,-6.831074 -22.516905,-16.963224 -38.385875,-59.387308c22.887761,22.599318 28.308667,36.943658 37.291622,54.932459c0.338807,1.446796 0.695927,2.925641 1.094254,4.454849zm-36.270623,-81.803487c-6.597572,-3.34686 -30.794776,-13.369126 -49.433719,-38.248521c26.948862,12.114626 34.06838,22.031588 46.576755,34.18742c0.943164,1.359805 1.886329,2.710453 2.856964,4.061101z"/>
   <path stroke="null" id="svg_21" d="m545.530598,596.87157c3.095044,-4.48232 19.000642,-33.175579 64.423623,-48.907195l-0.050363,0.073255c-5.938273,6.27708 -19.234144,17.993379 -34.81467,29.750885c-8.282449,6.24503 -18.19941,12.229088 -29.531118,19.073898l-0.027471,0.009157zm205.000903,-350.390153l0.004578,-0.045785c-5.411749,-20.534429 -9.628518,-36.073749 -25.744725,-64.066502l-0.013735,-0.013735c2.371646,26.243778 12.316079,41.352723 25.753882,64.126022zm-56.475402,-76.941154l-0.004578,-0.004578c-11.812447,-15.15015 -22.397865,-26.06064 -45.775523,-45.084174c12.178725,22.086529 26.545957,29.091585 45.780101,45.088752z"/>
   <path stroke="null" id="svg_22" fill="#e6e6e7" d="m644.988658,136.2548l-0.018314,-0.013735c-20.099474,-8.992111 -34.086694,-15.626311 -67.486618,-20.204779c9.747558,5.164512 44.534758,19.302821 67.504932,20.218515zm-144.926825,100.978111l-196.054577,21.972068l32.644477,55.468139l5.974901,99.581678l0.132776,2.037418l0.141933,1.977898l0.155668,1.936692l0.169403,1.88175l0.187717,1.826809l0.196874,1.781024l0.215188,1.730661l0.23808,1.694033l0.256394,1.64367l0.27013,1.607042l0.302179,1.565836l0.320493,1.533787l0.347964,1.501737l0.366277,1.455953l0.398327,1.428482l0.425798,1.40559l0.457847,1.378119l0.485318,1.336913l0.517367,1.31402l0.549416,1.291128l0.581465,1.259079l0.618093,1.240765l0.654721,1.213294l0.682192,1.176666l0.723398,1.172088l0.755447,1.13546l0.787496,1.112568l0.819546,1.094254l0.860752,1.066783l0.883644,1.053048l0.929429,1.030155l0.975214,1.039312l0.801232,0.792075l0.874487,0.792075l0.934007,0.787496l0.979792,0.773761l1.034734,0.769183l1.089675,0.764604l1.140039,0.760026l1.190402,0.755447l1.245343,0.760026l1.291128,0.750869l1.350648,0.755447l1.396433,0.74629l1.446796,0.750869l1.488002,0.741712l1.538365,0.737133l1.58415,0.727976l2.966847,1.318599l3.104201,1.323177l3.232398,1.318599l3.333125,1.323177l3.447586,1.323177l3.534577,1.31402l3.626147,1.318599l3.699402,1.309442l3.763501,1.304863l3.818442,1.291128l3.864227,1.286549l3.896276,1.277393l3.923747,1.263657l3.937482,1.245343l3.942061,1.231608l3.932904,1.213294l3.919169,1.19498l3.891698,1.172088l3.85507,1.153774l3.804707,1.121725l3.745187,1.103411l3.681088,1.066783l3.598676,1.043891l3.507106,1.007263l3.410959,0.984371l3.296497,0.938586l3.177457,0.901958l3.044681,0.869909l2.89817,0.824124l2.747081,0.77834l2.582256,0.741712l2.431166,0.695927l11.029529,3.090466l0,-274.46084z"/>
   <path stroke="null" id="svg_23" d="m511.617886,508.603286l2.431166,-0.695927l2.582256,-0.741712l2.742502,-0.77834l2.902749,-0.824124l3.040103,-0.869909l3.177457,-0.901958l3.301075,-0.938586l3.40638,-0.984371l3.507106,-1.007263l3.598676,-1.043891l3.681088,-1.066783l3.745187,-1.103411l3.804707,-1.121725l3.85507,-1.153774l3.891698,-1.172088l3.919169,-1.19498l3.932904,-1.213294l3.942061,-1.231608l3.937482,-1.245343l3.923747,-1.263657l3.896276,-1.277393l3.868805,-1.286549l3.818442,-1.291128l3.763501,-1.304863l3.699402,-1.309442l3.621568,-1.318599l3.539156,-1.31402l3.447586,-1.323177l3.337703,-1.323177l3.22782,-1.318599l3.104201,-1.323177l2.971426,-1.318599l1.579571,-0.727976l1.538365,-0.741712l1.492581,-0.737133l1.442217,-0.750869l1.396433,-0.74629l1.350648,-0.755447l1.291128,-0.750869l1.245343,-0.760026l1.190402,-0.755447l1.140039,-0.760026l1.089675,-0.764604l1.034734,-0.769183l0.984371,-0.773761l0.929429,-0.787496l0.874487,-0.792075l0.801232,-0.792075l0.979792,-1.039312l0.920272,-1.030155l0.892801,-1.053048l0.856174,-1.071362l0.819546,-1.089675l0.787496,-1.112568l0.755447,-1.140039l0.723398,-1.167509l0.682192,-1.176666l0.654721,-1.213294l0.618093,-1.240765l0.581465,-1.259079l0.549416,-1.291128l0.517367,-1.318599l0.480739,-1.336913l0.457847,-1.37354l0.430376,-1.40559l0.398327,-1.428482l0.366277,-1.460531l0.343385,-1.501737l0.320493,-1.529208l0.302179,-1.565836l0.27013,-1.607042l0.256394,-1.64367l0.23808,-1.694033l0.215188,-1.730661l0.201453,-1.781024l0.187717,-1.831387l0.164825,-1.877172l0.155668,-1.936692l0.141933,-1.977898l0.128197,-2.037418l5.984058,-99.581678l32.639898,-55.468139l-196.054577,-21.972068l0,274.46084l11.034108,-3.090466zm-11.556053,-264.841479l-185.386746,20.777088l28.359031,48.183797l6.071049,101.124622c1.300285,21.63784 4.390751,32.282778 13.570579,41.792256c3.099623,3.214085 9.298868,7.101204 17.421071,10.786871c29.865347,13.566001 85.88748,28.766514 110.702777,35.931817l9.262241,2.591413l0,-261.187862z" fill="#d0d1d3"/>
   <path stroke="null" id="svg_24" fill="#a6a8aa" d="m509.846019,502.362834c24.815296,-7.160724 80.832852,-22.361238 110.711934,-35.931817c8.117624,-3.685667 14.312291,-7.572786 17.416492,-10.786871c9.179828,-9.509478 12.270294,-20.154416 13.570579,-41.792256l6.071049,-101.124622l28.354452,-48.183797l-185.386746,-20.777088l0,261.187862l9.262241,-2.591413z"/>
   <path stroke="null" id="svg_25" fill="#808183" d="m500.322806,484.447289l-9.253084,-1.936692c-56.177802,-11.720878 -49.735897,-8.946326 -106.609626,-25.698941c-21.161679,-6.231295 -23.464648,-17.6912 -24.183468,-40.981867l-2.243449,-105.785502l-20.067425,-36.092063l324.714105,0l-20.067425,36.092063l-2.243449,105.785502c-0.714241,23.290667 -3.01721,34.745993 -24.178889,40.981867c-56.873729,16.752614 -50.431825,13.978063 -106.609626,25.698941l-9.257662,1.936692z"/>
   <path stroke="null" id="svg_26" d="m639.407505,406.105124l-0.206031,9.692617l-0.155668,4.212191l-0.219766,3.937482l-0.302179,3.662774l-0.393748,3.223241l-137.285362,0l0,-11.849075l5.20114,0l0,-1.030155l-5.20114,0l0,-11.849075l138.562754,0zm-279.66198,-70.458043l-0.521945,-24.728305l140.581859,0l0,24.728305l-140.059913,0z"/>
   <path stroke="null" id="svg_27" d="m637.960709,431.868163l-0.398327,2.298391l-0.709663,2.902749l-0.874487,2.673825l-1.07594,2.444902l-1.300285,2.248028l-1.542944,2.055732l-1.82223,1.886329l-2.133566,1.730661l-2.472373,1.593307l-2.847807,1.455953l-3.250712,1.327756l-3.690245,1.208716l-5.137041,1.510894l-4.798234,1.40559l-4.477742,1.309442l-4.170984,1.204137l-3.896276,1.117146l-3.639882,1.034734l-3.40638,0.9569l-3.191192,0.888223l-3.008053,0.824124l-2.843229,0.764604l-2.705875,0.709663l-2.582256,0.663878l-2.495265,0.62725l-2.412853,0.590622l-2.371646,0.563152l-2.344176,0.544838l-2.344176,0.531102l-2.362489,0.521945l-2.417431,0.517367l-2.476951,0.521945l-2.568521,0.535681l-2.682982,0.549416l-2.820336,0.572308l-2.980583,0.604358l-3.163721,0.636407l-3.374331,0.677613l-3.598676,0.727976l-3.850492,0.77834l-4.1252,0.842438l-4.4228,0.901958l-4.743293,0.979792l-5.086678,1.057626l-8.497637,1.776446l0,-51.274263l137.115958,0zm2.161037,-59.433093l-0.691349,32.630741l-138.585647,0l0,-32.630741l139.276995,0zm-280.921059,-62.551029l-0.004578,-0.155668l-19.243301,-34.608639l159.85263,0l0,34.764307l-140.604751,0zm1.304863,61.511717l-0.737133,-34.713944l140.037021,0l0,34.713944l-139.299888,0z" fill="#d4a950"/>
   <path stroke="null" id="svg_28" d="m500.844751,355.032313l0,-14.834236l70.531299,0l0,14.834236l-70.531299,0zm150.700273,-63.457566l-8.245821,14.838815l-70.888419,0l0,-14.838815l79.13424,0zm-151.739585,96.193612l0,14.838815l-70.531299,0l0,-14.838815l70.531299,0zm-126.938024,62.546451l-0.325071,-0.206031l-2.128988,-1.730661l-1.82223,-1.886329l-1.542944,-2.055732l-1.300285,-2.248028l-1.07594,-2.444902l-0.879066,-2.673825l-0.384591,-1.588728l64.826528,0l0,14.834236l-55.367413,0z" fill="#3a529a"/>
   <path stroke="null" id="svg_29" d="m500.844751,339.158765l0,-15.365338l70.531299,0l0,15.365338l-70.531299,0zm70.531299,32.236993l-70.531299,0l0,-15.324132l70.531299,0l0,15.324132zm71.346266,-63.947462l-1.272814,2.280077l-0.274708,13.03032l-68.76401,0l0,-15.310397l70.311532,0zm-70.311532,-32.328562l88.282019,0l-8.570892,15.415702l-79.711127,0l0,-15.415702zm-72.605345,128.526753l0,14.303134l-70.531299,0l0,-14.303134l70.531299,0zm-70.531299,-31.211416l70.531299,0l0,14.293977l-70.531299,0l0,-14.293977zm-66.117656,62.006192l-0.068677,-0.274708l-0.549416,-3.149986l-0.412062,-3.40638l-0.302179,-3.662774l-0.219766,-3.937482l-0.036628,-1.020998l66.667072,0l0,15.452329l-65.078344,0zm65.078344,33.532699l-2.15188,-0.553995l-2.705875,-0.709663l-2.843229,-0.764604l-3.008053,-0.824124l-3.195771,-0.888223l-3.40638,-0.9569l-3.635304,-1.034734l-3.896276,-1.117146l-4.170984,-1.204137l-4.477742,-1.309442l-4.798234,-1.40559l-5.137041,-1.510894l-3.694824,-1.208716l-3.250712,-1.327756l-2.843229,-1.455953l-0.540259,-0.347964l53.755792,0l0,16.619839z" fill="#bbbcbf"/>
   <path stroke="null" id="svg_30" d="m641.15648,323.793427l-1.011841,47.602331l-67.733855,0l0,-47.602331l68.745696,0zm-140.311729,-48.673693l70.531299,0l0,47.638959l-70.531299,0l0,-47.638959zm-139.318202,142.829887l-0.077834,-2.15188l-0.920272,-43.36267l67.706384,0l0,45.51455l-66.708278,0zm138.278889,65.192805l-8.497637,-1.776446l-5.086678,-1.057626l-4.743293,-0.979792l-4.4228,-0.901958l-4.129778,-0.842438l-3.850492,-0.77834l-3.598676,-0.727976l-3.369752,-0.677613l-3.163721,-0.636407l-2.976004,-0.604358l-2.824915,-0.572308l-2.682982,-0.549416l-2.573099,-0.535681l-2.476951,-0.521945l-2.408274,-0.517367l-2.367068,-0.521945l-2.344176,-0.531102l-2.344176,-0.544838l-2.371646,-0.563152l-2.417431,-0.590622l-1.88175,-0.471582l0,-49.25058l70.531299,0l0,64.153493z" fill="#c03b35"/>
   <path stroke="null" id="svg_31" d="m511.407276,507.852417l2.426588,-0.695927l2.582256,-0.741712l2.742502,-0.77834l2.902749,-0.824124l3.044681,-0.86533l3.177457,-0.901958l3.296497,-0.943164l3.40638,-0.979792l3.507106,-1.011841l3.598676,-1.034734l3.67651,-1.07594l3.745187,-1.098832l3.804707,-1.121725l3.85507,-1.153774l3.887119,-1.172088l3.91459,-1.19498l3.932904,-1.213294l3.937482,-1.227029l3.932904,-1.249922l3.923747,-1.259079l3.891698,-1.272814l3.859648,-1.286549l3.813864,-1.291128l3.758922,-1.304863l3.694824,-1.304863l3.61699,-1.31402l3.534577,-1.31402l3.438429,-1.318599l3.328546,-1.318599l3.218663,-1.318599l3.095044,-1.318599l2.95769,-1.31402l1.574993,-0.723398l1.529208,-0.737133l1.474267,-0.732555l1.437639,-0.741712l1.382697,-0.741712l1.341491,-0.750869l1.277393,-0.741712l1.231608,-0.750869l1.176666,-0.750869l1.121725,-0.74629l1.080518,-0.755447l1.011841,-0.755447l0.966057,-0.760026l0.911115,-0.769183l0.851595,-0.773761l0.77834,-0.769183l0.961478,-1.020998l0.911115,-1.01642l0.879066,-1.034734l0.83786,-1.053048l0.80581,-1.071362l0.77834,-1.094254l0.741712,-1.121725l0.709663,-1.144617l0.673035,-1.158352l0.636407,-1.190402l0.604358,-1.217872l0.576887,-1.240765l0.540259,-1.268236l0.512788,-1.300285l0.471582,-1.318599l0.453268,-1.350648l0.421219,-1.391854l0.393748,-1.410168l0.366277,-1.442217l0.338807,-1.483424l0.315914,-1.515473l0.2976,-1.552101l0.27013,-1.593307l0.256394,-1.634513l0.233502,-1.684876l0.219766,-1.721504l0.196874,-1.767289l0.183139,-1.82223l0.164825,-1.868015l0.155668,-1.927535l0.141933,-1.977898l0.132776,-2.03284l5.993215,-99.764817l32.113374,-54.566181l-8.534264,4.262554l-28.68868,48.746948l-6.06647,100.996425l-0.132776,2.005369l-0.132776,1.936692l-0.155668,1.877172l-0.160246,1.817652l-0.17856,1.767289l-0.187717,1.707769l-0.21061,1.652827l-0.219766,1.602464l-0.247237,1.552101l-0.256394,1.510894l-0.279287,1.460531l-0.293022,1.419325l-0.320493,1.37354l-0.334228,1.332334l-0.361699,1.295706l-0.380013,1.263657l-0.407484,1.217872l-0.434954,1.19498l-0.453268,1.167509l-0.480739,1.121725l-0.50821,1.103411l-0.535681,1.07594l-0.563152,1.048469l-0.595201,1.025577l-0.62725,1.007263l-0.654721,0.988949l-0.682192,0.966057l-0.714241,0.952321l-0.750869,0.934007l-0.782918,0.924851l-0.819546,0.915694l-0.851595,0.906537l-0.631829,0.622672l-0.705084,0.640986l-0.769183,0.654721l-0.83786,0.654721l-0.906537,0.673035l-0.961478,0.677613l-1.030155,0.682192l-1.085097,0.695927l-1.144617,0.691349l-1.19498,0.700506l-1.263657,0.705084l-1.304863,0.700506l-1.364383,0.700506l-1.410168,0.705084l-1.455953,0.695927l-1.506316,0.695927l-2.889013,1.286549l-3.021789,1.286549l-3.163721,1.291128l-3.273605,1.295706l-3.388066,1.300285l-3.488793,1.300285l-3.575783,1.300285l-3.658196,1.291128l-3.726873,1.291128l-3.781815,1.281971l-3.836756,1.277393l-3.868805,1.263657l-3.896276,1.259079l-3.91459,1.236186l-3.919169,1.222451l-3.91459,1.208716l-3.900855,1.190402l-3.873384,1.167509l-3.841335,1.149195l-3.790971,1.121725l-3.740608,1.094254l-3.662774,1.071362l-3.589519,1.039312l-3.502528,1.007263l-3.401802,0.975214l-3.291918,0.938586l-3.172878,0.901958l-3.040103,0.86533l-2.902749,0.828703l-2.751659,0.782918l-2.586834,0.737133l-2.417431,0.695927l-9.665146,2.705875l-9.660567,-2.705875l-2.42201,-0.695927l-2.582256,-0.737133l-2.751659,-0.782918l-2.902749,-0.828703l-3.040103,-0.86533l-3.177457,-0.901958l-3.291918,-0.938586l-3.401802,-0.975214l-3.49795,-1.007263l-3.594097,-1.039312l-3.662774,-1.071362l-3.740608,-1.094254l-3.790971,-1.121725l-3.841335,-1.149195l-3.868805,-1.167509l-3.905433,-1.190402l-3.910012,-1.208716l-3.919169,-1.222451l-3.91459,-1.236186l-3.900855,-1.259079l-3.868805,-1.263657l-3.832178,-1.277393l-3.781815,-1.281971l-3.731451,-1.291128l-3.653617,-1.291128l-3.575783,-1.300285l-3.493371,-1.300285l-3.383488,-1.300285l-3.278183,-1.295706l-3.159143,-1.291128l-3.021789,-1.286549l-2.884435,-1.286549l-1.506316,-0.691349l-1.460531,-0.700506l-1.410168,-0.705084l-1.364383,-0.700506l-1.304863,-0.700506l-1.263657,-0.705084l-1.19498,-0.700506l-1.144617,-0.691349l-1.085097,-0.695927l-1.030155,-0.682192l-0.961478,-0.677613l-0.906537,-0.673035l-0.833281,-0.654721l-0.769183,-0.654721l-0.709663,-0.640986l-0.631829,-0.622672l-0.851595,-0.906537l-0.819546,-0.915694l-0.782918,-0.924851l-0.750869,-0.934007l-0.714241,-0.952321l-0.68677,-0.966057l-0.650142,-0.984371l-0.62725,-1.011841l-0.595201,-1.025577l-0.563152,-1.048469l-0.535681,-1.07594l-0.512788,-1.103411l-0.480739,-1.126303l-0.453268,-1.158352l-0.430376,-1.19498l-0.412062,-1.222451l-0.380013,-1.263657l-0.361699,-1.295706l-0.334228,-1.327756l-0.315914,-1.378119l-0.2976,-1.419325l-0.279287,-1.460531l-0.256394,-1.510894l-0.247237,-1.552101l-0.219766,-1.597885l-0.21061,-1.661984l-0.187717,-1.70319l-0.17856,-1.767289l-0.164825,-1.817652l-0.151089,-1.877172l-0.137354,-1.936692l-0.132776,-2.005369l-6.061892,-100.996425l-28.679523,-48.74237l-8.538843,-4.267132l32.113374,54.566181l5.988636,99.764817l0.132776,2.03284l0.137354,1.977898l0.155668,1.927535l0.169403,1.872593l0.187717,1.817652l0.192296,1.767289l0.219766,1.721504l0.233502,1.684876l0.256394,1.634513l0.27013,1.593307l0.2976,1.552101l0.315914,1.520051l0.343385,1.483424l0.361699,1.437639l0.393748,1.410168l0.421219,1.391854l0.453268,1.355227l0.476161,1.318599l0.50821,1.295706l0.540259,1.268236l0.576887,1.240765l0.604358,1.217872l0.640986,1.190402l0.673035,1.158352l0.709663,1.149195l0.741712,1.121725l0.77834,1.089675l0.80581,1.071362l0.842438,1.053048l0.874487,1.034734l0.911115,1.01642l0.961478,1.020998l0.773761,0.769183l0.856174,0.773761l0.911115,0.769183l0.961478,0.760026l1.020998,0.755447l1.071362,0.755447l1.126303,0.74629l1.176666,0.750869l1.231608,0.750869l1.277393,0.741712l1.341491,0.750869l1.382697,0.741712l1.437639,0.741712l1.474267,0.732555l1.529208,0.737133l1.579571,0.723398l2.953112,1.31402l3.090466,1.318599l3.223241,1.318599l3.328546,1.318599l3.438429,1.318599l3.529999,1.31402l3.61699,1.31402l3.694824,1.304863l3.758922,1.304863l3.813864,1.291128l3.859648,1.286549l3.891698,1.272814l3.923747,1.259079l3.932904,1.249922l3.942061,1.227029l3.928326,1.213294l3.91459,1.19498l3.891698,1.172088l3.850492,1.153774l3.804707,1.121725l3.745187,1.098832l3.681088,1.07594l3.594097,1.034734l3.507106,1.011841l3.40638,0.979792l3.301075,0.943164l3.172878,0.901958l3.044681,0.86533l2.902749,0.824124l2.742502,0.77834l2.582256,0.741712l2.431166,0.695927l11.079892,3.104201l11.084471,-3.104201z" fill="#6d6e70"/>
  </g>
  <g stroke="null" id="svg_39">
   <path stroke="null" id="svg_38" d="m552.54354,802.628626c-4.06437,-5.035303 -1.874126,-13.209203 4.154689,-17.973548s14.812371,-4.13211 18.515464,0.383857c4.13211,5.012723 2.235404,13.096304 -3.770832,17.860649s-14.834951,4.741765 -18.899321,-0.270958zm-294.102341,-51.098165a313.31778,313.31778 0 0 1 62.5913,-15.805884c15.783304,-2.167664 33.553634,-0.474177 38.837315,12.486648c5.261101,12.938245 -2.912799,36.285794 -49.133719,56.878602c-44.97903,20.050893 -102.286649,29.737642 -138.030527,30.505356a132.340408,132.340408 0 0 0 -16.189741,24.56686c-4.154689,7.970681 -6.073975,15.941363 -5.780438,21.81212c0.654815,13.186623 10.996379,20.208952 26.870003,18.921901c8.580337,-0.699975 18.538044,-4.538547 29.376364,-10.251245c21.541162,-11.357657 46.649937,-30.392457 71.126478,-47.982148c3.364395,-2.416042 10.702841,-7.406186 11.244757,-7.767463c14.270455,-9.370631 27.18612,-15.376867 42.337189,-18.921901c4.832085,-1.128992 13.141464,-2.348303 22.286296,-2.054765c13.457581,0.406437 26.418406,2.912799 33.372995,7.157807c-3.409555,2.122504 -6.615891,4.990143 -8.444858,6.593312c-18.492884,16.167161 -33.531054,35.111642 -41.095298,46.943475c-2.167664,3.386975 -3.590194,8.061001 -1.896706,9.59643c1.42253,1.30963 4.515967,1.33221 9.280312,-1.693488c9.144833,-5.803017 28.789289,-24.002364 40.734021,-34.253609c2.799899,-2.393462 19.508977,-14.92527 24.995876,-18.199346l0.338698,-0.225798c11.764094,-6.999749 22.512095,-10.680262 29.94086,-12.689867c16.821976,-4.561127 32.334323,-3.793412 34.931004,-1.941866a1422.529556,1422.529556 0 0 0 44.166156,-42.608147c7.022328,0 20.502489,-0.02258 27.931255,-0.180639a73.5651,73.5651 0 0 0 -7.067488,5.39658c-7.248127,6.977169 -31.34081,30.121499 -50.782047,49.811114c-21.066985,21.315364 -32.876239,35.066483 -39.085693,45.859643c-3.161177,5.46432 -4.493387,9.889967 -2.596681,11.447976c2.054765,1.716067 6.254614,0.316118 11.064119,-2.867639c10.90606,-7.225547 41.230777,-34.660046 51.79814,-45.204828c0,0 17.65743,-17.589691 21.608901,-21.247624c7.022328,0.02258 19.915414,-0.02258 27.321599,-0.180639c-2.009605,1.35479 -5.690118,3.883731 -7.225547,5.351421c-14.202716,13.6608 -33.418155,33.621373 -41.817853,45.633845c-6.615891,9.48353 -5.757858,15.444607 -3.477294,17.838069c4.357908,4.561127 18.154187,1.919286 38.295399,-9.099673c-1.670908,-9.077093 1.512849,-23.076591 8.625497,-34.05039c15.241388,-23.528187 47.146694,-53.040031 71.758713,-65.41378c12.351169,-6.209454 20.276691,-7.248127 25.153935,-3.341815c5.870757,4.696606 4.08695,15.534926 -2.416042,25.673272c-19.734775,30.663415 -41.366256,49.111139 -83.387328,76.20694c-0.02258,7.202967 3.974051,11.989892 14.293035,11.989892c13.480161,0 27.005482,-4.719185 41.185618,-11.831833c-1.35479,-8.941614 2.257983,-22.895952 9.054514,-33.372995c15.128489,-23.324969 47.214433,-53.06261 71.690974,-65.3912c12.802766,-6.435253 20.276691,-7.067488 25.108776,-3.296656c6.141715,4.786925 4.08695,15.828464 -2.845059,26.553885c-19.12512,29.624742 -40.643702,47.982148 -83.387328,75.552125c-0.677395,7.790043 3.364395,11.628615 9.50611,11.447976c9.777068,-0.270958 21.992759,-8.580337 40.079206,-24.973297c5.915917,-5.351421 25.673272,-23.031431 30.392457,-26.102288c14.451094,-9.48353 27.25386,-15.376867 42.314609,-18.967061a94.609505,94.609505 0 0 1 28.360272,-1.693488c10.680262,0.835454 20.728288,3.025698 27.321599,6.77395c-3.635353,2.280563 -7.112648,5.374001 -8.693236,6.75137a238.014032,238.014032 0 0 0 -40.91466,46.875736c-2.393462,3.770832 -3.477294,8.10616 -1.919286,9.55127c1.670908,1.512849 4.922404,0.970933 9.144833,-1.693488c9.144833,-5.803017 44.685492,-38.227659 45.046769,-38.588937c14.451094,-14.134976 30.618255,-24.431381 47.575711,-29.647322c15.376867,-4.719185 30.934373,-3.928891 35.630978,6.525572c6.728791,14.97043 -7.993261,33.598793 -30.550516,37.753483l-2.167664,-7.902942c11.086699,-7.248127 21.157305,-21.292784 16.009102,-26.824843c-3.748252,-4.04179 -11.764094,-2.009605 -18.357405,1.783807c-11.425396,6.570732 -27.502238,21.608901 -36.78255,37.324466c-6.051396,10.206085 -6.81911,20.615389 -1.083832,25.85391c5.644959,5.148202 13.931758,5.44174 21.925019,3.499874c17.68001,-4.290169 32.65044,-15.918783 44.93387,-29.105406l3.567614,10.206085c-13.57048,14.112396 -29.421524,24.002364 -45.837063,28.202213c-18.492884,4.741765 -32.108524,2.66442 -40.937239,-6.480412c-6.028816,-6.232034 -8.377118,-16.415539 -6.638471,-26.870003c-10.657682,9.912547 -18.899321,17.363893 -25.492633,21.925019c-8.19648,5.667538 -18.718683,9.777068 -26.282927,4.674026c-7.654564,-5.148202 -6.344933,-18.334825 -3.296656,-24.250742a177.251699,177.251699 0 0 1 -26.960322,20.36701c-12.735026,7.744883 -25.244255,8.15132 -31.024692,1.083832c-3.657933,-4.493387 -5.035303,-11.809253 -2.235404,-20.931506c-10.183505,9.054514 -20.231531,17.115514 -29.760221,21.81212a37.279306,37.279306 0 0 1 -18.470304,4.199849c-11.222178,-0.519336 -17.499372,-6.096555 -21.066985,-13.480161c-19.373498,10.183505 -33.147197,13.525321 -47.327333,13.525321c-13.57048,0 -22.557254,-5.667538 -27.29902,-13.096304a106.125221,106.125221 0 0 1 -24.905557,11.154438c-12.21569,3.364395 -24.228162,3.251496 -30.144079,-2.799899c-4.380488,-4.470807 -7.564244,-12.983405 -3.003118,-25.221675c-11.312497,10.612522 -19.508977,18.109027 -26.395826,22.941112c-7.948102,5.554639 -20.096052,10.296404 -27.29902,4.538547c-8.286799,-6.638471 -5.283681,-19.238019 -2.303143,-24.273322c-2.483782,2.325723 -4.832085,4.290169 -7.157807,6.277194a175.354993,175.354993 0 0 1 -20.299271,14.902691c-11.967312,7.631984 -21.76696,6.954589 -27.502238,3.341815c-7.270707,-4.538547 -7.654564,-15.399447 -4.651446,-25.108776c-10.002867,9.189993 -18.041288,16.167161 -24.295902,20.502489c-8.422278,5.848177 -18.696103,9.709329 -26.373246,4.538547c-8.422278,-5.667538 -5.306261,-20.208952 -3.364395,-23.957204c-3.703093,3.386975 -7.767463,6.593312 -11.899573,9.754488a177.251699,177.251699 0 0 1 -14.834951,10.318984c-12.057631,7.315866 -24.860397,8.670656 -30.889213,1.30963c-4.719185,-5.780438 -6.006236,-15.625245 0.564496,-28.450591c-38.430878,30.144079 -70.155545,50.691728 -99.328691,50.691728c-30.821474,0 -47.440232,-28.405431 -38.15992,-57.352779a94.609505,94.609505 0 0 1 11.628615,-24.183002c-28.269952,-5.057883 -43.850038,-14.880111 -45.408047,-32.289163c-1.467689,-16.460699 11.831833,-28.089314 21.76696,-34.637466a145.346393,145.346393 0 0 1 24.341061,-13.005985c22.783053,-9.438371 56.630224,-15.625245 82.867992,-14.744632l4.538547,10.025446c-1.174151,-0.203219 -2.461202,-0.316118 -3.861152,-0.451597c-9.935127,-0.790294 -27.682877,0.632235 -45.859643,5.148202c-16.257481,4.01921 -34.185869,11.177018 -45.227408,20.615389c-15.580086,13.322102 -15.01559,26.757104 -9.664169,34.705205c4.832085,7.157807 11.764094,11.357657 24.724918,13.818859c4.786925,-5.577219 10.318984,-10.996379 16.618758,-16.551018c27.005482,-23.686246 60.830073,-41.863013 94.406287,-53.988384zm-75.281167,72.887705c48.885341,-1.670908 92.351522,-22.150817 127.847021,-39.424391c25.018456,-12.170531 41.704954,-25.424893 37.934121,-34.163289c-1.196731,-2.77732 -4.854664,-4.267589 -9.348051,-4.696606a67.694343,67.694343 0 0 0 -16.867136,0.790294c-15.602665,2.303143 -33.440734,7.654564 -54.056123,17.838069c-7.406186,3.657933 -15.151069,7.925522 -23.302389,12.915665c-15.354287,9.393211 -31.589188,20.931506 -48.795022,34.931004a220.130804,220.130804 0 0 0 -13.412422,11.809253zm460.470559,-38.001861c5.283681,-7.586824 1.467689,-10.296404 -5.825597,-5.46432c-16.551018,10.95122 -31.882726,25.673272 -44.166156,39.627609c-12.599547,14.315615 -23.483028,30.934373 -26.192608,41.456576c13.773699,-9.257732 27.344179,-21.428263 39.063113,-33.124617c16.054262,-16.099422 30.369877,-32.785919 37.121247,-42.495248zm75.597285,0c5.261101,-7.541665 1.580588,-10.364144 -5.870757,-5.46432c-27.750616,18.267086 -63.517074,57.014081 -70.449083,81.355143c13.6608,-8.919035 30.234398,-24.002364 44.685492,-38.950214c13.999497,-14.473674 25.85391,-28.65381 31.634348,-36.940609zm66.74599,39.51471c-1.219311,-0.948353 -5.351421,-2.167664 -10.138346,-2.212824c-5.193362,-0.04516 -11.447976,1.738647 -17.296153,4.899824c-20.705708,11.267337 -36.172894,26.260347 -46.875736,43.240383c-3.499874,5.577219 -3.228916,10.093186 -1.716067,11.470556c2.099925,1.919286 6.164295,1.42253 13.344682,-2.099925c15.354287,-7.519085 39.853407,-31.38597 62.68162,-55.298014zm-319.188536,0.270958a13.999497,13.999497 0 0 0 -6.457833,-2.167664a30.211818,30.211818 0 0 0 -16.844556,3.025698c-17.409052,8.354539 -34.592306,21.947599 -48.817602,42.811366c-3.974051,5.825597 -5.238522,11.922152 -3.093437,13.931758c2.303143,2.145084 7.361026,1.39995 13.412422,-2.077345c20.028313,-11.538295 41.659794,-34.750365 61.801006,-55.523812zm-138.233745,25.695851c8.444858,-8.083581 17.228414,-16.934876 25.763591,-25.89907c-1.35479,-0.993513 -5.825597,-2.145084 -10.251245,-2.167664c-5.012723,-0.04516 -11.876993,1.964446 -17.296153,4.899824a124.776164,124.776164 0 0 0 -46.740257,43.195223c-3.522454,5.644959 -3.341815,9.957707 -1.648328,11.515715c2.145084,1.964446 6.119135,1.445109 13.209203,-2.032185c9.57385,-4.719185 22.783053,-15.941363 36.963189,-29.511843zm705.50692,25.85391a8.286799,8.286799 0 1 1 0,-16.573598a8.286799,8.286799 0 0 1 0,16.573598zm0,-0.970933a7.315866,7.315866 0 1 0 0,-14.631733a7.315866,7.315866 0 0 0 0,14.631733zm-3.070857,-2.619261l0,-9.302892l4.06437,0c0.790294,0 1.558009,0.04516 2.257983,0.474177c0.699975,0.383857 1.038672,1.219311 1.038672,1.987025c0,1.828967 -1.287051,2.506362 -2.935378,2.551521l2.822479,4.290169l-1.35479,0l-2.66442,-4.290169l-2.099925,0l0,4.290169l-1.128992,0zm1.128992,-8.467438l0,3.296656l1.738647,0c1.30963,0 3.319236,0.225798 3.319236,-1.670908c0,-1.42253 -1.264471,-1.603168 -2.416042,-1.603168l-2.641841,0l0,-0.02258z"/>
  </g>
 </g>
</svg>