<svg width="1000" height="1000" xmlns="http://www.w3.org/2000/svg">
 <defs>
  <style type="text/css">
   <![CDATA[
    .fil0 {fill:black}
    .fil1 {fill:white}
    .fil2 {fill:url(#id0)}
   ]]>
  </style>
 </defs>
 <g>
  <title>background</title>
  <rect fill="none" id="canvas_background" height="1002" width="1002" y="-1" x="-1"/>
 </g>
 <g>
  <title>Layer 1</title>
  <g stroke="null" id="_0">
   <metadata stroke="null" transform="translate(-2,0) translate(0,-149.55995178222656) translate(347.07000732421875,0) translate(0,157.30804443359375) translate(91,315) translate(562.089111328125,472.3080749511719) scale(3.6843197345733643) translate(-562.089111328125,-472.3080749511719) translate(28.384336471557617,128.19410705566406) scale(1.7373225688934326) translate(-28.384336471557617,-128.19410705566406) " id="CorelCorpID_0Corel-Layer"/>
   <g stroke="null" id="_42253856">
    <path stroke="null" d="m499.997421,468.63676c-1.448468,0 -2.513762,1.085316 -2.524118,1.109479c-0.064898,0.048326 -25.718239,24.530048 -25.718239,24.530048c-9.459947,9.131263 -22.019762,5.308514 -23.361893,4.863898c0,0 -109.658753,-29.914509 -109.672835,-29.924174c-20.926817,-6.312366 -25.08513,-13.121106 -28.28722,-21.392863c0,0 -1.859947,-5.144198 -6.415254,-6.490464c0,0 -134.047919,-39.350261 -134.058801,-39.350261c-5.470072,-1.68873 -8.480233,-3.23316 -10.630855,-7.397656c0,0 -7.356947,-12.956796 -7.381142,-12.991361c-1.633497,-3.106129 -4.589116,-3.434761 -4.760339,-3.458924c-10.137925,-1.370454 -13.110801,-7.021414 -14.367992,-9.429543c0,0 -5.979593,-10.501045 -5.979593,-10.501045c-1.870303,-3.253873 -4.544931,-3.527964 -4.627086,-3.53832c-5.764185,-0.366602 -8.50782,-1.818527 -10.891113,-5.733806c0,0 -5.84634,-9.723662 -5.870509,-9.771284c-2.873464,-5.308514 -1.879969,-9.110588 -0.554397,-11.364072c2.791303,-4.623636 7.90166,-4.976432 9.952877,-5.048237c0,0 320.534817,0 320.534817,0c9.076024,0 16.409544,2.750568 21.831257,8.188866c3.894573,3.88076 6.576107,8.942822 7.963108,15.042514c0.02417,0.143603 0.401129,1.41809 3.144098,1.41809l63.355631,0c2.743668,0 3.120626,-1.273795 3.144098,-1.41809c1.38702,-6.099724 4.068554,-11.162445 7.963108,-15.042514c5.421746,-5.439002 12.754529,-8.188866 21.831257,-8.188866c0,0 320.534817,0 320.534817,0c2.051191,0.071805 7.161593,0.424601 9.952877,5.048237c1.325578,2.253477 2.319067,6.055532 -0.554391,11.364072c-0.024163,0.048326 -5.870509,9.771284 -5.870509,9.771284c-2.383965,3.914595 -5.126941,5.367204 -10.891113,5.733806c-0.082161,0.010357 -2.757474,0.284447 -4.627086,3.53832c0,0 -5.979593,10.501045 -5.979593,10.501045c-1.257223,2.407437 -4.230105,8.059056 -14.367992,9.429543c-0.171223,0.024163 -3.126842,0.352796 -4.760339,3.458924c-0.024163,0.03452 -7.381142,12.991361 -7.381142,12.991361c-2.150609,4.165207 -5.161461,5.709643 -10.630855,7.397656c-0.010357,0 -134.058801,39.350261 -134.058801,39.350261c-4.555288,1.346291 -6.415254,6.490464 -6.415254,6.490464c-3.202097,8.271053 -7.360404,15.080471 -28.28722,21.392863c-0.013807,0.009665 -109.672835,29.924174 -109.672835,29.924174c-1.342143,0.445314 -13.901946,4.26739 -23.361893,-4.863898c0,0 -25.653334,-24.481722 -25.718239,-24.530048c-0.010357,-0.024163 -1.07565,-1.109479 -2.524118,-1.109479l-0.005524,0l0.000346,0z" class="fil0" id="_170829896"/>
    <path stroke="null" d="m540.645391,347.277954c1.119835,-4.966767 3.26423,-9.038771 6.343436,-12.117965c4.263934,-4.27084 10.199309,-6.442137 17.614952,-6.442137c0,0 71.699142,0 147.251596,0c-5.062043,3.788248 -7.720067,8.579638 -7.898203,8.898592c-1.705296,3.19519 -3.835883,6.935131 -6.370358,11.124488c0,0 -157.460955,0 -157.460955,0c0.325182,-0.57511 0.520562,-1.462275 0.520562,-1.462275l-0.000685,-0.000691l-0.000346,-0.000013zm348.656665,-10.973992c-0.082161,0.129796 -5.750378,9.559352 -5.750378,9.559352c-1.07565,1.770885 -1.739816,2.572445 -6.158407,2.853442c-0.02417,0 -174.380967,0.023472 -174.380967,0.023472c1.949008,-3.301515 3.623932,-6.29856 5.028215,-8.908258c0.047635,-0.092512 6.223305,-11.100293 17.190384,-11.100293c0,0 159.749259,-0.013807 159.749259,-0.013807c1.674917,0.071805 3.853146,0.260284 5.004052,2.160966c0.140147,0.256834 0.46947,0.787753 0.46947,1.743272c0,0.849195 -0.270634,2.054641 -1.150905,3.681924l-0.000691,0l-0.000032,-0.00007zm-21.327958,18.950874c0,0 -6.086602,10.689551 -6.086602,10.689551c-0.831938,1.582406 -2.113324,4.024363 -6.181879,5.428646c-3.400933,0.849195 -10.165513,0.307919 -12.508033,0.024163c0,0 -148.326939,-9.854111 -148.326939,-9.854111c1.917945,-2.842394 3.695737,-5.579155 5.315421,-8.175744c0,0 169.0689,0 169.0689,0c-0.441864,0.564754 -0.876814,1.177827 -1.280702,1.886875l0,0.000691l-0.000166,-0.00007zm-25.21494,23.550398c0.03797,-0.044876 -5.832533,10.291866 -7.055211,12.439671c-0.301711,0.401129 -1.969721,2.216199 -7.404569,1.496794c0,0 -142.130915,-19.066921 -142.130915,-19.066921c1.949008,-2.548282 3.794463,-5.07585 5.524614,-7.5178c0,0 150.985213,10.018485 150.985213,10.018485c0.219543,0.024163 0.856101,0.095968 1.763985,0.178123c-0.619987,0.709048 -1.185425,1.509916 -1.681824,2.452314l-0.001383,-0.000691l0.00009,0.000026zm-48.884778,27.587863c-5.349941,1.41809 -15.816441,-0.188479 -19.450781,-0.941713c0,0 -66.856257,-13.737636 -97.664837,-20.074159c2.137494,-2.511003 4.188679,-5.000595 6.134244,-7.466722c0,0 142.733875,19.159414 142.733875,19.159414c0,0 -31.75373,9.323225 -31.75373,9.323225l0.000685,0l0.000544,-0.000045zm-48.413227,14.207139c-6.86677,1.839234 -15.830267,-1.133642 -15.91591,-1.157805c0,0 -0.106325,-0.03452 -0.106325,-0.03452c0,0 -0.013807,-0.010357 -0.024163,-0.010357c0,0 -65.369979,-20.166012 -65.369979,-20.166012c3.240066,-3.291849 6.319267,-6.562281 9.220363,-9.84035c0,0 100.225818,20.601654 100.225818,20.601654c0.219549,0.033829 2.270741,0.45912 5.154555,0.859551c0,0 -33.18496,9.747793 -33.18496,9.747793l0.000691,0l-0.00009,0.000045zm-51.062987,14.998348c-4.640899,1.26068 -11.48076,-1.41809 -13.751462,-2.562088c0,0 -17.491416,-8.188866 -35.45227,-16.590432c5.394817,-4.425491 10.432684,-8.942822 15.128157,-13.508422c0,0 67.788221,20.919968 67.788221,20.919968c0.12979,0.047642 1.363548,0.448764 3.250423,0.873364c0,0 -36.962871,10.867622 -36.962871,10.867622l-0.000198,-0.000013zm-10.463793,10.230417c-1.973178,5.062043 -4.038176,10.275287 -17.943636,15.501647c-5.740021,1.784007 -12.566728,-3.291849 -12.62472,-3.349841c-0.02417,-0.023472 -15.505103,-11.10375 -33.133881,-23.718164c7.161593,-4.422041 14.148443,-9.285268 20.926817,-14.59375c0,0 37.459257,17.532829 37.459257,17.532829c0.205045,0.106325 4.068554,2.054641 8.747404,2.928006c-2.236221,2.548282 -3.250423,5.178724 -3.431996,5.699286l0.000685,0l0.00007,-0.000013zm-52.3927,25.321258c0,0 -5.219453,1.414639 -5.219453,1.414639c-4.394422,1.051487 -9.758163,-3.302206 -11.473847,-5.11037c0,0 -8.425697,-8.764686 -19.251906,-20.070767c6.925466,-3.137198 13.69347,-6.641012 20.299982,-10.511415c0,0 34.715596,24.837993 34.715596,24.837993c0.140147,0.116681 2.123681,1.603119 5.03788,2.866557c-7.713218,2.099518 -24.108232,6.572651 -24.108232,6.572651l0,0.000691l-0.000019,0.000019zm-45.898076,12.518402c-3.664667,0.57856 -7.918942,-5.439002 -9.152002,-7.682814c0,0 -10.470001,-17.72063 -10.470001,-17.72063c8.55205,-2.466127 16.912139,-5.418289 25.043717,-8.898592c0,0 20.420062,21.310036 20.420062,21.310036c0.181573,0.178123 2.441957,2.524118 5.71655,4.377165c0,0 -31.557672,8.614202 -31.557672,8.614202l-0.000691,0.000691l0.000038,-0.000058zm-34.760466,9.473709c-2.466127,0.568204 -4.548381,0.318276 -6.33653,-0.76359c-3.84279,-2.349445 -5.120035,-7.754632 -5.192531,-8.072882c0,0 -5.339584,-19.269188 -5.339584,-19.269188c9.339803,-1.297958 18.460697,-3.126842 27.375931,-5.486644c0,0 11.076162,18.752064 11.076162,18.752064c0.380409,0.671072 2.626986,4.589808 5.997541,7.326543c0,0 -27.581655,7.514344 -27.581655,7.514344l0.000685,-0.000691l-0.000019,0.000045zm-22.526518,-6.993763c0,0 -14.851256,-14.172638 -19.889175,-18.963996c7.069037,-0.246471 14.042829,-0.76704 20.892316,-1.568599c0,0 5.463165,19.704126 5.463165,19.704126c0.154645,0.684878 1.243417,5.004052 4.277747,8.439523c-4.185229,-1.192325 -5.452809,-2.4316 -10.744086,-7.610357l0,-0.000691l0.000032,-0.000006zm-26.036553,-23.471668c0,0 0,-60.033397 0,-60.033397c0,0 9.582779,0 9.582779,0c0,0 16.200364,58.454435 16.200364,58.454435c-8.431906,0.965876 -17.02537,1.496794 -25.783143,1.578956l0,0.000006zm-30.434386,-1.578956c0,0 16.210669,-58.454435 16.210669,-58.454435c0,0 9.582779,0 9.582779,0c0,0 0,60.023732 0,60.023732c-8.775056,-0.071798 -17.365063,-0.61308 -25.793513,-1.568599l0,-0.000691l0.000064,-0.000006zm-4.254269,28.858881c-2.099518,2.041526 -4.45932,3.185525 -6.743873,3.801363c3.055037,-3.445809 4.116881,-7.778123 4.277747,-8.449188c0,0 5.463165,-19.669626 5.463165,-19.669626c6.850192,0.791203 13.82328,1.308315 20.88886,1.544436c-5.65786,5.381011 -23.885931,22.772951 -23.885931,22.772951l0.000032,0.000064zm-6.997219,-5.68548c0,0.057992 -1.257223,5.699286 -5.199431,8.107447c-1.788148,1.082557 -3.863503,1.331787 -6.329623,0.76359c0,0 -27.581655,-7.514344 -27.581655,-7.514344c3.369863,-2.750568 5.641295,-6.668599 6.031369,-7.387991c-0.013813,0.013807 4.671963,-7.904412 11.025083,-18.676149c8.918627,2.359802 18.053347,4.188679 27.393149,5.472831c0,0 -5.339584,19.234688 -5.339584,19.234688l0.000685,0l0.000006,-0.00007zm-46.289552,-0.602723c0,0 -31.557672,-8.614202 -31.557672,-8.614202c3.273895,-1.863403 5.544635,-4.212849 5.71655,-4.387521c0,0 9.021489,-9.419174 20.420062,-21.300371c8.141243,3.469281 16.477905,6.442137 25.033347,8.908258c0,0 -10.425771,17.666031 -10.425771,17.666031c-1.270345,2.287997 -5.524614,8.305553 -9.185798,7.72698l-0.000691,0.000691l-0.000026,0.000134zm-40.685542,-11.10375c0,0 -29.32147,-7.987303 -29.32147,-7.987303c2.924549,-1.273795 4.92189,-2.774046 5.086206,-2.904527c-0.02417,0.024163 16.381892,-11.716823 34.667974,-24.800036c6.607151,3.856596 13.374516,7.374229 20.310287,10.511415c0,0 -19.262275,20.070767 -19.262275,20.070767c-1.715652,1.80817 -7.079406,6.161166 -11.48076,5.11037l0,-0.000691l0.000038,0.000006zm-39.698915,-11.234263c-13.847411,-5.227051 -15.922823,-10.429228 -17.892493,-15.477452c-0.160866,-0.448764 -1.174377,-3.140648 -3.445118,-5.72345c4.689226,-0.887171 8.565876,-2.832038 8.819222,-2.962525c-0.037976,0.010357 18.731325,-8.754317 37.397809,-17.498265c6.761156,5.308514 13.748006,10.182091 20.913055,14.59375c0,0 -33.085555,23.670478 -33.085555,23.670478c-0.106325,0.106325 -6.966879,5.205646 -12.706907,3.397476l-0.000013,-0.000013zm-28.359742,-25.732064c-1.397376,-0.414929 -16.939726,-4.980573 -36.97324,-10.867622c1.911038,-0.424594 3.168262,-0.849195 3.308415,-0.897527c-0.057998,0.024163 54.933391,-16.943887 67.739575,-20.895773c4.695441,4.555288 9.734031,9.082937 15.128157,13.498116c0,0 -35.394278,16.566941 -35.394278,16.566941c-2.342539,1.177827 -9.16858,3.856596 -13.809454,2.595917l0.000685,0l0.000141,-0.000051zm-51.038792,-14.987979c-10.89873,-3.19519 -22.389092,-6.569194 -33.226374,-9.758163c2.890721,-0.400431 4.955719,-0.825723 5.171818,-0.873364c-0.010357,0.013807 70.757576,-14.535758 100.225818,-20.587828c2.914884,3.266995 5.969927,6.548455 9.209994,9.84035c0,0 -65.442309,20.190207 -65.442309,20.190207c-0.147751,0.044876 -9.073271,3.007402 -15.940041,1.188875l0.000685,0l0.00041,-0.000077zm-48.402857,-14.203682c-14.724264,-4.342645 -26.69104,-7.84642 -31.79796,-9.336346c0,0 142.754998,-19.159414 142.754998,-19.159414c1.949008,2.452314 3.989843,4.941912 6.123887,7.456352c0,0 -97.675079,20.084529 -97.675079,20.084529c-3.623932,0.753233 -14.042829,2.359802 -19.406551,0.955519l0.000685,-0.000691l0.000019,0.000051zm-34.458794,-13.665883c-5.398267,0.719398 -7.093232,-1.061844 -7.404569,-1.486438c0,0 -7.103537,-12.508033 -7.103537,-12.508033c-0.482592,-0.931356 -1.054937,-1.708752 -1.647304,-2.394322c0.910643,-0.082155 152.776171,-10.196557 152.776171,-10.196557c1.73015,2.441957 3.561792,4.955719 5.510807,7.5178c0,0 -142.130915,19.066921 -142.130915,19.066921l-0.000691,0.000691l0.000038,-0.000064zm-27.403519,-21.368668c-4.072696,-1.404283 -5.363747,-3.84624 -6.195685,-5.428646c-2.49029,-4.232871 -5.764876,-10.559037 -7.374229,-12.576394c0,0 169.096423,0 169.096423,0c1.623141,2.595917 3.387126,5.332684 5.315421,8.175744c0,0 -148.348062,9.854111 -148.348062,9.854111c-2.328732,0.284447 -9.096763,0.825031 -12.494271,-0.024163l0,-0.000691l0.000403,0.000038zm-21.653122,-22.632836c-4.072696,-0.304469 -4.939153,-0.787753 -6.219849,-2.890721c0.013807,0.013807 -5.315421,-8.846809 -5.740021,-9.545526c-0.883714,-1.626591 -1.175068,-2.832729 -1.137099,-3.681924c0.099418,-2.171323 1.575499,-3.84624 5.463165,-3.904923c0,0 159.759501,0.013807 159.759501,0.013807c10.813087,0 17.190384,11.100293 17.190384,11.100293c1.404283,2.60973 3.0792,5.606775 5.038571,8.908258c0,0 -174.353443,0 -174.353443,0l-0.001383,0.000691l0.000173,0.000045zm312.737299,-20.022441c7.428765,0 13.351025,2.171323 17.618409,6.442137c3.0792,3.0792 5.216694,7.151224 6.353786,12.117965c0,0 0.229208,0.849195 0.520562,1.462275c0,0 -157.458395,0 -157.458395,0c-2.407437,-3.952564 -6.373808,-11.124488 -6.373808,-11.124488c-0.174673,-0.318276 -2.836179,-5.11037 -7.898203,-8.898592c75.552455,0 147.238154,0 147.238154,0l-0.000691,0.000691l0.000186,0.000013zm228.014984,30.749884c0,0 0,-6.099724 0,-6.099724c0,0 31.304966,0 31.304966,0c-1.592762,2.499955 -3.332578,5.120035 -5.195981,7.822289c0,0 -26.109011,-1.722559 -26.109011,-1.722559l0.000026,-0.000006zm0,11.161741c0,0 0,-6.346195 0,-6.346195c0,0 22.858594,1.509916 22.858594,1.509916c-1.68873,2.345995 -3.493444,4.740317 -5.376869,7.185724c0,0 -17.48175,-2.349445 -17.48175,-2.349445l0.000026,0zm0,12.012351c0,0 0,-7.339665 0,-7.339665c0,0 14.138073,1.901373 14.138073,1.901373c-1.900682,2.349445 -3.893881,4.719604 -5.972686,7.113203c-3.644645,-0.753233 -6.452507,-1.322122 -8.165439,-1.674917l0.000051,0.000006zm0,4.732719c0,0 4.613971,0.941713 4.613971,0.941713c-1.486438,1.640398 -3.031565,3.304965 -4.613971,4.946053c0,0 0,-5.887766 0,-5.887766zm-47.693835,15.268976c0,0 38.209757,0 38.209757,0c-3.894573,3.870403 -13.086606,11.360616 -13.388342,11.610505c-9.292181,-4.356452 -18.354379,-8.579638 -24.820711,-11.610505l-0.000691,0l-0.000013,0zm-39.658206,0c0,0 28.715309,0 28.715309,0c0,0 31.674359,14.820212 31.674359,14.820212c-6.58302,5.038571 -13.351025,9.662214 -20.30683,13.875062c-15.285554,-10.949809 -31.390609,-22.478191 -40.082774,-28.694571l0,-0.000691l-0.000064,-0.000013zm-23.361893,0c0,0 15.405698,0 15.405698,0c0,0 43.661875,31.267009 43.661875,31.267009c-6.363458,3.647404 -12.901557,6.963423 -19.566764,9.912103c-14.378361,-14.984522 -31.695098,-33.051054 -39.500809,-41.179176l0,0.000064zm-19.515685,0c0,0 13.083149,0 13.083149,0c0,0 41.37037,43.137837 41.37037,43.137837c-7.812624,3.257329 -15.833723,6.027919 -24.039871,8.35388c0,0 -30.414352,-51.491717 -30.414352,-51.491717l0.000685,0l0.000019,0zm-5.387917,0c0,0 31.164147,52.742059 31.164147,52.742059c-8.532015,2.219649 -17.26905,3.918045 -26.184285,5.133848c0,0 -16.046359,-57.875862 -16.046359,-57.875862c0,0 11.066497,0 11.066497,0l0,-0.000045zm-55.567203,0c0,0 11.066497,0 11.066497,0c0,0 -16.046359,57.875862 -16.046359,57.875862c-8.928996,-1.215803 -17.652973,-2.914884 -26.184285,-5.120726c11.676114,-19.751749 27.256491,-46.1383 31.164147,-52.755181l0,0.000045zm-18.473818,0c0,0 13.086606,0 13.086606,0c0,0 -30.414352,51.491717 -30.414352,51.491717c-8.206148,-2.311476 -16.217582,-5.096563 -24.046784,-8.367001c16.591072,-17.285628 36.554817,-38.099982 41.373826,-43.124011l0.000685,-0.000691l0.000019,-0.000013zm-21.834714,0c0,0 15.405698,0 15.405698,0c0,0 -39.486983,41.179176 -39.486983,41.179176c-6.678969,-2.948719 -13.203293,-6.26404 -19.587439,-9.912103c18.950234,-13.56987 38.702687,-27.71556 43.668723,-31.267009l0,-0.000064zm-72.43588,11.610505c-0.349346,-0.284447 -9.50136,-7.976934 -13.388342,-11.610505c0,0 38.205596,0 38.205596,0c0,0 -24.817255,11.610505 -24.817255,11.610505zm35.763607,-11.610505c0,0 28.708397,0 28.708397,0c0,0 -40.079318,28.684201 -40.079318,28.684201c-6.959966,-4.202492 -13.727331,-8.826135 -20.299982,-13.864693c15.04597,-7.044906 28.979025,-13.559565 31.670903,-14.820212l0,0.000691l0,0.000013zm-58.67328,-15.268976c0,0 0,5.83944 0,5.83944c-1.568599,-1.626591 -3.093013,-3.267686 -4.565644,-4.897727c1.832333,-0.386624 3.367104,-0.695235 4.565644,-0.941713zm0,-12.073095c0,0 0,7.339665 0,7.339665c0,0 -8.130874,1.674917 -8.130874,1.674917c-2.075355,-2.404678 -4.058198,-4.763789 -5.956114,-7.113203c0,0 14.086995,-1.901373 14.086995,-1.901373l-0.000006,-0.000006zm0,-11.01817c0,0 0,6.346195 0,6.346195c0,0 -17.433424,2.349445 -17.433424,2.349445c-1.886875,-2.445413 -3.675023,-4.839735 -5.363063,-7.185724c0,0 22.797146,-1.509916 22.797146,-1.509916l-0.000691,0l0.000032,0zm0,-4.815572c0,0 -26.047562,1.722559 -26.047562,1.722559c-1.87721,-2.702241 -3.606669,-5.322327 -5.199431,-7.822289c0,0 31.246334,0 31.246334,0c0,0 0,6.099724 0,6.099724l0.000685,0l-0.000026,0.000006z" class="fil1" id="_170829840"/>
    <path stroke="null" d="m341.268458,398.005281c-0.024163,-0.024163 -0.044876,-0.048326 -0.068348,-0.071805c0,0 0,-44.54212 0,-44.54212c0,0 317.564822,0 317.564822,0c0,0 0,44.566251 0,44.566251c-0.010357,0.02417 -0.024163,0.02417 -0.03452,0.03452c0,0 -317.461128,0.013813 -317.461128,0.013813l-0.000691,-0.000691l-0.000134,0.000032z" class="fil2" id="_170831360"/>
    <path stroke="null" d="m362.301017,360.504738c0,0 -1.325578,0 -1.325578,0c0,0 -13.56987,30.359112 -13.56987,30.359112c0,0 3.675023,0 3.675023,0c0,0 0.057992,-0.174673 0.057992,-0.174673c1.099122,-3.695737 2.514453,-7.233347 3.887666,-10.631559c0,0 0.195386,-0.486042 0.284447,-0.719398c0.335539,0 10.1586,0 10.494133,0c1.41809,3.22971 2.870008,6.935771 4.425491,11.360616c0,0 0.061448,0.164316 0.061448,0.164316c0,0 5.0724,0 5.0724,0c0,0 -13.063114,-30.359112 -13.063114,-30.359112l0,0.000691l-0.000038,0.000006zm-5.962982,16.519312c0.277541,-0.671072 3.83934,-9.014576 4.263934,-10.004659c0.417694,0.990039 4.048532,9.33289 4.335739,10.004659c-0.712498,0 -7.904412,0 -8.600377,0l0.000691,0l0.000013,0z" class="fil1" id="_171137640"/>
    <path stroke="null" d="m376.82583,388.705483c0,0 0.113225,0.116681 0.113225,0.116681c1.603119,1.746722 5.216003,2.562088 7.161593,2.562088c6.367599,0 10.826209,-4.106524 10.826209,-10.003955c0,-4.88737 -3.699187,-6.326173 -7.27476,-7.740806c-3.175168,-1.26413 -6.195685,-2.4316 -6.195685,-6.041726c0,-2.740211 2.160966,-4.719604 5.120035,-4.719604c2.366709,0 4.154159,1.250323 5.062043,3.53832c0,0 0.061448,0.164316 0.061448,0.164316c0,0 0.808466,0 0.808466,0c0,0 1.266889,-3.833125 1.266889,-3.833125c0,0 -0.140153,-0.129796 -0.140153,-0.129796c-1.729465,-1.558243 -4.390972,-2.113324 -6.284747,-2.113324c-5.935407,0 -9.764371,3.315321 -9.764371,8.460198c0,5.240166 3.907688,6.761156 7.346578,8.130874c3.11027,1.201997 6.027919,2.359802 6.027919,5.959571c0,3.339484 -2.49029,5.969927 -5.661317,5.969927c-2.904527,0 -4.832829,-1.250323 -6.709373,-4.319167c0,0 -0.071798,-0.116681 -0.071798,-0.116681c0,0 -0.808466,0 -0.808466,0c0,0 -0.883714,4.116881 -0.883714,4.116881l0,-0.000691l-0.000019,0.000019z" class="fil1" id="_171199256"/>
    <path stroke="null" d="m418.885827,361.130933c0,0 -22.324187,0 -22.324187,0c0,0 0,3.126842 0,3.126842c0,0 0.287898,-0.024163 0.287898,-0.024163c2.562088,-0.270641 5.038571,-0.506755 9.076024,-0.520568c0,0.530925 0,27.246122 0,27.246122c0,0 4.288097,0 4.288097,0c0,0 0,-26.701409 0,-27.232296c3.030874,0 5.928501,0.174673 8.637629,0.506762c0,0 0.301711,0.03452 0.301711,0.03452c0,0 0,-3.137198 0,-3.137198c0,0 -0.267191,0 -0.267191,0l0.000019,-0.000019z" class="fil1" id="_171234112"/>
    <path stroke="null" d="m434.267714,360.504738c-9.470252,0 -16.093982,6.384165 -16.093982,15.505103c0,9.203081 6.442137,15.37459 16.011859,15.37459c9.891428,0 16.553115,-6.442137 16.553115,-16.022228c0,-10.268375 -8.277966,-14.857529 -16.470992,-14.857529l0,0.000064zm7.928607,25.581452c-2.106424,2.229314 -4.750674,3.363648 -7.894747,3.363648c-6.932379,0 -11.415855,-5.0724 -11.415855,-12.918839c0,-8.696325 4.531125,-14.090451 11.805923,-14.090451c3.431996,0 6.672056,1.510607 8.672194,4.034719c2.198936,2.808566 2.6477,5.737256 2.6477,9.241038c0.013115,0.188479 0.023472,0.400437 0.023472,0.602723c0,2.852751 -1.16057,6.90127 -3.83934,9.767828l0.000691,-0.000691l-0.000038,0.000026z" class="fil1" id="_171242176"/>
    <path stroke="null" d="m480.473543,361.130933c0,0 -2.660815,0 -2.660815,0c0,0 0,21.485355 0,22.005937c-0.024163,0 -0.03452,0 -0.048326,0c-0.15396,-0.178123 -20.313743,-22.005937 -20.313743,-22.005937c0,0 -2.051191,0 -2.051191,0c0,0 0,29.732917 0,29.732917c0,0 2.92524,0 2.92524,0c0,0 0,-22.478895 0,-23.009078c0.024163,0 0.03797,0 0.061442,0c0.157416,0.178123 18.375117,20.344147 18.375117,20.344147c0,0 2.284547,2.664963 2.284547,2.664963c0,0 0.136703,0 0.136703,0c0,0 1.555477,0 1.555477,0c0,0 0,-29.732917 0,-29.732917c0,0 -0.263734,0 -0.263734,0l-0.000691,0l-0.000026,-0.000032z" class="fil1" id="_171242152"/>
    <path stroke="null" d="m528.517697,361.130933c0,0 -1.051487,0 -1.051487,0c0,0 -7.203007,13.059658 -7.203007,13.059658c0,0 -4.555288,8.30901 -4.969532,9.052597c-4.442748,-7.411482 -8.44298,-15.21028 -11.850089,-21.971436c0,0 -0.071805,-0.140844 -0.071805,-0.140844c0,0 -1.510607,0 -1.510607,0c0,0 -0.023472,0.246478 -0.023472,0.246478c-0.424601,4.390972 -2.983239,22.289686 -4.099618,29.190957c0,0 -0.057992,0.294804 -0.057992,0.294804c0,0 3.603219,0 3.603219,0c0,0 0,-0.256834 0,-0.256834c0,-4.188679 0.742876,-10.432684 1.534079,-17.052957c0,0 0.335533,-2.92524 0.472927,-4.092717c0.506755,0.965876 6.100409,11.587078 8.237192,15.963532c0,0 2.417794,4.979888 2.417794,4.979888c0,0 0.808466,0 0.808466,0c0,0 0.068348,-0.164316 0.068348,-0.164316c2.489599,-5.713093 5.997541,-12.237405 10.802782,-20.827412c0.681428,5.120035 1.582406,15.351163 2.078805,21.214727c0,0 0.02762,0.236121 0.02762,0.236121c0,0 4.555288,0 4.555288,0c0,0 -0.040735,-0.294804 -0.040735,-0.294804c-1.027324,-7.209919 -2.147844,-16.754742 -3.463066,-29.190957c0,0 -0.024163,-0.246478 -0.024163,-0.246478c0,0 -0.239571,0 -0.239571,0l-0.001383,0l0.000006,-0.000006z" class="fil1" id="_171249360"/>
    <path stroke="null" d="m548.908891,360.504738c0,0 -1.332478,0 -1.332478,0c0,0 -13.576783,30.359112 -13.576783,30.359112c0,0 3.695737,0 3.695737,0c0,0 0.047635,-0.174673 0.047635,-0.174673c1.102572,-3.729565 2.524118,-7.281673 3.904923,-10.703312c0,0 0.171223,-0.424601 0.253384,-0.6476c0.335533,0 10.1586,0 10.501045,0c1.445018,3.302206 2.932147,7.100145 4.418585,11.360616c0,0 0.061442,0.164316 0.061442,0.164316c0,0 5.079306,0 5.079306,0c0,0 -13.052809,-30.359112 -13.052809,-30.359112l0,0.000691l0.000013,-0.000038zm-5.96994,16.519357c0.277541,-0.671072 3.84279,-9.014576 4.26739,-10.004659c0.424601,0.990039 4.045076,9.33289 4.33643,10.004659c-0.715948,0 -7.90166,0 -8.603833,0l0.000013,0z" class="fil1" id="_171205240"/>
    <path stroke="null" d="m575.018605,376.174855c5.366513,-1.085316 8.576181,-4.141044 8.576181,-8.271757c0,-4.541481 -3.185525,-6.771461 -9.757459,-6.771461c0,0 -9.316312,0 -9.316312,0c0,0 0,29.732917 0,29.732917c0,0 4.277747,0 4.277747,0c0,0 0,-13.73418 0,-14.251305c0.335539,0 1.061844,0 1.246867,0c0.140153,0.174673 3.332578,3.928401 3.332578,3.928401c-0.013807,-0.013807 5.038571,6.524324 5.038571,6.524324c0,0 2.767139,3.798605 2.767139,3.798605c0,0 0.147053,0 0.147053,0c0,0 5.456265,0 5.456265,0c0,0 -11.261211,-14.063504 -11.76796,-14.689699l-0.000691,0l0.000019,-0.000026zm-6.220559,-1.699061c0,-0.472927 0,-10.761304 0,-11.234263c1.763985,-0.082155 4.49729,-0.198145 5.983734,0.03797c2.965976,0.482592 4.476583,2.216199 4.476583,5.130392c0,2.986689 -1.962821,5.168368 -5.267786,5.829774c-1.859947,0.376965 -4.106524,0.307919 -5.192531,0.236121l0,0.000006z" class="fil1" id="_171209080"/>
    <path stroke="null" d="m608.344,361.130933c0,0 -22.3311,0 -22.3311,0c0,0 0,3.126842 0,3.126842c0,0 0.291348,-0.024163 0.291348,-0.024163c2.565545,-0.270641 5.038571,-0.506755 9.062966,-0.520568c0,0.530925 0,27.246122 0,27.246122c0,0 4.312267,0 4.312267,0c0,0 0,-26.701409 0,-27.232296c3.021215,0 5.922286,0.174673 8.631421,0.506762c0,0 0.301711,0.03452 0.301711,0.03452c0,0 0,-3.137198 0,-3.137198c0,0 -0.267184,0 -0.267184,0l-0.001383,0l-0.000045,-0.000019z" class="fil1" id="_171209056"/>
    <polygon stroke="null" points="612.1390380859375,390.86517333984375 616.1865234375,390.86517333984375 616.1865234375,361.1309814453125 612.1390380859375,361.1309814453125 " class="fil1" id="_171221600"/>
    <path stroke="null" d="m644.905666,361.130933c0,0 0,21.485355 0,22.005937c-0.013807,0 -0.024163,0 -0.03452,0c-0.160866,-0.178123 -20.313743,-22.005937 -20.313743,-22.005937c0,0 -2.055333,0 -2.055333,0c0,0 0,29.732917 0,29.732917c0,0 2.928697,0 2.928697,0c0,0 0,-22.478895 0,-23.009078c0.024163,0 0.03452,0 0.048326,0c0.157416,0.178123 18.399249,20.344147 18.399249,20.344147c0,0 2.284547,2.664963 2.284547,2.664963c0,0 1.668017,0 1.668017,0c0,0 0,-29.732917 0,-29.732917c0,0 -2.92524,0 -2.92524,0l0,-0.000032z" class="fil1" id="_171224520"/>
    <path stroke="null" d="m256.324673,676.227266c-1.603119,-0.095968 -2.965976,-0.260284 -4.418585,-0.260284c-1.610025,0 -3.055037,0.164316 -4.507646,0.260284c-2.45577,-7.058667 -5.521164,-15.200615 -8.92554,-22.926955c0,0 -21.581368,0 -21.581368,0c-2.976332,7.466722 -6.041726,14.936196 -8.415328,22.926955c-1.192325,-0.095968 -2.123681,-0.260284 -3.151005,-0.260284c-1.103264,0 -2.041526,0.164316 -2.972882,0.260284c0,0 26.519817,-59.327831 26.519817,-59.327831c0,0 1.959365,0 1.959365,0c0,0 25.492481,59.327831 25.492481,59.327831l0.000691,0zm538.3238,0c0,0 -2.562088,0 -2.562088,0c-0.931356,-1.181975 -2.637343,-3.22281 -4.410993,-5.182174c0,0 -36.733657,-40.590234 -36.733657,-40.590234c0,0 -0.832629,0 -0.832629,0c0,0 0,45.771723 0,45.771723c-0.852651,-0.095968 -1.616926,-0.260284 -2.394322,-0.260284c-0.842294,0 -1.616926,0.164316 -2.377059,0.260284c0,0 0,-58.067824 0,-58.067824c0,0 3.322228,0 3.322228,0c0,0 40.370685,43.71705 40.370685,43.71705c0,0 0.856101,0 0.856101,0c0,0 0,-43.71705 0,-43.71705c0.760133,0.071805 1.520958,0.249928 2.383965,0.249928c0.77049,0 1.534771,-0.178123 2.377059,-0.249928c0,0 0,58.067824 0,58.067824l0.000691,0.000691l0.000019,-0.000006zm-68.821959,-58.067824c1.192325,0.071805 2.473027,0.249928 3.739922,0.249928c1.188875,0 2.383965,-0.178123 3.736465,-0.249928c0,0 0,58.067824 0,58.067824c-1.353191,-0.095968 -2.548282,-0.260284 -3.736465,-0.260284c-1.266889,0 -2.548282,0.164316 -3.739922,0.260284c0,0 0,-58.067824 0,-58.067824zm-27.239209,58.232134c-1.363548,-0.082155 -2.558638,-0.260284 -3.757178,-0.260284c-1.266889,0 -2.537925,0.178129 -3.729565,0.260284c0,0 0,-54.160104 0,-54.160104c-8.576181,0 -13.761831,0.506755 -18.628463,1.014202c0.106318,-0.849195 0.263734,-1.698396 0.263734,-2.537925c0,-0.859551 -0.157416,-1.616926 -0.263734,-2.548282c0,0 43.871054,0 43.871054,0c-0.085611,0.931356 -0.243021,1.68873 -0.243021,2.548282c0,0.839529 0.15741,1.68873 0.243021,2.537925c-4.243227,-0.506755 -10.202766,-1.014202 -17.755131,-1.014202c0,0 0,54.160104 0,54.160104l-0.000691,0l-0.000026,0zm-68.866125,-58.232134c0,0 18.022302,0 18.022302,0c13.100431,0 18.87496,4.319167 18.87496,12.898805c0,9.839645 -8.833048,14.607576 -17.423055,16.127842c0,0 17.512091,22.159877 17.512091,22.159877c0,0 4.082361,4.754124 4.082361,4.754124c0,0 1.603119,2.127137 1.603119,2.127137c-1.774342,-0.095968 -3.308415,-0.260284 -4.92534,-0.260284c-1.610025,0 -3.308415,0.164316 -4.860448,0.260284c-1.859947,-2.633893 -3.551436,-5.028215 -5.353391,-7.401113c0,0 -10.017781,-12.977535 -10.017781,-12.977535c0,0 -6.801865,-7.966564 -6.801865,-7.966564c0,0 -3.219353,0 -3.219353,0c0,0 0,28.345212 0,28.345212c-1.369763,-0.095968 -2.555188,-0.260284 -3.746822,-0.260284c-1.280702,0 -2.555188,0.164316 -3.746822,0.260284c0,0 0,-58.067824 0,-58.067824l0.000045,0.000038zm7.493669,26.478404c1.178518,0.082155 6.616817,0.424601 10.956722,-0.424601c6.223305,-1.26413 10.884905,-5.521164 10.884905,-12.13179c0,-5.863603 -2.986689,-9.685705 -9.353565,-10.712978c-3.137198,-0.492949 -8.935909,-0.246471 -12.487358,-0.068348c0,0 0,23.338402 0,23.338402l-0.000691,-0.000691l-0.000013,0.000006zm-13.381429,31.58942c-1.626591,-0.095968 -2.965976,-0.260284 -4.431707,-0.260284c-1.610025,0 -3.055037,0.164316 -4.483483,0.260284c-2.476477,-7.058667 -5.545327,-15.200615 -8.942822,-22.926955c0,0 -21.577912,0 -21.577912,0c-2.983239,7.466722 -6.052082,14.936196 -8.422241,22.926955c-1.192325,-0.095968 -2.123681,-0.260284 -3.140648,-0.260284c-1.102572,0 -2.051191,0.164316 -2.972882,0.260284c0,0 26.509448,-59.327831 26.509448,-59.327831c0,0 1.955915,0 1.955915,0c0,0 25.506306,59.327831 25.506306,59.327831l0.000026,0zm-28.561305,-48.214352l-9.267985,21.721483l18.700985,0l-9.432295,-21.721483l-0.000691,0l-0.000013,0zm-36.198609,-9.853471c2.212742,20.957221 4.599473,41.853698 6.883988,58.067824c-1.534771,-0.095968 -2.726404,-0.260284 -3.993299,-0.260284c-1.370454,0 -2.719504,0.164316 -3.989843,0.260284c-1.438803,-17.073696 -3.168262,-35.401191 -4.352995,-43.802693c-9.857568,17.570082 -17.169645,31.140016 -22.266195,42.867913c0,0 -0.931356,0 -0.931356,0c0,0 -4.671963,-9.604222 -4.671963,-9.604222c-5.452809,-11.185937 -11.398573,-22.228238 -17.176558,-33.263691c-1.870303,16.542746 -4.164516,33.345814 -4.164516,43.802693c-1.096364,-0.095968 -2.041526,-0.260284 -2.962525,-0.260284c-1.106029,0 -2.051191,0.164316 -3.065394,0.260284c2.198936,-13.665883 7.298955,-49.159566 8.151613,-58.067824c0,0 2.212742,0 2.212742,0c6.801865,13.511878 14.963847,29.451279 24.046784,44.484128c8.097078,-14.535758 15.912454,-29.283513 24.492091,-44.484128c0,0 1.788148,0 1.788148,0l-0.000691,0l-0.000032,0zm-95.791308,58.067824c0,0 -2.565545,0 -2.565545,0c-0.924449,-1.181975 -2.630443,-3.22281 -4.407537,-5.182174c0,0 -36.7302,-40.590234 -36.7302,-40.590234c0,0 -0.845745,0 -0.845745,0c0,0 0,45.771723 0,45.771723c-0.849195,-0.095968 -1.620376,-0.260284 -2.383965,-0.260284c-0.842294,0 -1.603119,0.164316 -2.377059,0.260284c0,0 0,-58.067824 0,-58.067824c0,0 3.322228,0 3.322228,0c0,0 40.367228,43.71705 40.367228,43.71705c0,0 0.859551,0 0.859551,0c0,0 0,-43.71705 0,-43.71705c0.760133,0.071805 1.523723,0.249928 2.366709,0.249928c0.760133,0 1.534771,-0.178123 2.394322,-0.249928c0,0 0,58.067824 0,58.067824l0,0.000691l0.000013,-0.000006zm-121.916385,-29.041177c0,-18.593962 13.847411,-30.287359 31.452058,-30.287359c15.987664,0 32.212159,8.634173 32.212159,29.012885c0,18.926743 -13.422138,31.338827 -32.366163,31.338827c-18.78938,0 -31.297413,-11.891503 -31.297413,-30.065057l-0.000691,0.000691l0.000051,0.000013zm49.988028,-19.269188c-4.243227,-5.343041 -10.874535,-8.233736 -17.693683,-8.233736c-14.943109,0 -23.957684,11.292255 -23.957684,28.516435c0,17.251832 10.535546,26.231907 23.204496,26.231907c17.940179,0 24.399599,-18.50211 23.796831,-27.835c0,-7.031784 -0.931356,-12.991361 -5.349941,-18.680246l0,0.000691l-0.000019,-0.000051zm-66.757044,48.474675c-1.366307,-0.082161 -2.548282,-0.260284 -3.743372,-0.260284c-1.281393,0 -2.562088,0.178123 -3.736465,0.260284c0,0 0,-54.160104 0,-54.160104c-8.590007,0 -13.785963,0.506755 -18.618798,1.014202c0.082155,-0.849195 0.253378,-1.698396 0.253378,-2.537925c0,-0.859551 -0.171223,-1.616926 -0.253378,-2.548282c0,0 43.857229,0 43.857229,0c-0.092518,0.931356 -0.253378,1.68873 -0.253378,2.548282c0,0.839529 0.16086,1.68873 0.253378,2.537925c-4.254269,-0.506755 -10.1931,-1.014202 -17.758587,-1.014202c0,0 0,54.160104 0,54.160104l-0.000006,0zm-62.311076,-11.6347c3.308415,5.439002 7.127028,8.836504 13.775657,8.836504c6.873683,0 11.805923,-5.699286 11.805923,-12.398258c0,-15.789557 -26.608853,-8.815765 -26.608853,-28.013136c0,-10.949809 8.672194,-16.282487 18.875664,-16.282487c4.068554,0 9.014576,1.26068 12.141456,4.058198c-1.017659,2.205842 -1.606569,4.576001 -2.284547,6.959966c0,0 -0.842294,0 -0.842294,0c-1.788148,-4.589116 -5.524614,-7.384535 -10.539003,-7.384535c-5.870509,0 -10.706769,3.914595 -10.706769,9.922472c0,15.635553 26.76625,9.346716 26.76625,27.434563c0,12.141456 -9.453034,19.361681 -21.002091,19.361681c-4.154159,0 -10.956722,-1.781242 -13.847411,-4.932247c0.836079,-2.466127 1.266889,-5.014408 1.610025,-7.56267c0,0 0.856101,0 0.856101,0l-0.000109,-0.000051zm-34.520882,-36.744026l-9.25416,21.721483l18.690615,0l-9.435752,-21.721483l-0.000691,0l-0.000013,0z" class="fil0" id="_171224496"/>
   </g>
  </g>
 </g>
</svg>