<svg width="1000" height="1000" xmlns="http://www.w3.org/2000/svg">

 <g>
  <title>background</title>
  <rect fill="none" id="canvas_background" height="1002" width="1002" y="-1" x="-1"/>
 </g>
 <g>
  <title>Layer 1</title>
  <g id="svg_17">
   <path stroke="null" id="svg_14" fill="#241f20" d="m132.359943,268.481171s0.490811,-1.727841 0.702671,-2.10566c0.211861,-0.390765 1.393572,-4.379631 7.097333,-4.813945c0,0 2.874243,-0.256587 6.185155,0.768583c0,0 -1.905569,4.913991 -9.704396,5.7273c-0.001177,0 -3.067272,0.457854 -4.280763,0.423721m763.67416,221.537998c-1.937348,4.788051 -10.239933,10.887285 -19.990232,14.148762c-10.295252,3.441559 -31.793225,3.531011 -42.788794,-0.122408c0,0 -2.31752,-2.519965 -10.052789,-4.791582c-17.984617,-5.290632 -23.800193,-8.979362 -32.927857,-17.482037c-6.449981,-6.005073 -13.552021,-13.537897 -20.435139,-20.637584c-3.064918,-3.163786 -10.520059,-10.630698 -23.623642,-12.903492c-13.670898,-2.362247 -47.224921,-4.925761 -59.581106,-9.293622c-8.313177,-2.951925 -18.165876,-8.556817 -30.531477,-27.054608c-5.928568,-8.880493 -10.420014,-11.46637 -18.978008,-16.926491c0,0 6.531194,5.158807 9.964514,11.421644c4.95754,9.093531 7.331556,15.635318 10.038665,20.469272c2.727118,4.870441 5.883842,9.206523 10.808425,13.161256c6.106295,4.903398 10.051612,5.983887 16.948854,7.376282c6.595929,1.338253 29.116719,2.330467 48.439589,3.087281c18.998017,0.735627 27.121697,6.619469 33.060858,11.601726c5.46012,4.611501 14.162886,17.785704 20.270358,23.176381c8.166052,7.177369 8.37909,7.277414 17.862209,13.227168c4.790405,3.007245 9.014672,4.977549 12.904669,6.374652c8.702766,5.112904 5.103488,14.039301 5.103488,14.039301c-2.495248,7.111457 -11.475786,9.65967 -21.961713,8.176645c-15.847178,-1.400634 -29.486298,-14.618386 -41.007987,-24.101506c-6.340519,-5.227074 -8.581534,-7.835314 -20.805895,-16.327396c-18.597836,-12.901138 -62.299985,-11.832419 -62.299985,-11.832419l-32.026272,-0.201268c-62.380021,0.914532 -85.203301,-49.274085 -91.430828,-59.805914c-2.150386,-3.66519 -4.14423,-6.618292 -6.040383,-9.037035c-2.908376,-3.922953 -18.562526,-24.358092 -35.334829,-31.656693c0,0 16.101411,13.928662 14.486562,21.550939c-3.454506,-0.044726 -7.377459,0.177728 -12.058403,0.311906c-62.846115,1.839657 -75.906148,-1.638389 -85.834175,-3.621641c-9.940974,-1.995021 -26.599108,-6.941968 -42.788794,-14.39711c0,0 1.805524,-15.488192 -4.624448,-28.358728c0,0 51.872909,18.318886 93.144545,13.127123c0,0 -66.612527,-3.254415 -108.16429,-36.369416c0,0 10.25288,35.00056 2.150386,49.697806c0,0 -10.919064,26.687383 -66.915017,8.880493c0,0 -25.752842,-10.017479 -45.777207,-10.017479c0,0 -15.076241,0.623812 -16.879411,8.480312c0,0 -0.982798,3.754642 2.951925,5.537803c0,0 4.367861,1.248801 2.30575,4.490269c-3.39801,5.360075 -8.114264,9.505482 -12.792854,11.844189c-15.622371,-0.768583 -14.464199,-13.594393 -14.464199,-13.594393c0.27895,-4.546765 1.750205,-7.722322 3.1426,-10.853151c9.816211,-21.96289 44.315368,-25.150216 44.315368,-25.150216c36.706039,-3.66519 75.183468,5.148214 75.183468,5.148214c-27.524232,-6.56415 -36.883766,-11.378095 -44.752036,-17.941068c-10.597742,-8.847537 -20.502228,-38.576298 -20.502228,-38.576298c-4.223089,14.574837 1.003984,29.306216 4.536172,36.871996c-5.216481,-8.32377 -12.648082,-15.354014 -19.278144,-20.67054c-16.948854,-13.584977 -41.554117,-17.974024 -41.554117,-17.974024c-7.11028,-1.215845 -9.929204,-8.580357 -9.929204,-8.580357c-9.115894,-16.781719 -19.433509,-17.572666 -19.433509,-17.572666c5.079948,6.964331 4.545588,16.492176 4.545588,16.492176c0,17.562073 -22.585525,23.390595 -22.585525,23.390595c-16.894712,16.792312 -19.824274,16.434503 -23.123416,16.680497c-3.299141,0.234224 -5.737893,-3.187326 -5.737893,-3.187326c-1.071073,-1.605433 0.712087,-3.042555 0.712087,-3.042555c2.85188,-1.783161 5.549573,-4.111274 5.549573,-4.111274c16.469813,-13.227168 18.787334,-19.990232 17.450257,-29.217941c-2.685923,-18.431879 -17.550303,-17.071262 -17.550303,-17.071262c-6.987871,0 -10.4412,5.325942 -10.4412,5.325942c-2.696516,3.209689 -8.592127,13.248354 -8.592127,13.248354c-5.192941,8.581534 -9.838574,7.320963 -9.838574,7.320963c-5.7273,0.368402 -9.872707,-4.7139 -9.872707,-4.7139c-0.223631,-0.198914 -0.390765,-0.434314 -0.579086,-0.634405c-4.244275,-4.558535 -0.590856,-10.062205 -0.590856,-10.062205c6.989048,-12.346769 19.043921,-13.56026 20.68231,-13.661482c1.647805,-0.100045 7.209148,-0.513174 7.209148,-0.513174c13.614402,-0.991037 22.507843,-14.006345 22.507843,-14.006345c-5.737893,-2.774198 -15.988419,-1.302943 -15.988419,-1.302943c-9.984523,0.668538 -12.615126,11.265103 -12.636312,11.265103c-8.647446,1.271164 -8.213132,-5.370668 -6.362882,-7.119696c1.459485,-1.716071 6.606522,-10.051612 39.713283,-15.020922c0,0 17.562073,-3.476869 48.751495,-0.055319c1.147579,0.122408 2.261024,1.126393 0.790947,2.86365c-3.922953,4.603262 -16.190863,14.809061 -35.870366,9.872707c0,0 -0.355455,7.867093 21.106031,11.80064c0,0 19.355827,4.121867 50.9572,29.506307c0,0 -15.321058,-28.336365 -41.80835,-36.973219c0,0 -1.962065,-1.247624 -0.178905,-3.041378c0,0 12.53509,-11.233324 34.654521,-10.051612c0,0 73.14372,3.755819 114.262346,46.667021c0,0 -1.425352,-7.153829 -7.688188,-17.52794c0,0 -1.259394,-1.237031 -0.535537,-2.138616c0,0 0.535537,-1.794931 7.689365,-0.357809c0,0 26.108297,4.291356 86.714574,26.464929c0,0 45.431167,15.923684 70.203565,26.197749c37.240398,15.432873 130.539131,53.275897 189.467,85.891848c10.520059,5.816752 54.345794,27.467736 54.345794,27.467736c32.760722,20.335094 62.903788,35.055879 62.903788,35.055879c29.685211,13.717979 51.269106,7.432779 51.269106,7.432779c6.896065,-2.597647 20.070268,-9.749122 25.205535,-4.670351c2.616479,2.600001 2.771844,5.985064 1.235854,9.186514zm7.386875,-11.512274c-3.880581,-9.035858 -16.370945,-6.81956 -16.370945,-6.81956c-5.713176,0.346039 -12.922324,6.327572 -22.942157,8.388506c-21.550939,4.44672 -38.031345,-2.883659 -38.031345,-2.883659c-31.755561,-14.218205 -53.252357,-29.707574 -67.237516,-37.708846c-13.982804,-8.000094 -65.742721,-35.190058 -117.514408,-61.208903c0,0 -59.304511,-30.398476 -147.046608,-66.6702c0,0 -169.287271,-76.810087 -291.047131,-76.810087c0,0 -63.069745,-0.792124 -84.430009,23.478871c0,0 -3.766412,3.120237 -1.929109,6.964331c0,0 0.256587,1.059303 -0.53436,1.738435c0,0 -9.393667,6.173385 -17.039483,15.031515c0,0 -4.098327,4.190133 -0.802717,10.4412c0,0 4.078318,7.109103 6.653602,10.163427c2.59647,3.041378 7.788234,8.368497 15.721239,7.57755c3.509825,-0.356632 3.60987,-1.235854 3.60987,-1.235854c3.644004,3.67696 10.006886,3.899413 10.006886,3.899413c-0.635582,-2.261024 -3.064918,-6.741877 -3.276778,-9.348941c-0.234224,-2.918969 0.901585,-5.627255 0.901585,-5.627255c1.326483,-3.209689 3.812315,-7.187962 6.342873,-9.171213c2.250431,-1.760798 7.831783,-3.587507 11.999553,-0.668538c3.345045,2.34106 6.897242,9.839751 2.88719,19.712459c0,0 -4.512632,7.800004 -8.680403,8.668633l-1.156995,0.055319c-2.385787,-0.044726 -7.699958,-2.974288 -7.699958,-2.974288s-0.222454,0.635582 0.367225,3.321505c0.344862,1.525397 0.835673,3.220282 1.248801,4.523225l-1.10403,0.890992s-3.354461,2.697693 -1.871436,6.586513c0,0 3.265008,12.27968 12.379725,12.27968c8.057768,0.268357 14.764335,-7.376282 14.764335,-7.376282c17.2843,-18.642562 41.642392,-21.14958 41.642392,-21.14958c26.998112,-1.839657 65.579117,25.806984 76.08623,33.785892c-39.98164,-0.434314 -56.117184,14.909106 -56.117184,14.909106c-22.519613,17.529117 -13.752112,38.678697 -13.752112,38.678697c1.639566,4.600908 6.252244,7.955368 9.194753,9.247718c4.243098,1.849073 7.732915,1.926755 11.020286,1.55953c2.374017,-0.256587 4.978726,-1.136986 6.305209,-2.050341c3.064918,-1.806701 8.535631,-5.382438 11.176828,-9.182983c1.761975,-1.905569 3.532188,-6.573566 2.362247,-11.020286c0,0 -0.71091,-3.576914 2.508195,-4.301949c0,0 10.595388,-2.684746 31.992139,6.765418c0,0 23.244647,13.549667 53.397129,16.23559c0,0 34.288473,3.476869 42.568694,-15.088011c0,0 19.699512,8.056591 48.527864,11.355732c0,0 28.090371,2.907199 73.656894,-0.523767c8.967592,-0.680308 19.498244,0.067089 19.498244,0.067089c14.586607,1.749028 23.857866,9.338348 27.512462,15.277509c14.933823,24.246277 32.750129,71.817237 105.705529,69.935208l33.017309,-0.906293c20.070268,0 36.414142,0.168312 52.461411,8.747492c7.00788,3.755819 25.519795,22.128847 36.916722,28.335188c33.752936,22.745597 53.252357,12.171396 53.252357,12.171396c11.488734,-6.695974 10.585972,-18.610783 7.788234,-25.28204c-3.454506,-1.09579 41.82012,6.638301 61.122981,-18.709651c4.566775,-5.650795 5.367137,-10.830788 3.987689,-14.074611z"/>
   <g id="svg_15">
    <path id="svg_1" fill="#01422d" d="m608.063327,715.147939c-4.827,20.018 -19.927,28.45 -45.205,28.45c-17.156,0 -32.247,-3.445 -40.01,-11.229c-8.418,-8.256 -9.686,-19.646 -9.686,-31.818l0,-59.691l19.208,0l0,58.67c0,13.254 1.09,21.159 6.269,26.981c5.88,6.826 16.038,8.823 24.605,8.823c18.12,0 30.191,-5.869 33.468,-21.813c0.757,-3.673 1.346,-8.173 1.346,-15.12l0,-57.542l11.823,0l0,53.521c0.001,9.994 -0.577,15.638 -1.818,20.768"/>
    <path id="svg_2" stroke-width="0.185" stroke="#01422d" fill="none" d="m608.063327,715.147939c-4.827,20.018 -19.927,28.45 -45.205,28.45c-17.156,0 -32.247,-3.445 -40.01,-11.229c-8.418,-8.256 -9.686,-19.646 -9.686,-31.818l0,-59.691l19.208,0l0,58.67c0,13.254 1.09,21.159 6.269,26.981c5.88,6.826 16.038,8.823 24.605,8.823c18.12,0 30.191,-5.869 33.468,-21.813c0.757,-3.673 1.346,-8.173 1.346,-15.12l0,-57.542l11.823,0l0,53.521c0.001,9.994 -0.577,15.638 -1.818,20.768"/>
    <path id="svg_3" fill="#01422d" d="m705.388327,659.915939l-22.248,46.391l43.398,0l-21.15,-46.391m36.989,81.455l-12.666,-28.23l-49.855,0l-13.567,28.23l-12.191,0l50.139,-100.514l11.947,0l49.06,100.514l-22.867,0z"/>
    <path id="svg_4" stroke-width="0.185" stroke="#01422d" fill="none" d="m705.388327,659.915939l-22.248,46.391l43.398,0l-21.15,-46.391m36.989,81.455l-12.666,-28.23l-49.855,0l-13.567,28.23l-12.191,0l50.139,-100.514l11.947,0l49.06,100.514l-22.867,0z"/>
    <path id="svg_5" fill="#01422d" d="m247.802327,659.915939l-22.23,46.391l43.408,0l-21.178,-46.391m37.007,81.455l-12.647,-28.23l-49.866,0l-13.585,28.23l-12.185,0l50.14,-100.514l11.938,0l49.08,100.514l-22.875,0z"/>
    <path id="svg_6" stroke-width="0.185" stroke="#01422d" fill="none" d="m247.802327,659.915939l-22.23,46.391l43.408,0l-21.178,-46.391m37.007,81.455l-12.647,-28.23l-49.866,0l-13.585,28.23l-12.185,0l50.14,-100.514l11.938,0l49.08,100.514l-22.875,0z"/>
    <path id="svg_7" fill="#01422d" d="m412.317327,743.588939c-33.193,0 -64.739,-11.419 -64.739,-50.018c0,-12.544 5.567,-25.401 13.975,-34.604c13.179,-14.306 33.191,-20.011 52.089,-20.011c11.427,0 24.664,2.592 34.963,7.828l0,11.938c-9.334,-6.961 -21.623,-11.761 -33.607,-11.761c-27.305,0 -46.136,17.081 -46.136,45.341c0,25.579 16.617,43.087 42.178,43.087c6.505,0 15.508,-1.157 21.7,-3.531l0,-36.696l19.208,0l0,40.975c-11.268,5.074 -27.259,7.452 -39.631,7.452"/>
    <path id="svg_8" stroke-width="0.185" stroke="#01422d" fill="none" d="m412.317327,743.588939c-33.193,0 -64.739,-11.419 -64.739,-50.018c0,-12.544 5.567,-25.401 13.975,-34.604c13.179,-14.306 33.191,-20.011 52.089,-20.011c11.427,0 24.664,2.592 34.963,7.828l0,11.938c-9.334,-6.961 -21.623,-11.761 -33.607,-11.761c-27.305,0 -46.136,17.081 -46.136,45.341c0,25.579 16.617,43.087 42.178,43.087c6.505,0 15.508,-1.157 21.7,-3.531l0,-36.696l19.208,0l0,40.975c-11.268,5.074 -27.259,7.452 -39.631,7.452"/>
    <path id="svg_9" fill="#01422d" d="m847.484327,647.835939l-14.125,0l0,48.085l12.354,0c10.358,0 16.552,-1.933 21.379,-5.823c5.095,-4.091 8.143,-10.366 8.143,-18.848c-0.002,-16.986 -12.347,-23.414 -27.751,-23.414m32.645,93.535l-26.634,-38.597l-20.136,0l0,38.597l-19.219,0l0,-100.512l36.354,0c14.75,0 29.511,2.139 37.729,11.219c4.298,4.744 6.636,11.343 6.636,19.834c0,15.535 -11.712,24.945 -22.144,28.647l29.538,40.813l-22.124,-0.001z"/>
    <path id="svg_10" stroke-width="0.185" stroke="#01422d" fill="none" d="m847.484327,647.835939l-14.125,0l0,48.085l12.354,0c10.358,0 16.552,-1.933 21.379,-5.823c5.095,-4.091 8.143,-10.366 8.143,-18.848c-0.002,-16.986 -12.347,-23.414 -27.751,-23.414m32.645,93.535l-26.634,-38.597l-20.136,0l0,38.597l-19.219,0l0,-100.512l36.354,0c14.75,0 29.511,2.139 37.729,11.219c4.298,4.744 6.636,11.343 6.636,19.834c0,15.535 -11.712,24.945 -22.144,28.647l29.538,40.813l-22.124,-0.001z"/>
    <path id="svg_11" fill="#01422d" d="m115.342327,762.032939c-5.073,2.385 -10.631,3.965 -16.35,3.965c13.169,-9.522 18.736,-19.208 20.639,-35.246c1.117,-8.899 1.117,-17.799 1.117,-26.689l0,-63.203l19.219,0l0,76.07c0.002,18.574 -7.147,36.534 -24.625,45.103"/>
    <path id="svg_12" stroke-width="0.185" stroke="#01422d" fill="none" d="m115.342327,762.032939c-5.073,2.385 -10.631,3.965 -16.35,3.965c13.169,-9.522 18.736,-19.208 20.639,-35.246c1.117,-8.899 1.117,-17.799 1.117,-26.689l0,-63.203l19.219,0l0,76.07c0.002,18.574 -7.147,36.534 -24.625,45.103"/>
   </g>
  </g>
 </g>
</svg>