<svg width="1000.0000000000001" height="1000.0000000000001" xmlns="http://www.w3.org/2000/svg">

 <metadata id="metadata1932">image/svg+xml</metadata>
 <g>
  <title>background</title>
  <rect fill="none" id="canvas_background" height="1002" width="1002" y="-1" x="-1"/>
 </g>
 <g>
  <title>Layer 1</title>
  <g stroke="null" id="layer1">
   <g stroke="null" transform="matrix(2.56525877239244,0,0,2.56525877239244,-160.39675037187925,-647.3477800648573) " id="g1970">
    <path stroke="null" fill="#be0030" id="_196511608" d="m257.439247,524.276859c-86.52675,0 -153.66607,-35.18511 -153.66607,-76.83277c0,-42.00678 67.13893,-77.19201 153.66607,-77.19201c86.16777,0 153.66607,35.18536 153.66607,77.19201c0,41.64766 -67.49791,76.83277 -153.66607,76.83277l0,0z"/>
    <path stroke="null" fill="#aaaaaa" id="_226036680" d="m101.978367,447.443569c0,-43.8019 69.2933,-78.98714 155.4603,-78.98714c86.16776,0 155.46027,35.18511 155.46027,78.98714c0,43.44279 -69.29302,78.6279 -155.46027,78.6279c-86.16765,0 -155.4603,-35.18511 -155.4603,-78.6279l0,0zm155.4603,-64.62587c-87.96278,0 -141.10007,35.90319 -141.10007,64.62587c0,28.36357 53.13677,64.26675 141.10007,64.26675c87.96277,0 141.10005,-35.90318 141.10005,-64.26675c0,-28.72268 -53.13678,-64.62587 -141.10005,-64.62587l0,0zm-8.2577,-7.1807c0,-2.15416 -1.79522,-3.59026 -3.59045,-3.59026c-2.15417,0 -3.59027,1.79521 -3.59027,3.94938c0,1.79522 1.79522,3.23133 3.59027,3.23133c2.15433,0 3.59045,-1.79522 3.59045,-3.59045l0,0zm-11.84814,0.35912c-0.35895,-1.79522 -1.79505,-3.23134 -3.94938,-3.23134c-1.79506,0.35912 -3.23116,1.79522 -3.23116,3.94939c0,1.79522 1.79506,3.59026 3.94921,3.23133c1.79522,0 3.23133,-1.79522 3.23133,-3.94938zm-11.84797,1.07717c-0.35912,-1.79522 -2.15417,-3.23134 -3.94938,-2.87239c-2.15417,0 -3.59027,1.79522 -3.23134,3.94938c0.35912,1.79522 2.15417,3.23134 3.94939,2.87222c2.15416,0 3.59026,-1.79505 3.23133,-3.9492l0,-0.00001zm-11.84814,1.4361c-0.35894,-1.79522 -2.15416,-3.23134 -3.94938,-2.87239c-2.15416,0.35912 -3.23115,2.15434 -3.23115,4.3085c0.35894,1.79505 2.15417,3.23133 4.30832,2.87222c1.79521,-0.35894 3.23133,-2.15417 2.87221,-4.30832l0,-0.00001zm-11.48903,2.15416c-0.35894,-1.79522 -2.51327,-3.23133 -4.30832,-2.87221c-2.15416,0.71805 -3.23133,2.5131 -2.87221,4.30831c0.35894,2.15417 2.5131,3.23134 4.30832,2.87222c1.79521,-0.35894 3.23133,-2.5131 2.87221,-4.30832zm-11.84797,2.51327c-0.35911,-1.79522 -2.15433,-2.87238 -4.3085,-2.51327c-1.79504,0.71806 -2.87221,2.51327 -2.51309,4.30832c0.71805,2.15416 2.51309,3.23133 4.30831,2.51327c2.15417,-0.35912 3.23134,-2.15417 2.51327,-4.30832l0.00001,0zm-11.13008,3.23115c-0.71805,-1.79505 -2.87222,-2.87222 -4.66743,-2.15416c-1.79505,0.35911 -2.87222,2.51326 -2.15417,4.30849c0.35912,2.15417 2.51327,2.87222 4.30832,2.5131c2.15433,-0.71805 2.87238,-2.87221 2.51327,-4.66743l0.00001,0zm-11.48903,3.94938c-0.71806,-1.79505 -2.51327,-2.87221 -4.30832,-2.15416c-2.15416,0.71805 -2.87222,2.87221 -2.15416,4.66743c0.71805,1.79522 2.87221,2.87222 4.66743,2.15417c1.79505,-0.71806 2.5131,-2.87222 1.79505,-4.66744l0,0zm-10.77097,4.3085c-1.07699,-1.79522 -3.23133,-2.51327 -4.66743,-1.43628c-1.79505,0.71823 -2.5131,2.87238 -1.79505,4.66743c0.71805,1.79522 2.87221,2.51327 4.66743,1.79522c1.79505,-1.07717 2.5131,-3.23133 1.79505,-5.02637zm-10.77097,5.38549c-0.71805,-1.79522 -3.23115,-2.15434 -4.66743,-1.07717c-1.79505,1.07717 -2.5131,3.23133 -1.4361,4.66743c1.07716,1.79522 3.23133,2.51327 5.02655,1.4361c1.79504,-1.07717 2.15416,-3.23133 1.07699,-5.02636l-0.00001,0zm-10.05292,6.46248c-1.07699,-1.79522 -3.23115,-2.15417 -5.02636,-1.07699c-1.43611,1.4361 -1.79522,3.59026 -0.71806,5.02636c1.4361,1.79522 3.59027,2.15417 5.02637,1.07717c1.79522,-1.43628 2.15433,-3.59045 0.71805,-5.02655l0,0.00001zm-9.33468,7.1807c-1.4361,-1.4361 -3.59045,-1.4361 -5.02655,0c-1.4361,1.4361 -1.4361,3.59027 0,5.02637c1.4361,1.4361 3.59045,1.4361 5.02655,0c1.4361,-1.4361 1.4361,-3.59027 0,-5.02637zm-7.89877,8.61663c-1.79522,-1.07699 -3.94938,-0.71805 -5.02637,0.71823c-1.07716,1.79505 -0.71823,3.94921 0.71806,5.02637c1.79505,1.07717 3.9492,0.71806 5.02637,-0.71805c1.07716,-1.79522 0.71805,-3.94938 -0.71806,-5.02655l0,0zm-6.46265,10.05292c-1.79505,-0.71805 -3.9492,0.35912 -4.66743,2.15434c-0.71806,1.79505 0.35911,3.9492 2.15433,4.66725c2.15417,0.35911 3.94938,-0.35894 4.66744,-2.5131c0.71805,-1.79522 -0.35912,-3.59045 -2.15434,-4.3085l0,0.00001zm148.63941,86.52675c0,-1.79505 -1.79505,-3.59027 -3.59026,-3.59027c-2.15417,0 -3.59027,1.79522 -3.59027,3.59027c0,2.15433 1.4361,3.59045 3.59027,3.59045c1.79521,0 3.59026,-1.4361 3.59026,-3.59045l0,0zm-11.84796,0c0,-1.79505 -1.4361,-3.59027 -3.59045,-3.59027c-1.79505,0 -3.59027,1.4361 -3.59027,3.23133c0,2.15417 1.4361,3.94939 3.59027,3.94939c1.79521,0 3.59045,-1.4361 3.59045,-3.59045zm-11.84814,-0.35894c0,-2.15416 -1.4361,-3.94938 -3.23133,-3.94938c-2.15417,0 -3.94921,1.4361 -3.94921,3.23133c0,2.15417 1.43611,3.59027 3.23116,3.94939c2.15433,0 3.59045,-1.4361 3.94938,-3.23134zm-11.84797,-1.07716c0.35894,-2.15417 -1.07717,-3.94939 -3.23133,-3.94939c-1.79522,-0.35894 -3.59027,1.07717 -3.94939,2.87239c-0.35893,2.15416 1.07717,3.94938 3.23134,4.30832c1.79521,0 3.59026,-1.4361 3.94938,-3.23134l0,0.00002zm-11.84814,-1.4361c0.35912,-2.15417 -1.07699,-3.94939 -2.87221,-4.30832c-2.15417,-0.35912 -3.94939,1.07698 -3.94939,2.87221c-0.35893,2.15417 0.71806,3.94939 2.87222,4.30832c1.79522,0.35911 3.59045,-1.077 3.94938,-2.87221zm-11.48903,-2.15417c0.35911,-1.79522 -1.07699,-3.94938 -2.87222,-4.30832c-1.79521,-0.35911 -3.94938,0.71805 -4.30831,2.87222c-0.35912,1.79505 0.71805,3.94938 2.87221,4.30832c1.79505,0.3591 3.94939,-1.077 4.30832,-2.87222zm-11.84797,-2.51327c0.71806,-1.79505 -0.35911,-3.94938 -2.51326,-4.30831c-1.79522,-0.71807 -3.59027,0.35893 -4.30832,2.51326c-0.35912,1.79505 0.71805,3.59027 2.5131,4.30832c2.15416,0.35894 3.94938,-0.71806 4.3085,-2.51327l-0.00002,0zm-11.13008,-3.23133c0.35911,-1.79505 -0.35894,-3.9492 -2.51327,-4.66725c-1.79505,-0.35912 -3.9492,0.71805 -4.30832,2.5131c-0.71805,1.79522 0.35912,3.94938 2.15417,4.3085c1.79522,0.71805 3.94938,-0.35912 4.66743,-2.15434l-0.00001,-0.00001zm-11.48903,-3.9492c0.71805,-1.79522 0,-3.94938 -1.79505,-4.66743c-1.79522,-0.71807 -3.94938,0.35893 -4.66744,2.15416c-0.71805,1.79522 0,3.94938 2.15417,4.66743c1.79505,0.71806 3.59027,-0.35911 4.30832,-2.15416l0,0zm-10.77097,-4.3085c0.71805,-1.79505 0,-3.94939 -1.79505,-5.02637c-1.79522,-0.71806 -3.94938,0 -4.66743,1.79505c-0.71806,1.79522 0,3.94938 1.79505,4.66743c1.4361,1.07717 3.59044,0.35911 4.66743,-1.4361l0,-0.00001zm-10.77097,-5.38549c1.07717,-1.79505 0.71805,-3.94938 -1.07699,-5.02637c-1.79522,-1.07717 -3.94938,-0.35911 -5.02655,1.4361c-1.07699,1.43611 -0.35894,3.94939 1.4361,4.66744c1.43628,1.07699 3.94938,0.71805 4.66743,-1.07717l0.00001,0zm-10.05292,-6.46248c1.43629,-1.4361 1.07717,-3.59045 -0.71805,-5.02655c-1.4361,-1.07699 -3.59027,-0.71805 -5.02637,1.07717c-1.07717,1.4361 -0.71805,3.59026 0.71806,5.02637c1.79521,1.07716 3.94938,0.71805 5.02636,-1.077l0,0.00001zm-9.33468,-7.1807c1.4361,-1.4361 1.4361,-3.59027 0,-5.02637c-1.4361,-1.4361 -3.59045,-1.4361 -5.02655,0c-1.4361,1.4361 -1.4361,3.59027 0,5.02637c1.4361,1.4361 3.59045,1.4361 5.02655,0zm-7.89877,-8.61682c1.4361,-1.07699 1.79522,-3.23115 0.71806,-5.02637c-1.07717,-1.4361 -3.23134,-1.79521 -5.02637,-0.71805c-1.43629,1.07699 -1.79522,3.23133 -0.71806,5.02637c1.077,1.4361 3.23116,1.79522 5.02637,0.71805zm-6.46265,-10.05292c1.79522,-0.35894 2.87239,-2.5131 2.15434,-4.30831c-0.71806,-2.15417 -2.51327,-2.87222 -4.66744,-2.51327c-1.79522,0.71805 -2.87238,2.87238 -2.15433,4.66743c0.71823,1.79522 2.87238,2.87239 4.66743,2.15417l0,-0.00002zm-3.23115,-11.12991c2.15417,-0.35912 3.59027,-1.79522 3.59027,-3.94939c0,-1.79521 -1.79522,-3.59026 -3.94938,-3.23133c-1.79522,0 -3.23134,1.4361 -3.23134,3.59045c0,1.79505 1.79522,3.59027 3.59045,3.59027l0,0zm296.56035,-7.1807c-1.79505,-0.35894 -3.59027,1.4361 -3.59027,3.23133c0,2.15416 1.43611,3.59026 3.59027,3.94938c1.79521,0 3.59045,-1.79522 3.59045,-3.59027c0,-2.15433 -1.4361,-3.59044 -3.59045,-3.59044zm-1.077,11.48903c-1.79521,-0.35894 -3.94938,0.35911 -4.3085,2.51327c-0.71805,1.79521 0.35912,3.94938 2.15434,4.30831c1.79505,0.71823 3.9492,-0.35894 4.66743,-2.15416c0.35894,-1.79505 -0.35912,-3.94938 -2.51327,-4.66744l0,0.00002zm-4.3085,11.13008c-1.79505,-1.07717 -3.9492,-0.71805 -5.02636,0.71806c-1.43611,1.79521 -0.71805,3.94938 0.71805,5.02636c1.79521,1.07717 3.94938,0.71806 5.02655,-0.71805c1.07699,-1.79505 0.71805,-3.94938 -0.71824,-5.02637l0,0zm-7.18053,9.33487c-1.4361,-1.4361 -3.94938,-1.4361 -5.38548,0c-1.07717,1.4361 -1.07717,3.59027 0,5.02637c1.4361,1.4361 3.94938,1.4361 5.38548,0c1.077,-1.4361 1.077,-3.59027 0,-5.02637zm-8.97575,8.2577c-1.07717,-1.79522 -3.23133,-2.15417 -4.66743,-1.07717c-1.79522,1.4361 -2.15434,3.59045 -1.07717,5.02655c1.4361,1.79505 3.59027,2.15417 5.02637,1.07699c1.79522,-1.4361 2.15433,-3.59026 0.71823,-5.02637l0,0zm-9.69398,6.8216c-0.71805,-1.79522 -3.23134,-2.51327 -4.66744,-1.4361c-1.79505,1.07699 -2.5131,3.23133 -1.4361,5.02636c1.07717,1.79522 3.23133,2.15417 5.02655,1.07717c1.79505,-0.71805 2.15417,-3.23133 1.077,-4.66743l-0.00001,0zm-10.05292,5.74442c-1.077,-1.79505 -3.23115,-2.5131 -5.02637,-1.79505c-1.79522,1.07699 -2.51327,3.23133 -1.4361,5.02637c0.71805,1.79522 2.87222,2.51327 4.66743,1.4361c1.79505,-0.71806 2.5131,-2.87221 1.79505,-4.66744l-0.00001,0.00002zm-10.77097,5.02655c-0.71805,-1.79522 -2.87222,-2.87221 -4.66743,-2.15416c-1.79505,0.71805 -2.87222,2.87221 -2.15417,4.66743c0.71805,1.79505 2.87239,2.87222 4.66744,2.15416c1.79521,-0.71806 2.87221,-2.87221 2.15416,-4.66743zm-11.12992,4.30832c-0.71805,-1.79505 -2.51326,-2.87222 -4.66743,-2.5131c-1.79522,0.71805 -2.87221,2.87221 -2.15416,4.66725c0.71805,1.79522 2.51326,2.87239 4.66743,2.15433c1.79505,-0.35911 2.87222,-2.51326 2.15416,-4.30849l0,0.00001zm-11.13008,3.59045c-0.71805,-2.15434 -2.5131,-3.23134 -4.66725,-2.51327c-1.79522,0.35893 -2.87239,2.51327 -2.51327,4.30832c0.71805,1.79521 2.51327,2.87221 4.30832,2.51326c2.15416,-0.71806 3.23133,-2.51326 2.87221,-4.30831l-0.00001,0zm-11.48903,2.87221c-0.71805,-2.15416 -2.5131,-3.23133 -4.30832,-2.87221c-2.15416,0.35893 -3.23133,2.5131 -2.87221,4.30831c0.35893,1.79522 2.15416,3.23134 4.30831,2.87222c1.79522,-0.35895 3.23133,-2.51327 2.87222,-4.30832zm-11.84797,2.15417c-0.35911,-1.79522 -2.15416,-3.23133 -3.94938,-2.87222c-2.15417,0.35894 -3.23133,2.15417 -3.23133,4.30832c0.35911,1.79522 2.15416,3.23133 4.3085,2.87221c1.79504,-0.35894 3.23115,-2.15416 2.87221,-4.30831zm-11.48903,1.79522c-0.35912,-1.79522 -2.15417,-3.23134 -4.30832,-2.87239c-1.79522,0 -3.23133,1.79522 -2.87238,3.94938c0,1.79522 1.79522,3.23134 3.94938,3.23134c1.79522,-0.35895 3.23133,-2.15417 3.23133,-4.30832l-0.00001,-0.00001zm-11.84814,1.4361c-0.35893,-1.79522 -1.79504,-3.23134 -3.9492,-3.23134c-1.79521,0 -3.59044,1.79522 -3.23133,3.94939c0,1.79522 1.79505,3.23133 3.94938,3.23133c1.79505,-0.35912 3.23115,-1.79522 3.23115,-3.94938l0,0zm-11.84796,0.71805c0,-1.79522 -1.79522,-3.23133 -3.59027,-3.23133c-2.15433,0 -3.59045,1.79521 -3.59045,3.59026c0,2.15434 1.79522,3.59045 3.59045,3.59045c2.15417,0 3.59027,-1.79522 3.59027,-3.94938zm-19.02871,-142.89428c0,1.79522 1.4361,3.59045 3.59027,3.59045c1.79522,0 3.59026,-1.79522 3.59026,-3.59045c0,-2.15416 -1.79504,-3.59026 -3.59026,-3.59026c-2.15417,0 -3.59027,1.4361 -3.59027,3.59026zm11.84797,0c0,1.79522 1.4361,3.59045 3.59045,3.59045c1.79504,0 3.59026,-1.4361 3.59026,-3.23133c0,-2.15417 -1.4361,-3.94938 -3.59026,-3.94938c-1.79522,0 -3.59045,1.4361 -3.59045,3.59026l0,0zm11.84813,0.35912c-0.35911,2.15416 1.4361,3.94938 3.23133,3.94938c2.15417,0.35894 3.59027,-1.4361 3.94921,-3.23133c0,-2.15417 -1.43611,-3.59027 -3.23115,-3.94938c-2.15434,0 -3.94939,1.4361 -3.94939,3.23133l0,0zm11.84797,1.07717c-0.35894,2.15416 1.07717,3.9492 2.87238,3.9492c2.15417,0.35911 3.9492,-1.07699 4.30832,-2.87222c0,-2.15416 -1.4361,-3.94938 -3.23133,-3.94938c-2.15417,-0.35894 -3.94938,1.07717 -3.94938,2.87238l0.00001,0.00002zm11.48903,1.4361c0,2.15416 1.07717,3.94938 3.23133,4.30831c1.79522,0.35912 3.59027,-1.07716 3.94939,-2.87221c0.35893,-2.15417 -1.07717,-3.94938 -2.87222,-4.3085c-2.15433,-0.35894 -3.94938,1.07717 -4.3085,2.87238l0,0.00002zm11.84814,2.15416c-0.35912,1.79522 0.71805,3.94939 2.87221,4.30832c1.79522,0.35911 3.59027,-0.71805 4.30832,-2.87222c0.35912,-1.79521 -1.07699,-3.59026 -2.87222,-4.30831c-2.15416,-0.35912 -3.94938,1.07699 -4.30831,2.87221zm11.48903,2.51327c-0.35912,2.15417 0.71805,3.9492 2.51327,4.30832c2.15416,0.71805 3.9492,-0.35912 4.66725,-2.51327c0.35911,-1.79505 -0.71805,-3.59027 -2.87222,-4.30832c-1.79505,-0.35911 -3.59026,0.71806 -4.30831,2.51327l0.00001,0zm11.48903,3.23115c-0.71805,1.79522 0.35893,3.94938 2.15417,4.66743c2.15416,0.35912 3.94938,-0.35893 4.66743,-2.51309c0.71805,-1.79522 -0.35912,-3.94939 -2.15417,-4.3085c-2.15416,-0.71806 -3.94938,0.35911 -4.66743,2.15416l0,0zm11.12992,3.94938c-0.71805,1.79522 0.35911,3.94939 2.15416,4.66744c1.79522,0.71805 3.94938,-0.35894 4.66743,-2.15417c0.71806,-1.79522 -0.35893,-3.94938 -2.15416,-4.66743c-1.79505,-0.71805 -3.94938,0.35911 -4.66743,2.15416l0,0zm11.13008,4.3085c-1.07717,1.79505 -0.35912,3.9492 1.4361,5.02637c1.79522,0.71805 3.94939,0 5.02637,-1.79522c0.71805,-1.79505 0,-3.9492 -1.79505,-4.66743c-1.79522,-1.07699 -3.94938,-0.35894 -4.66743,1.43628l0.00001,0zm10.41185,5.38549c-1.07698,1.79505 -0.35893,3.9492 1.4361,5.02637c1.43611,1.07716 3.94939,0.35911 4.66744,-1.43611c1.07716,-1.4361 0.71805,-3.59026 -1.07699,-4.66743c-1.79522,-1.07717 -3.94938,-0.71805 -5.02655,1.07717l0,0zm10.05292,6.46248c-1.07717,1.4361 -0.71805,3.59027 1.07717,5.02655c1.4361,1.07699 3.59026,0.71805 4.66743,-1.07717c1.4361,-1.4361 1.077,-3.59027 -0.71823,-5.02637c-1.4361,-1.07717 -3.59027,-0.71823 -5.02637,1.07699l0,0zm9.33487,7.1807c-1.07717,1.4361 -1.07717,3.59027 0,5.02637c1.4361,1.4361 3.94938,1.4361 5.38548,0c1.077,-1.4361 1.077,-3.59027 0,-5.02637c-1.4361,-1.4361 -3.94938,-1.4361 -5.38548,0zm8.2577,8.61664c-1.4361,1.07716 -2.15417,3.23133 -0.71805,5.02655c1.07716,1.4361 3.23133,1.79521 5.02636,0.71805c1.43629,-1.07717 1.79522,-3.23133 0.71824,-5.02637c-1.07717,-1.43628 -3.23133,-1.79522 -5.02655,-0.71823l0,0zm6.46265,10.05291c-1.79522,0.71806 -2.87239,2.51327 -2.15434,4.3085c0.35912,2.15417 2.51327,2.87222 4.3085,2.5131c2.15417,-0.71805 2.87222,-2.87221 2.51327,-4.66725c-0.71823,-1.79522 -2.87238,-2.87238 -4.66743,-2.15433l0,-0.00002z"/>
    <path stroke="null" fill="#000000" id="_198310440" d="m272.517947,442.776129l-3.59026,14.72038l-4.66744,0c0,0 4.66744,-21.90101 4.66744,-21.90101c0.35911,-0.71806 1.79521,-0.71806 2.15416,0.35911c0,0 1.4361,6.8216 1.4361,6.8216l0,-0.00008zm5.02655,25.13217l-10.77097,0l-1.79522,8.2577l-10.05291,0l-3.23115,-3.23134l1.4361,-0.71805l7.53965,0l2.15416,-8.61663l13.6432,0l1.07717,4.30831l-0.00003,0.00001zm3.23133,8.2577l-3.23133,-3.23134l1.077,-0.71805l7.53982,0l-10.41205,-44.51997l0.71806,-0.71806l3.23134,3.23134l11.12991,45.95612l-10.05275,0l0,-0.00004z"/>
    <path stroke="null" fill="#000000" id="_226808152" d="m299.805387,438.467539l-7.18071,0l-3.23133,-3.23115l0.71805,-0.71805l9.69399,0l0,3.9492l0,0zm2.15416,38.05755l-3.23133,-3.23134l1.07717,-1.07716l7.53964,0l0,-37.69818l9.33487,0l0,-6.82177l1.077,-0.71806l3.23133,3.23134l0,8.2577l-9.6938,0l0,38.05754l-9.33487,0l-0.00001,-0.00007z"/>
    <path stroke="null" fill="#000000" id="_192306112" d="m334.272287,438.467539l-7.18071,0l-3.23133,-3.23115l1.07717,-0.71805l9.33487,0l0,3.9492l0,0zm2.15416,38.05755l-3.23133,-3.23134l1.07717,-1.07716l7.53965,0l0,-37.69818l9.33486,0l0,-6.82177l1.077,-0.71806l3.23133,3.23134l0,8.2577l-9.33486,0l0,38.05754l-9.69381,0l-0.00001,-0.00007z"/>
    <polygon stroke="null" fill="#000000" id="_191837688" points="362.6354664117098,476.1659851074219 359.4042957574129,472.9347229003906 360.48135264217854,472.2166442871094 368.0207203179598,472.2166442871094 368.0207203179598,427.6966857910156 368.73919565975666,426.9786071777344 371.9703357964754,430.2098693847656 371.9703357964754,476.1659851074219 362.6354664117098,476.1659851074219 "/>
    <path stroke="null" fill="#000000" id="_192605864" d="m161.936737,428.055759c1.79505,0.71805 2.87222,1.79521 3.23115,2.15416c0.71823,0.71805 1.79522,1.4361 2.87239,2.51327c0.71805,1.07699 1.07699,1.79522 1.79504,2.87221c1.43629,2.15417 2.15434,4.66744 2.15434,6.46266c0,3.23115 -1.79522,7.53965 -4.3085,9.6938c0,0 1.79522,1.79521 1.79522,1.79521c2.15416,2.15417 3.59026,5.02637 3.59026,9.33487c0,6.10354 -4.66743,13.2841 -11.84796,13.2841c0,0 -16.51564,0 -16.51564,0l-3.23133,-3.23134l1.07717,-0.71805c0,0 15.43845,0 15.43845,0c6.46249,0 10.77097,-6.8216 10.77097,-12.56602c0,-5.38548 -2.51327,-8.61681 -5.38548,-10.05291c0,0 -1.4361,-0.71806 -1.4361,-0.71806c0,0 1.4361,-1.07717 1.4361,-1.07717c2.51327,-1.4361 4.30831,-5.74441 4.30831,-8.61681c0,-3.59027 -1.79504,-8.2577 -6.10353,-10.41185c0,0 0.35911,-0.71806 0.35911,-0.71806l0.00003,-0.00001zm-7.89877,9.33486l0,8.61682l-3.94938,0l0,-12.92532c0,0 4.3085,0 4.3085,0c2.87222,0 5.02637,1.79522 5.74442,5.02655c-0.71805,-0.71805 -1.4361,-0.71805 -2.51327,-0.71805c0,0 -3.59027,0 -3.59027,0l0,0zm0,18.31063l0,11.12992l-3.94938,0l0,-15.4382c0,0 5.7446,0 5.7446,0c2.15417,0 4.30832,2.15417 5.02637,5.02637c-0.35894,-0.71805 -1.07699,-0.71805 -1.79522,-0.71805c0,0 -5.02637,0 -5.02637,0l0,-0.00004z"/>
    <path stroke="null" fill="#000000" id="_232024880" d="m187.069027,427.696649l1.077,-0.71805l3.23133,3.23133c0,0 0,33.03101 0,33.03101c0,0.71805 0,1.79522 0.35911,2.15416c-2.87221,-0.35893 -4.66743,-2.5131 -4.66743,-5.38548c0,0 0,-32.31293 0,-32.31293l-0.00001,-0.00004zm8.97576,49.54651c-3.59027,0 -6.46249,-1.07716 -9.69381,-3.59044c-2.15416,-1.79505 -4.3085,-4.66726 -4.66743,-5.38549c-0.35911,0 -0.71805,-1.07699 -1.07717,-1.79505c0,0 0.35912,-0.35911 0.35912,-0.35911c2.15416,4.3085 6.8216,7.1807 11.84796,7.1807c7.18071,0 13.28423,-6.10354 13.28423,-13.28422c0,0 0,-32.31294 0,-32.31294l0.71805,-0.71805l3.23133,3.23133c0,0 0,33.03101 0,33.03101c0,7.89877 -6.46265,14.0023 -14.0023,14.0023l0.00002,-0.00004z"/>
    <path stroke="null" fill="#000000" id="_230905344" d="m244.154767,449.597669l1.07716,-0.71806l3.23134,3.23133c0,0 0,11.12992 0,11.12992c0,8.61682 -4.66744,14.0023 -14.36141,14.0023c-3.23115,0 -6.10353,-1.07717 -9.33468,-3.59045c-2.15434,-1.79505 -4.66743,-4.66725 -5.02655,-5.38548c0,-0.35894 -0.35894,-1.07699 -1.07699,-2.15417c0,0 0.71805,0 0.71805,0c2.15417,3.94939 6.8216,7.18071 11.84797,7.18071c8.97593,0 12.92513,-5.38549 12.92513,-13.28423c0,0 0,-10.41185 0,-10.41185l-0.00002,-0.00002zm-6.10354,9.6938l-2.5131,0l-3.23133,-3.23133l0.71805,-1.077l5.02637,0l0,4.30832l0.00001,0.00001zm-0.35893,-20.82384c-0.71807,-0.71805 -2.15417,-1.07699 -3.23133,-0.71805c-2.87222,0 -5.02638,2.51327 -5.02638,5.38548c0,0 0,20.10589 0,20.10589c0,1.07717 0.35894,2.15417 1.077,2.87222c-3.23134,-0.71806 -5.02637,-3.23115 -5.02637,-6.10354c0,0 0,-20.10562 0,-20.10562c0,-3.23134 2.15416,-6.10372 5.74442,-6.46266c3.23133,-0.35911 6.10353,1.79522 6.46265,5.02637l0.00001,-0.00009zm10.77097,5.38549l-8.2577,0l-3.23134,-3.23115l1.07699,-0.71806c0,0 6.10353,0 6.10353,0c0,-5.38548 -1.79505,-9.69398 -6.10353,-11.84813c0,0 0.71805,-0.71805 0.71805,-0.71805c0.71806,0.35893 1.43628,1.07716 2.15433,1.4361c1.077,1.07717 2.15417,1.79521 3.59027,3.23133c1.077,1.4361 1.79522,2.15416 2.51327,3.59027c1.077,2.51326 1.4361,4.66743 1.4361,7.53964c0,0 0,0.71806 0,0.71806l0.00003,-0.00001z"/>
    <path stroke="null" fill="#ffffff" id="_228464592" d="m150.806747,452.469839l0,13.28423c0,0 5.02655,0 5.02655,0c2.87221,0 4.66743,-3.23134 4.66743,-6.8216c0,-3.59045 -2.51327,-6.46265 -4.66743,-6.46265c0,0 -5.02655,0 -5.02655,0l0,0.00002zm0,-18.31063l0,10.77097c0,0 3.59045,0 3.59045,0c3.23115,0 4.66725,-1.79522 4.66725,-5.38548c0,-3.59027 -2.15417,-5.38549 -4.66725,-5.38549c0,0 -3.59045,0 -3.59045,0l0,0zm13.28422,14.72038c3.23133,1.4361 5.74442,5.02637 5.74442,10.77097c0,6.10353 -4.66743,13.28409 -11.84797,13.28409c0,0 -16.51563,0 -16.51563,0l0,-45.95613c0,0 15.43845,0 15.43845,0c8.2577,0 11.84814,7.18071 11.84814,12.20709c0,2.87238 -1.79522,7.89876 -4.66743,9.69398l0.00002,0z"/>
    <path stroke="null" fill="#ffffff" id="_227512520" d="m197.480817,460.009579c0,0 0,-33.031 0,-33.031l9.33487,0c0,0 0,33.031 0,33.031c0,7.89877 -6.46248,14.0023 -14.0023,14.0023c-7.89859,0 -14.36128,-6.10353 -14.36128,-14.0023c0,0 0,-33.031 0,-33.031l9.69381,0c0,0 0,33.031 0,33.031c0,2.51327 1.79521,4.66744 4.66743,4.66744c2.87238,0 4.66743,-2.15417 4.66743,-4.66744l0.00004,0z"/>
    <path stroke="null" fill="#ffffff" id="_227267032" d="m236.973997,460.009579c0,0 0,-3.94938 0,-3.94938l-4.66743,0l0,-7.18053l12.92513,0c0,0 0,11.12991 0,11.12991c0,8.61682 -4.30832,14.0023 -14.0023,14.0023c-7.89858,0 -14.36127,-6.10353 -14.36127,-14.0023c0,0 0,-20.10562 0,-20.10562c0,-7.89877 6.46265,-14.0023 14.36127,-14.0023c9.69398,0 14.0023,5.38548 14.0023,14.0023c0,0 0,0.71805 0,0.71805l-8.2577,0c0,0 0,-0.71805 0,-0.71805c0,-3.23134 -2.51327,-5.7446 -5.7446,-5.38549c-2.87222,0 -5.02637,2.5131 -5.02637,5.38549c0,0 0,20.10562 0,20.10562c0,2.51327 2.15417,5.02655 5.02637,5.38549c3.23133,0 5.7446,-2.15417 5.7446,-5.38549z"/>
    <path stroke="null" fill="#ffffff" id="_138461464" d="m274.313467,456.419329l-4.30832,-20.46473l-4.66743,20.46473l8.97575,0zm-22.61896,16.51537l11.84796,-45.95612l12.92514,0l10.77097,45.95612l-9.69381,0l-1.79521,-8.2577l-12.20709,0l-1.79521,8.2577l-10.05275,0l0,0z"/>
    <polygon stroke="null" fill="#ffffff" id="_140157200" points="308.0632007867098,473.2937927246094 298.72833140194416,473.2937927246094 298.72833140194416,435.2364196777344 289.39346201717854,435.2364196777344 289.39346201717854,426.9786071777344 317.75665171444416,426.9786071777344 317.75665171444416,435.2364196777344 308.0632007867098,435.2364196777344 308.0632007867098,473.2937927246094 "/>
    <polygon stroke="null" fill="#ffffff" id="_228762920" points="342.88870127499104,473.2937927246094 333.19525034725666,473.2937927246094 333.19525034725666,435.2364196777344 323.8603504449129,435.2364196777344 323.8603504449129,426.9786071777344 352.22354014217854,426.9786071777344 352.22354014217854,435.2364196777344 342.88870127499104,435.2364196777344 342.88870127499104,473.2937927246094 "/>
    <polygon stroke="null" fill="#ffffff" id="_140085080" points="359.4042957574129,426.9786071777344 368.73919565975666,426.9786071777344 368.73919565975666,472.9347229003906 359.4042957574129,472.9347229003906 359.4042957574129,426.9786071777344 "/>
    <path stroke="null" fill="#000000" id="_229236672" d="m267.851167,414.053449c2.15433,0 3.59045,-1.79504 3.59045,-3.94938c0,-1.79505 -1.4361,-3.59026 -3.59045,-3.59026c0,0 -7.53965,0 -7.53965,0l0,7.53964c0,0 7.53965,0 7.53965,0zm0,-12.92513c1.79522,0 3.23133,-1.4361 3.23133,-3.23133c0,-1.79505 -1.4361,-3.23115 -3.23133,-3.23115c0,0 -7.53965,0 -7.53965,0l0,6.46248c0,0 7.53965,0 7.53965,0l0,0zm-18.31063,5.38549l0,1.79521l-4.66744,0l0,-1.79521l0,-5.38549l0,-1.79522l4.66744,0l0,1.79522l4.66743,0l0,-6.46248l-11.12992,0l0,2.15416l-4.66743,0l0,-2.15416l0,-4.66743c0,0 29.4405,0 29.4405,0c4.3085,0 8.25788,3.59026 8.25788,8.2577c0,2.15416 -0.71805,3.94938 -2.15434,5.38548c1.43629,1.79522 2.51327,3.94938 2.51327,6.10353c0,5.02637 -3.94938,8.97576 -8.61681,8.97576c0,0 -29.4405,0 -29.4405,0l0,-4.66744l0,-2.5131l4.66743,0l0,2.5131l11.12992,0l0,-7.53965l-4.66743,0l0,0.00002z"/>
   </g>
  </g>
 </g>
</svg>