<svg width="1000.0000000000001" height="1000.0000000000001" xmlns="http://www.w3.org/2000/svg">

 <g>
  <title>background</title>
  <rect fill="none" id="canvas_background" height="1002" width="1002" y="-1" x="-1"/>
 </g>
 <g>
  <title>Layer 1</title>
  <g id="svg_23">
   <g stroke="null" id="svg_12">
    <path stroke="null" id="svg_3" d="m696.086797,142.76662l0,10.107426l-196.094329,-34.366456l-196.079238,34.366456l0,-10.107426l196.079238,-34.592809l196.094329,34.592809z" fill="#fff"/>
    <path stroke="null" id="svg_4" d="m696.086797,132.429822l0,10.336797l-196.094329,-34.592809l-196.079238,34.592809l0,-10.336797l196.079238,-34.583755l196.094329,34.583755z" fill="#33a457"/>
    <path stroke="null" id="svg_5" fill="#cc2131" d="m696.086797,152.874046l-196.094329,-34.366456l-196.079238,34.366456l0.003018,34.870469l1.699158,-0.962756c0.691132,-0.38631 70.269096,-38.962936 194.754317,-38.962936c124.494275,0 193.260386,38.58568 193.957554,38.968972l1.68105,0.965774l0.078469,-34.879523z"/>
    <path stroke="null" id="svg_6" fill="#fff22d" d="m500.372742,154.558114c112.416067,0 178.242604,31.635127 188.911386,37.18229l0,100.386148c0,54.729193 -12.890062,109.25014 -38.295948,162.077965c-55.610461,115.385822 -139.288722,160.692684 -150.992693,166.60503c-11.713025,-5.912346 -95.454665,-51.219208 -151.050036,-166.60503c-25.405886,-52.827825 -38.29293,-107.348773 -38.29293,-162.077965l0,-100.374075c10.76536,-5.541127 77.283028,-37.194362 189.720222,-37.194362z"/>
    <path stroke="null" id="svg_7" d="m305.618424,186.778741l-1.699158,0.962756l0,104.385055c0,55.755327 13.107361,111.266193 38.959918,164.984341c60.689828,126.003297 154.780337,170.081816 155.721967,170.513396l1.394336,0.636807l1.391318,-0.636807c0.950684,-0.43158 94.962724,-44.522171 155.649534,-170.513396c25.864629,-53.718148 38.975008,-109.229014 38.975008,-164.984341l0,-104.376001l-1.68105,-0.965774c-0.69415,-0.383291 -69.463279,-38.968972 -193.957554,-38.968972c-124.485221,0 -194.063186,38.576626 -194.754317,38.962936zm194.754317,-32.220628c112.416067,0 178.242604,31.635127 188.911386,37.18229l0,100.386148c0,54.729193 -12.890062,109.25014 -38.295948,162.077965c-55.610461,115.385822 -139.288722,160.692684 -150.992693,166.60503c-11.713025,-5.912346 -95.454665,-51.219208 -151.050036,-166.60503c-25.405886,-52.827825 -38.29293,-107.348773 -38.29293,-162.077965l0,-100.374075c10.76536,-5.541127 77.283028,-37.194362 189.720222,-37.194362z"/>
    <path stroke="null" id="svg_8" d="m529.81677,523.531984c3.265523,2.257496 0.896359,6.177934 -1.521094,6.790597c-2.517048,0.685096 -4.668913,-2.109612 -5.888202,0.953702c-0.685096,1.644833 1.174019,14.106333 13.922233,14.106333c11.900144,0 17.577083,-15.277334 18.696777,-17.577083c1.12573,-2.293713 1.85006,-5.221214 0.72433,-5.221214c-5.221214,0 -6.742308,3.09953 -6.742308,3.09953s-0.395364,-2.981827 2.200153,-5.233287c2.139793,-1.837988 4.946573,-1.391318 5.960635,-1.391318c2.12772,0 1.792718,-1.584473 3.078404,-4.720219c2.93052,-7.379115 4.946573,-7.7111 6.850958,-11.076218c1.578437,-2.740383 -1.40339,-3.814806 -7.285556,-4.367108c-5.900274,-0.561356 -9.060165,-0.322931 -11.694917,0.060361c-2.640788,0.377255 -5.269503,1.448661 -6.908301,5.486802c-0.878251,2.188081 0.730366,4.342964 3.820842,3.784626c3.087458,-0.576446 6.06023,-2.912412 6.06023,-2.912412s-1.391318,5.529055 -5.99987,6.672893c-4.273549,1.050279 -9.319717,-1.52713 -8.640657,-5.851985c0.884287,-5.610542 4.762472,-9.721117 11.836765,-11.106398c7.086365,-1.427534 14.148586,-0.335003 20.447242,1.213253c6.27753,1.584473 10.898153,0.624735 16.735049,0.283696c12.585239,-0.673024 20.383863,-3.642778 20.383863,-3.642778s-5.670903,4.602516 -13.532905,6.730236c-7.862002,2.145829 -14.872916,1.255506 -17.142484,2.145829c-1.831952,0.784691 -4.421433,4.421433 -6.555189,8.577278c-1.961728,3.820842 -4.050214,8.224167 -3.147819,8.224167c7.3097,0.27766 9.986704,-1.321903 9.986704,-1.321903s-1.445643,3.153855 -4.928464,4.644768c-2.417452,0.977846 -6.518973,0.977846 -6.518973,0.977846s-1.844024,4.668913 -3.920438,8.882101c-2.091504,4.21017 -5.516983,10.786486 -11.682845,14.039936c-6.190006,3.247414 -18.026771,7.297628 -25.481337,-3.425479c-7.886146,-11.248246 -0.688114,-24.044749 6.887174,-18.826552zm-91.522155,1.466769c1.454697,3.724265 -1.635779,5.664867 -3.431515,5.664867c-1.801772,0 -4.044178,-1.336993 -4.511974,0.914467c-0.428562,2.233352 4.783598,13.753222 16.910095,13.753222c12.132533,0 17.755147,-7.019968 16.901041,-13.30957c-0.950684,-7.019968 -12.102353,-9.80864 -20.990489,-14.483589c-4.349,-2.281641 -14.178766,-3.80877 -14.178766,-13.010784c0,-19.64746 29.899752,-7.098437 29.899752,-7.098437s0.063379,-2.456687 1.454697,-2.571373c0.673024,-0.063379 2.025107,-0.328967 2.474795,1.892313c0.443652,2.239388 2.420471,14.039936 2.420471,14.039936s-4.394271,-8.984714 -16.454371,-12.90817c-2.133756,-0.748475 -11.462527,-2.523084 -11.408203,4.862067c0.111668,4.385217 5.456622,6.352981 14.722014,9.950488c12.177804,4.774544 18.416099,9.220121 15.539904,22.02266c-2.737365,12.292489 -14.755212,14.314578 -20.598144,14.314578c-5.830859,0 -19.249079,-4.089448 -19.249079,-17.577083c0,-9.537016 9.355933,-9.313681 10.499772,-6.455594zm63.888953,-73.875658l4.910356,2.326911c2.830924,1.09555 4.638732,0.612663 5.287611,0.341039c0.685096,-0.295768 3.277595,-3.078404 3.841969,-5.447568c0.265588,-0.965774 0.12374,-1.80479 -0.389328,-2.423489c-1.910421,-2.263532 -5.293647,-12.660691 -6.549153,-18.280287c-0.464779,-2.085468 0.099595,-7.840876 0.537212,-12.473572c0.383291,-3.977781 0.618699,-6.449558 0.419508,-7.086365c-0.335003,-0.983882 -1.80479,-1.934566 -3.494894,-3.005971l-2.677004,-1.822898c-1.427534,-1.167983 -1.490913,-2.758491 -1.569382,-4.466704l-0.283696,-2.65286c-0.621717,-2.468759 -13.18583,-15.301478 -15.132468,-15.419182c-2.82187,-0.184101 -3.555255,2.912412 -3.736337,4.774544c-0.111668,1.089514 1.146856,5.954599 2.281641,10.267382l1.252488,5.200088c1.285686,8.175879 9.97765,22.574962 13.683807,28.719698l1.759519,2.987863c0.760547,1.732357 0.464779,3.09953 -0.887305,3.866113c-1.312849,0.754511 -12.609384,-0.425544 -18.005645,-1.668978c-2.317857,-0.531176 -5.178962,-1.687086 -7.970652,-2.818852c-3.196108,-1.273614 -6.226223,-2.511012 -7.976688,-2.598535c-2.043215,-0.105632 -3.012007,0.30784 -3.7635,0.654915l-1.225325,0.341039l-1.219289,-0.389328c-1.496949,-0.660951 -4.294675,-1.868169 -11.933342,-2.5593c-11.133561,-1.044243 -11.969559,1.195145 -12.422265,2.40538c-0.552302,1.539202 6.253385,8.776469 7.469657,9.745261c1.548256,1.24947 6.555189,3.153855 9.612467,2.646824c3.494894,-0.561356 9.192959,-1.267578 9.899181,-1.12573l1.146856,0.700186l1.065369,0.754511c0.965774,0.395364 7.188979,0.736403 9.069219,0.835998c2.169973,0.117704 7.868038,1.297759 12.032938,2.169973l4.653822,0.938611c1.822898,0.335003 6.518973,2.65286 10.312653,4.563281z"/>
    <path stroke="null" id="svg_9" d="m617.358126,306.730862c-0.24748,-0.304822 -0.452706,-0.322931 -0.582482,-0.289732c-0.117704,0.039235 -0.27766,0.150902 -0.322931,0.513067c-0.205227,1.551274 -2.151865,5.538109 -3.697103,6.126627c-3.129711,1.210235 -4.7504,4.880176 -5.924418,7.554162c-0.600591,1.379246 -1.186091,2.695112 -1.65087,2.713221c-0.199191,0.01509 -0.419508,-0.199191 -0.660951,-0.645861c-1.92853,-3.325883 -0.84807,-8.411286 0.018108,-12.509788l0.199191,-1.005008c0.706222,-3.455659 4.7504,-8.2966 7.167852,-11.199958l1.068387,-1.285686c1.644833,-2.052269 2.058305,-9.00584 1.750465,-9.527962c-0.099595,-0.03018 -0.165992,0.027162 -0.205227,0.087523a0.392346,0.392346 0 0 0 -0.093559,0.10865l-0.036217,-0.006036l0,0.036217c-0.099595,0.10865 -0.184101,0.120722 -0.265588,0.470815c-0.43158,2.172991 -4.403325,6.588388 -11.187886,12.455464c-1.391318,1.204199 -2.97579,3.380208 -4.273549,5.127655c-0.835998,1.146856 -1.816862,2.468759 -2.076414,2.532138c-1.68105,-8.969624 1.361137,-14.097279 2.80678,-16.575092l0.673024,-1.258524c2.870159,-7.810695 10.261346,-13.72606 10.339815,-13.780385c0.099595,-0.226353 0.099595,-0.467797 -0.081487,-0.621717c-0.283696,-0.217299 -0.802799,-0.12374 -1.620689,0.286714l-0.44667,0.223335c-2.577409,1.252488 -10.351888,5.040132 -15.120396,14.160658c-3.425479,6.567262 -4.7504,13.907142 -4.7504,19.442233c0,2.824888 0.341039,5.16689 0.920503,6.718164c1.675014,4.466704 4.608552,15.567066 5.510947,19.92512c0.561356,2.701149 0.648879,11.975595 0.648879,17.788346c0,2.839979 -0.012072,4.828869 -0.012072,4.90432c-0.018108,0 -1.478841,4.714183 -1.478841,4.714183c-0.006036,0.048289 -0.712258,3.730301 -6.730236,9.884091c-6.06023,6.190006 -12.808575,8.15777 -12.868936,8.181915c-2.710203,0.211263 -5.18198,0.099595 -5.269503,-0.253516c0,-7.074293 -12.114425,-23.531682 -18.313485,-28.961141c-6.325818,-5.544145 -11.38104,-9.51589 -19.970391,-14.74314c-8.746289,-5.323828 -18.473441,-27.642256 -18.585109,-27.859555l-0.842034,-3.015025s-0.470815,-6.020996 -0.600591,-7.58736c0.316895,0.181083 0.730366,0.437616 0.730366,0.437616l2.981827,1.735375l3.425479,1.315867c0.03018,0.009054 4.484812,0.881269 4.484812,0.881269c0,0.009054 2.492904,1.285686 2.492904,1.285686l2.311821,1.502985l3.594489,2.595517l3.691067,1.940602c0.075451,0.021126 4.433505,0.244461 4.433505,0.244461l0.099595,-0.359147s-5.046168,-2.369164 -5.05824,-2.369164c0,-0.072433 -1.816862,-3.181017 -1.816862,-3.181017a1514.363457,1514.363457 0 0 1 -2.115648,-3.045205c-0.069415,-0.048289 -2.622679,-1.5724 -2.622679,-1.5724a152.221037,152.221037 0 0 0 -3.247414,-0.458743c0,-0.027162 -0.636807,-0.573428 -0.965774,-0.869196c0.283696,-0.165992 0.81789,-0.497977 0.81789,-0.497977c0,0.039235 3.476786,0.440634 3.488858,0.440634c0,0.036217 3.093494,2.139793 3.093494,2.139793l3.37719,2.601553c0.054325,0.027162 3.196108,1.246452 3.196108,1.246452l0.413472,0.162974l-1.379246,-3.588453a247.035877,247.035877 0 0 0 -2.604571,-2.459705l-3.826879,-3.25345c-0.03018,-0.027162 -3.005971,-1.560328 -3.005971,-1.560328c-0.03018,-0.006036 -3.205162,-1.077441 -3.205162,-1.077441c0,-0.006036 -3.359082,-2.148847 -3.359082,-2.148847s0.036217,-0.229371 0.060361,-0.425544c0.425544,0.162974 4.650804,1.859115 4.650804,1.859115c0.024144,0.003018 4.050214,1.098568 4.050214,1.098568c-0.006036,-0.01509 3.37719,1.291722 3.37719,1.291722c-0.012072,-0.012072 4.856031,2.363128 4.856031,2.363128c0.042253,0.021126 4.074358,0.896359 4.074358,0.896359c0.069415,0.003018 4.973735,-0.875232 4.973735,-0.875232c0.063379,-0.03018 4.738328,-3.283631 4.738328,-3.283631c0.054325,-0.087523 0.914467,-2.022089 0.914467,-2.022089l0.184101,-0.44667l-1.502985,0.621717c-0.012072,0 -4.243369,2.148847 -4.249405,2.148847l-2.93052,0.654915c0,-0.01509 -3.307775,-0.663969 -3.313811,-0.663969l0.006036,0c0,-0.039235 -2.68304,-2.535156 -2.68304,-2.535156l-3.80877,-3.688049l-3.443587,-1.762537c-0.048289,-0.021126 -4.074358,-0.673024 -4.074358,-0.673024c0,-0.009054 -2.450651,-1.255506 -2.492904,-1.276632c0.012072,0 0.018108,-0.045271 0.018108,-0.10865c0,-0.295768 -0.075451,-0.941629 -0.105632,-1.243434l5.064276,0.425544l5.547163,-0.44667c0,0.01509 3.123675,0.651897 3.123675,0.651897l3.159891,1.303795l3.235342,0.437616l0.582482,0.078469l-3.606561,-3.449623c-0.036217,-0.018108 -3.636742,-2.619661 -3.636742,-2.619661c-0.042253,-0.021126 -3.018043,-1.11064 -3.018043,-1.11064c-0.054325,-0.012072 -5.015988,-0.43158 -5.115583,-0.440634c0.042253,-0.003018 0.048289,-0.087523 0.048289,-0.211263c0,-0.301804 -0.048289,-0.730366 -0.075451,-0.950684l2.345019,-0.398382c0,0.01509 3.754446,0.860142 3.754446,0.860142c0,0.012072 3.555255,2.145829 3.555255,2.145829l3.841969,1.312849c0.111668,0.003018 5.610542,-0.860142 5.610542,-0.860142l0.328967,-0.045271l-1.675014,-2.212226c-0.093559,-0.072433 -2.858087,-0.932575 -2.864123,-0.932575c0,-0.01509 -2.281641,-1.702176 -2.281641,-1.702176l-3.401335,-2.39029c-0.048289,-0.027162 -2.586463,-0.890323 -2.586463,-0.890323c-0.042253,-0.01509 -4.044178,-0.654915 -4.05625,-0.657933c0,-0.042253 -1.967764,-1.853078 -2.010017,-1.883259c0.060361,-0.012072 0.184101,-0.642843 0.229371,-0.929557l2.115648,0.591536l2.722275,1.297759l3.866113,1.225325l-0.854106,-1.705194l-1.502985,-1.569382l-1.315867,-1.69614l0.57041,-0.141848c0,0.051307 4.113593,2.148847 4.113593,2.148847l3.205162,1.092532c0,0.018108 2.474795,2.338983 2.474795,2.338983c0.036217,0.03018 4.720219,2.673986 4.720219,2.673986l0.470815,0.265588l-0.854106,-2.287677c-0.024144,-0.051307 -2.565337,-3.301739 -2.565337,-3.301739l-2.115648,-3.657868c-0.018108,-0.042253 -3.848005,-3.938546 -3.848005,-3.938546c-0.036217,-0.036217 -4.910356,-2.640788 -4.922428,-2.640788c0,-0.021126 -1.856096,-2.124702 -1.856096,-2.124702a1226.38179,1226.38179 0 0 1 -3.401335,-3.473768c0,-0.045271 -0.347075,-1.23438 -0.525139,-1.837988c0.576446,0.184101 3.301739,1.089514 3.301739,1.089514l3.814806,1.077441c0,0.009054 2.722275,1.705194 2.722275,1.705194c0,0.018108 2.269568,2.773582 2.269568,2.773582c0.081487,0.063379 3.697103,1.584473 3.697103,1.584473l9.214085,1.195145l0.537212,0.066397l-2.52912,-2.661914c-0.063379,-0.048289 -4.946573,-2.218262 -4.946573,-2.218262l-2.93052,-2.136774c0,-0.039235 -1.638797,-2.978808 -1.638797,-2.978808l-1.708212,-3.030115c-0.03018,-0.045271 -2.788672,-2.643806 -2.788672,-2.643806c-0.042253,-0.03018 -3.437551,-1.979836 -3.437551,-1.979836l-3.359082,-2.794708c0,-0.027162 -0.808836,-1.702176 -1.324921,-2.818852l2.332947,2.248442l4.45765,3.90233c0.054325,0.033198 3.455659,1.551274 3.455659,1.551274l2.912412,2.354074l3.383226,3.452641c0.117704,0.054325 5.405315,0.799781 5.405315,0.799781l0.660951,0.096577l-5.369099,-4.650804c0,-0.084505 -1.213253,-3.811788 -1.213253,-3.811788a196.432349,196.432349 0 0 0 -2.812816,-2.68304l-1.460733,-1.717266c0,-0.045271 -1.454697,-4.478776 -1.454697,-4.478776a279.700157,279.700157 0 0 0 -3.024079,-3.09953c0,-0.024144 -4.849995,-4.548191 -4.862067,-4.566299l0,-0.009054c0,-0.069415 -0.172028,-0.760547 -0.271624,-1.216271c0.371219,0.187119 0.878251,0.455724 0.878251,0.455724l4.451613,2.592499c0.042253,0.021126 5.341936,1.536184 5.341936,1.536184l5.529055,1.309831l6.389197,1.020099l-1.502985,-3.039169c-0.105632,-0.096577 -3.283631,-1.391318 -3.283631,-1.391318l-2.948628,-1.720285c-0.03018,-0.009054 -3.630706,-1.530148 -3.630706,-1.530148l-3.171963,-1.297759c0,-0.03018 -2.058305,-2.686058 -3.205162,-4.152827c1.101586,0.739421 2.800744,1.895331 2.800744,1.895331c0.081487,0.027162 2.858087,0.24748 2.858087,0.24748l8.707054,0.003018c0,0.024144 3.525074,1.92853 3.525074,1.934566c0,0.012072 3.005971,3.25345 3.005971,3.25345l0.395364,0.425544l-0.365183,-3.657868c-0.036217,-0.105632 -1.946638,-2.492904 -1.946638,-2.492904c-0.054325,-0.042253 -5.157836,-2.861105 -5.157836,-2.861105l-4.05625,-1.52713c-0.03018,-0.009054 -6.141718,-1.089514 -6.171898,-1.089514l0,-0.009054c0,-0.057343 -1.167983,-1.448661 -1.167983,-1.448661c-0.024144,-0.012072 -4.47274,-4.128683 -4.47274,-4.128683a193.815706,193.815706 0 0 0 -2.163937,-1.113658c0,-0.012072 -0.67906,-0.70924 -1.101586,-1.149874l2.287677,0c0,0.036217 3.506966,2.142811 3.506966,2.142811c0.03018,0.021126 4.711165,1.530148 4.711165,1.530148l5.972707,0.872214l-0.006036,0c0,0.063379 2.215244,2.54421 2.215244,2.54421l3.229306,1.982854a297.669585,297.669585 0 0 0 3.678994,0.654915l0.513067,0.081487l-7.55718,-9.259356c-0.048289,-0.045271 -3.660886,-1.991908 -3.660886,-1.991908c-0.03018,-0.018108 -4.267513,-1.318885 -4.267513,-1.318885c0,-0.045271 -3.730301,-4.276567 -3.730301,-4.276567c-0.042253,-0.045271 -4.714183,-2.855069 -4.714183,-2.855069a195.496756,195.496756 0 0 0 -3.395298,-0.826944c0.211263,-0.341039 0.914467,-1.499967 0.914467,-1.506003c0.012072,0.033198 3.742373,-1.653888 3.742373,-1.653888c0,0.009054 5.468694,-1.068387 5.468694,-1.068387c0.147884,-0.126758 0.561356,-1.43357 0.561356,-1.43357c-0.069415,-0.220317 -2.40538,-1.735375 -2.40538,-1.735375a283.421404,283.421404 0 0 0 -2.800744,-0.893341c-0.172028,0.021126 -1.65087,0.887305 -1.65087,0.893341c0,-0.027162 -4.575353,0.181083 -4.575353,0.181083c0,-0.003018 -5.468694,-1.288704 -5.468694,-1.29474c0,-0.027162 -5.634686,-4.723237 -5.634686,-4.723237a364.338156,364.338156 0 0 0 -2.592499,-1.321903c-0.063379,-0.012072 -9.371024,-1.101586 -9.395168,-1.101586c0,-0.117704 -2.188081,-3.383226 -2.188081,-3.383226l-2.993899,-3.271559c-0.012072,-0.018108 -3.811788,-3.446605 -3.811788,-3.446605l-0.117704,0.250498l-1.273614,2.818852c0.006036,-0.027162 -1.255506,1.922493 -1.255506,1.922493l0,0.048289c0,0.359147 0.178065,2.242406 0.178065,2.242406c0.054325,0.117704 1.285686,1.379246 1.312849,1.415462c-0.063379,0 -0.464779,1.961728 -0.464779,1.976818c-0.012072,-0.135812 -5.106529,0.072433 -5.115583,0.072433c0,-0.024144 -4.161881,-1.934566 -4.161881,-1.934566c-0.027162,-0.018108 -3.217234,-1.098568 -3.217234,-1.098568c-0.063379,-0.021126 -7.484747,0.208245 -7.484747,0.208245c-0.162974,0.084505 -1.421498,2.034161 -1.421498,2.034161l-0.16901,0.256534l3.265523,0.470815c0,0.012072 0.482887,0.319913 0.751493,0.491941l-0.835998,0.682078c0,-0.042253 -4.542155,-0.250498 -4.542155,-0.250498c-0.075451,0.012072 -3.271559,1.306813 -3.271559,1.306813l-0.331985,0.141848l1.584473,1.065369c0.099595,0.036217 6.887174,0.250498 6.887174,0.250498l5.040132,1.297759l0,0.006036c0,0.069415 0.959738,1.439607 0.959738,1.439607s0.682078,0.962756 0.938611,1.340011l-2.157901,1.189109c0.027162,-0.003018 -6.132663,2.595517 -6.132663,2.595517l-12.733124,7.149744c-0.012072,-0.012072 -8.384124,1.237398 -8.384124,1.237398c-0.063379,0.021126 -3.277595,1.810826 -3.277595,1.810826c-0.069415,0.048289 -2.649842,3.62467 -2.649842,3.62467c-0.027162,0.045271 -1.487895,4.496884 -1.487895,4.496884c-0.114686,7.563216 0.187119,7.738262 0.295768,7.798623c0.250498,0.156938 2.435561,1.394336 4.125665,0.488923c1.913439,-1.041225 6.008924,-2.064341 8.136644,-2.517048c1.050279,-0.214281 1.54222,0.162974 1.629743,0.552302c0.114686,0.425544 -0.202209,1.005008 -0.9869,1.219289l-0.440634,0.129776c-3.700121,1.005008 -7.475693,2.22128 -7.351953,3.648814l0.651897,1.089514c1.65087,1.204199 5.942527,0.633789 8.221149,0.117704l2.378218,-0.666988c2.052269,-0.624735 4.385217,-1.321903 6.377125,-1.098568c1.149874,0.132794 2.163937,0.627753 3.3621,1.192127c1.623707,0.784691 3.479804,1.675014 6.247349,1.856096c4.614588,0.319913 7.765425,1.252488 8.012904,1.524112c0.618699,1.258524 0.220317,3.120657 -0.090541,4.617606l-0.238425,1.355101c-1.291722,11.713025 -14.368903,24.956198 -20.670577,31.309179c-1.702176,1.720285 -2.827906,2.855069 -3.06935,3.328901l-0.72433,1.675014c-0.612663,1.554292 -1.11064,2.894303 -3.108584,3.697103c-1.15591,0.449688 -3.851023,2.477813 -6.977716,4.819815c-4.514992,3.368136 -10.113462,7.55718 -11.655682,7.376097c-2.580427,-0.304822 -14.631473,-8.601423 -15.138504,-9.111472c-11.737169,-11.356896 -16.647525,-9.026967 -19.587099,-7.638667l-0.464779,0.217299c-3.50093,1.593527 -7.176906,11.510816 -7.508891,13.638537l-1.41848,6.108519l-1.089514,4.48783c-0.322931,1.518076 -1.768573,5.248377 -3.147819,8.85192l-2.830924,7.846912c-0.467797,1.816862 -1.602581,4.370126 -2.526102,6.434468l-1.252488,3.057278c-0.872214,3.588453 -0.887305,23.241949 0.630771,24.980342l0.066397,0.072433l0.298786,0.087523c1.524112,-0.156938 4.79567,-3.528092 6.365053,-5.154818l0.362165,-0.377255c1.327939,-1.333975 2.737365,-4.895266 2.737365,-6.392215c0,-1.466769 -0.685096,-4.533101 -0.95672,-5.369099c-2.124702,-6.488793 -1.321903,-12.672763 -0.935593,-15.636481l0.15392,-1.321903c0.111668,-1.376228 1.490913,-2.900339 2.830924,-4.361072l1.693122,-1.95871c0.929557,-1.237398 1.961728,-1.647852 2.882231,-2.013035l1.51204,-0.86316l0.235407,-0.244461c1.00199,-1.005008 2.68304,-2.701149 3.419443,-4.970717l1.436588,-6.214151l0.313876,-1.659924c0.072433,-0.331985 0.241443,-0.516085 0.522121,-0.576446c0.57041,-0.126758 1.424516,0.325949 1.7897,0.811854l10.388104,12.054064c2.661914,2.26655 5.396261,4.970717 5.396261,5.565271l-0.003018,0.051307c0,-0.009054 -0.063379,0.003018 -0.063379,0.003018c-1.454697,0.150902 -8.773451,-1.409426 -9.989722,-1.756501c-9.944452,-2.91543 -14.483589,-2.402362 -17.984518,1.979836c-3.989853,5.019006 -2.734347,20.389899 -1.919475,22.073967c0.748475,1.52713 4.388235,20.254087 4.551209,22.750008c0.162974,2.447633 1.11064,6.823795 2.100558,7.828804l0.271624,0.27766c1.225325,1.213253 4.454632,4.45765 5.025042,7.656775c0.615681,3.482822 8.012904,12.808575 10.834775,13.644573a1.3883,1.3883 0 0 0 1.243434,-0.241443c2.151865,-1.52713 3.129711,-8.99075 3.247414,-12.141587c0.13883,-3.926474 -1.270596,-5.824823 -2.767545,-7.855966l-0.573428,-0.793745c-1.101586,-1.502985 -3.042187,-2.049251 -4.321838,-2.408398c-0.546266,-0.15392 -1.29474,-0.335003 -1.29474,-0.504013c0,-0.057343 -0.150902,-5.809733 -1.985872,-6.920373c-1.427534,-0.878251 -2.888267,-6.428432 -3.060296,-8.541062c-0.165992,-2.09754 -0.977846,-7.161816 -2.067359,-9.386114c-1.101586,-2.233352 -2.028125,-6.349963 -1.55731,-9.524944c0.196173,-1.364155 1.167983,-1.792718 1.95871,-1.916457c1.364155,-0.217299 2.939574,0.371219 3.184035,0.84807c0.543248,1.092532 11.030947,7.41835 14.568094,8.776469c2.197135,0.83298 5.169908,3.343992 7.795605,5.58338c1.868169,1.566364 3.473768,2.91543 4.475758,3.395298c1.352083,0.651897 5.184998,0.727348 8.263402,0.787709c1.632761,0.027162 3.328901,0.066397 3.558273,0.202209c-1.24947,0.500995 -1.23438,2.692094 -1.131766,3.398316c1.276632,9.063183 34.248752,33.95902 36.798999,35.356374c2.951646,1.584473 13.538941,12.639564 14.46548,14.14255c0.959738,1.484877 1.892313,3.09953 1.714248,4.342964c-0.253516,1.837988 0.482887,3.938546 1.955692,5.652795c1.409426,1.596545 3.247414,2.5593 4.946573,2.5593c1.472805,0 2.456687,-1.321903 3.184035,-2.275604l0.15392,-0.199191c1.967764,-2.604571 4.886212,-6.419378 5.263467,-12.386049c0.4014,-6.117573 3.196108,-8.547098 4.107557,-8.707054c0.407436,-0.075451 0.706222,0.048289 0.814872,0.316895c0.111668,0.27766 -0.024144,0.742439 -0.576446,1.107622c-1.207217,0.81789 -1.961728,3.525074 -2.788672,6.419378c-0.006036,0.024144 -0.30784,2.954664 -0.30784,2.954664c-0.069415,2.188081 -0.15392,4.668913 -2.338983,7.074293c-3.271559,3.543183 -7.026004,11.713025 -7.997814,22.028696c-0.588518,6.214151 2.209208,15.165666 8.311691,26.573869l0.425544,0.814872l1.65087,2.770564c1.668978,2.68304 4.45765,7.143708 4.327874,8.187951c-0.178065,1.472805 -0.316895,2.628715 -2.858087,5.818787c-2.794708,3.506966 -12.992675,15.373911 -13.988629,15.56103c-2.028125,0 -2.369164,0.259552 -4.001925,1.496949l-1.720285,1.309831c-1.883259,1.336993 -2.212226,2.338983 -2.52912,3.22327c-0.232389,0.666988 -0.452706,1.24947 -1.327939,1.904385l-0.654915,0.440634c-0.135812,0.117704 -0.504013,0.636807 -4.602516,4.738328c-4.699093,4.644768 -6.796633,9.902199 -6.072303,15.126432c0.232389,1.632761 1.638797,2.203171 5.809733,2.393308c4.164899,0.193155 13.713988,-6.488793 14.139532,-8.664802l0.147884,-0.829962c0.365183,-1.961728 0.977846,-5.269503 2.058305,-5.746354c1.303795,-0.57041 3.537146,-3.147819 5.175944,-5.022024l0.316895,-0.353111c0.872214,-1.008026 1.083477,-2.010017 1.291722,-2.963718c0.178065,-0.754511 0.341039,-1.515058 0.835998,-2.209208c0.389328,-0.507031 0.959738,-0.784691 1.620689,-1.089514c1.267578,-0.606627 2.864123,-1.379246 4.013997,-4.267513c1.143838,-2.830924 7.970652,-7.729208 12.956459,-11.293517c2.547228,-1.810826 4.545173,-3.259486 5.022024,-3.896294c0.654915,-0.854106 1.056315,-2.49894 1.056315,-4.243369c0,-2.070378 -0.55532,-4.273549 -1.856096,-5.498874c-1.892313,-1.756501 -3.672958,-6.983752 -4.204134,-8.622549l0,-0.036217c0,-0.67906 -0.063379,-1.922493 -0.165992,-4.237332c-0.012072,-0.105632 -0.012072,-0.217299 -0.012072,-0.316895c0,-6.123609 9.102418,-12.114425 13.03191,-14.694852l1.792718,-1.237398c14.248181,-12.567131 17.036853,-22.122255 17.56501,-24.744935l0.289732,-3.141783c0.087523,-2.176009 0.159956,-4.249405 1.472805,-4.521028c0.513067,-0.099595 1.367173,0.313876 1.886277,0.932575c0.295768,0.335003 0.730366,1.032171 0.440634,1.837988c-0.648879,1.762537 -0.866178,19.481468 -0.872214,20.21787c0.048289,0.12374 1.533166,1.874205 1.533166,1.874205l0.271624,0.316895l0.081487,-0.413472c0.018108,-0.205227 0.835998,-5.034096 0.835998,-6.742308c0,-1.910421 3.072368,-10.092336 3.814806,-10.234184c0,0.024144 0.048289,0.093559 0.048289,0.093559c0.359147,1.131766 0.81789,3.926474 0.81789,6.872084c0,2.894303 -0.437616,5.936491 -1.844024,7.699028c-2.133756,2.640788 -3.832915,6.820777 -4.940536,9.579269l-1.026135,2.345019a2.610607,2.610607 0 0 0 -0.147884,1.014062c0,2.245424 1.15591,7.03204 1.916457,7.922363c0.199191,0.211263 0.359147,0.211263 0.470815,0.172028c0.24748,-0.093559 0.470815,-0.413472 0.470815,-2.293713c0,-7.161816 6.017978,-12.355868 6.090411,-12.395103c5.30572,-4.21017 6.46163,-12.017847 6.46163,-17.96641c0,-4.50292 -0.660951,-7.940471 -0.67906,-8.034031a276.332021,276.332021 0 0 0 -2.547228,-3.712193c0.12374,0.060361 0.814872,-0.507031 1.044243,-0.691132c0.229371,0.295768 2.646824,3.50093 2.646824,3.50093c0.407436,0.57041 1.439607,2.233352 1.439607,2.894303c0,3.685031 0.567392,6.208115 0.97181,8.058175l0.099595,0.437616c0.425544,1.961728 3.078404,8.230203 3.196108,8.498809l0.283696,0.660951l0.087523,-0.718294c0,-0.03018 0.419508,-3.307775 0,-6.111537c-0.241443,-1.5724 0.060361,-3.50093 0.365183,-5.58338l0.482887,-4.78058c0,-3.884221 -0.55532,-6.33789 -1.940602,-8.571242l-0.706222,-1.071405c-0.27766,-0.437616 -0.549284,-0.866178 -0.519103,-0.953702l0.519103,-0.223335c11.205994,-3.802734 16.421172,-12.054064 18.545874,-16.623381c2.227316,-4.840941 2.345019,-12.295507 2.345019,-13.729078c0,-1.868169 -0.081487,-11.556087 -1.708212,-16.53284c-0.953702,-2.936556 -0.648879,-6.090411 -0.328967,-9.494763l0.347075,-5.827841c0,-3.986835 2.09754,-6.947535 4.131701,-9.80864l2.423489,-3.754446c1.584473,-3.126693 0.742439,-5.864058 0.105632,-6.645731z"/>
    <path stroke="null" id="svg_10" d="m491.925239,181.943836c0.187119,0.012072 2.568355,-1.119694 2.568355,-1.119694c0.105632,-0.214281 -0.44667,-2.468759 -0.44667,-2.468759a945.383874,945.383874 0 0 0 -5.18198,-6.093429l-0.256534,-0.298786l-0.087523,0.374237l-0.55532,2.441597c0.003018,-0.024144 -1.644833,3.91742 -1.644833,3.91742l-0.075451,0.165992l3.470749,1.774609l2.209208,1.306813z"/>
    <path stroke="null" id="svg_11" fill="#fff" d="m492.95741,197.586353c0.549284,0.205227 1.379246,0.114686 2.163937,-0.235407c1.201181,-0.564374 1.910421,-1.530148 1.605599,-2.22128l-0.552302,-0.497977c-0.543248,-0.208245 -1.37321,-0.114686 -2.145829,0.241443c-1.029153,0.458743 -1.687086,1.222307 -1.687086,1.871187c0,0.117704 0.033198,0.244461 0.072433,0.344057l0.543248,0.497977zm20.730938,-8.556152l0.989918,0.534194a1.261542,1.261542 0 0 0 0.842034,0.69415a1.427534,1.427534 0 0 0 1.207217,-0.301804c0.265588,-0.208245 0.328967,-0.597573 0.159956,-1.089514c-0.265588,-0.81789 -1.119694,-1.71123 -2.040197,-1.71123c-1.186091,0 -2.269568,0.135812 -2.269568,1.011044c0.003018,0.491941 0.567392,0.67906 1.11064,0.86316zm1.186091,3.497912c-0.458743,0.338021 -0.660951,0.793745 -0.531176,1.255506l0.093559,0.383291c0.117704,0.452706 0.159956,0.546266 0.576446,0.594554l0.754511,0.135812c0.965774,0.24748 2.492904,-0.353111 2.839979,-1.12573c0.117704,-0.250498 0.211263,-0.736403 -0.44667,-1.195145c-1.131766,-0.754511 -2.526102,-0.591536 -3.286649,-0.048289zm3.087458,13.43331c-0.27766,-0.132794 -0.159956,-0.573428 0.054325,-1.213253c0.172028,-0.522121 0.328967,-1.023117 0.060361,-1.297759c-0.235407,-0.226353 -0.654915,-0.208245 -1.367173,0.057343c-2.565337,0.923521 -2.957682,3.537146 -3.241378,5.447568l-0.087523,0.588518c-0.147884,0.851088 0.289732,1.14082 0.561356,1.237398c0.884287,0.313876 2.480831,-0.488923 2.839979,-1.101586c0.4014,-0.660951 2.616643,-1.26456 4.231296,-1.705194l0.618699,-0.16901c0.748475,-0.205227 1.131766,-0.491941 1.186091,-0.881269c0.081487,-0.510049 -0.482887,-0.974828 -0.983882,-1.273614c-0.464779,-0.274642 -1.15591,-0.078469 -1.880241,0.129776c-0.718294,0.196173 -1.490913,0.398382 -1.991908,0.181083zm-27.114099,0.980864c0.567392,-0.057343 1.011044,-0.27766 1.291722,-0.682078c0.81789,-1.219289 0.860142,-2.94561 0.066397,-4.511974c-0.766583,-1.493931 -2.079432,-2.450651 -3.419443,-2.49894l0.018108,0.006036l-0.29275,-0.039235l-2.468759,0.193155c-1.303795,0.289732 -2.51403,1.252488 -2.80678,2.200153c-0.147884,0.479869 -0.063379,0.917485 0.265588,1.246452c1.979836,2.09754 5.399279,4.234314 7.345917,4.08643zm-24.310337,-1.985872c0.295768,0.727348 1.65087,0.808836 3.63976,0.217299l0.437616,-0.132794l3.564309,-1.394336l5.163872,-3.395298c0.150902,-0.117704 1.499967,-1.131766 1.222307,-1.780645c-0.196173,-0.425544 -0.869196,-0.350093 -1.355101,-0.259552c-1.424516,0.259552 -2.82187,0.944647 -4.309765,1.668978l-2.100558,0.974828l-0.926539,0.380273c-3.196108,1.321903 -5.815769,2.507994 -5.3359,3.721247zm-10.858919,3.77859c-1.074423,0 -1.55731,0.582482 -1.949656,1.098568l-0.479869,0.543248c-0.826944,0.70924 -1.080459,2.423489 -0.977846,3.727283c0.042253,0.543248 0.196173,1.52713 0.730366,1.841006c1.023117,0.630771 1.51204,0.187119 2.556282,-0.805817l0.808836,-0.69415c1.026135,-0.860142 2.218262,-1.83497 2.366146,-3.334938c0.072433,-0.633789 -0.078469,-1.15591 -0.43158,-1.548256c-0.627753,-0.682078 -1.774609,-0.826944 -2.622679,-0.826944zm5.939509,0.473833c-0.30784,-0.066397 -0.491941,0.03018 -0.588518,0.129776c-0.310858,0.304822 -0.184101,0.95672 -0.087523,1.478841l0.060361,0.365183l-0.063379,0.220317c-0.069415,0.187119 -0.147884,0.425544 0,0.627753c0.132794,0.202209 0.455724,0.289732 1.005008,0.289732c0.697168,0.006036 0.766583,-0.066397 1.00199,-0.688114l0.187119,-0.479869c0.16901,-0.422526 0.172028,-0.802799 0.012072,-1.104604c-0.286714,-0.531176 -0.998972,-0.733384 -1.52713,-0.839016zm5.743336,9.307645a1.41848,1.41848 0 0 0 0,-2.833942a1.397354,1.397354 0 0 0 -1.3883,1.415462c0,0.781673 0.618699,1.41848 1.3883,1.41848zm25.873683,-3.452641a1.113658,1.113658 0 0 0 -1.077441,0.404418c-0.383291,0.44667 -2.716239,2.046233 -4.421433,3.217234l-2.200153,1.563346l-0.178065,0.172028c-0.274642,0.259552 -0.410454,0.419508 -0.232389,0.95672l0.268606,0.377255l0.579464,-0.117704l0.857124,-0.316895l1.23438,-0.193155c1.216271,-0.156938 2.547228,-0.338021 3.174981,-0.980864l0.81789,-1.336993l1.216271,-1.952674c0.582482,-0.642843 0.612663,-1.083477 0.531176,-1.333975a0.739421,0.739421 0 0 0 -0.57041,-0.458743zm2.556282,7.889165c0,0.721312 0.359147,1.005008 0.561356,1.104604c0.546266,0.289732 1.330957,0.009054 1.798754,-0.642843l1.581455,-1.376228c0.857124,-0.615681 1.813844,-1.309831 2.661914,-2.387272c0.784691,-1.011044 0.44667,-1.632761 0.165992,-1.898349c-0.537212,-0.525139 -1.641815,-0.645861 -2.016053,-0.338021l-0.455724,0.310858c-1.035189,0.673024 -3.48584,2.263532 -4.10152,4.198098a3.19309,3.19309 0 0 0 -0.196173,1.029153zm10.303599,-0.778655c-0.322931,-0.470815 -0.878251,-0.666988 -1.291722,-0.464779l-1.113658,0.845052c-0.784691,0.639825 -1.762537,1.451679 -2.610607,1.690104c-2.058305,0.552302 -4.849995,1.472805 -5.022024,2.885249l-0.003018,0.184101c0,0.389328 0.175046,0.621717 0.344057,0.751493c0.781673,0.636807 2.680022,0.259552 4.053232,-0.259552c2.106594,-0.778655 3.386244,-1.729339 5.040132,-3.232324c1.017081,-0.926539 0.97181,-1.853078 0.603609,-2.399344zm-8.00385,16.267252l-0.670006,-0.075451c-1.732357,0.461761 -4.690039,5.556217 -6.766452,9.352915l-0.371219,0.657933l-6.223205,11.679827l-1.952674,3.718229c-0.217299,0.338021 -0.141848,0.83298 0.184101,1.15591c0.301804,0.301804 0.829962,0.467797 1.469787,0.063379c1.038207,-0.691132 4.825851,-4.448595 6.582352,-7.400242l2.338983,-3.226288c1.499967,-1.95871 3.20818,-4.149809 4.21017,-6.760416l0.353111,-0.899377c2.3752,-6.159826 2.746419,-7.101455 0.845052,-8.26642zm23.401906,-22.451222a1.349065,1.349065 0 0 0 -1.379246,1.318885c0,0.727348 0.618699,1.318885 1.379246,1.318885s1.367173,-0.591536 1.367173,-1.318885a1.340011,1.340011 0 0 0 -1.367173,-1.318885zm-0.654915,5.501892c0,0.730366 0.618699,1.321903 1.379246,1.321903a1.333975,1.333975 0 0 0 1.349065,-1.321903a1.336993,1.336993 0 0 0 -1.349065,-1.321903a1.358119,1.358119 0 0 0 -1.379246,1.321903zm1.267578,2.924484c-0.860142,0 -1.5724,0.57041 -1.5724,1.252488c0,0.691132 0.712258,1.255506 1.5724,1.255506c0.872214,0 1.578437,-0.561356 1.578437,-1.255506c0.003018,-0.682078 -0.706222,-1.252488 -1.578437,-1.252488zm-0.063379,3.657868c-0.989918,0 -1.780645,0.624735 -1.780645,1.394336c0,0.763565 0.790727,1.3883 1.780645,1.3883s1.768573,-0.627753 1.768573,-1.3883c0,-0.769601 -0.778655,-1.394336 -1.768573,-1.394336zm0.063379,4.64175c-1.089514,0 -1.991908,0.648879 -1.991908,1.466769c0,0.805817 0.902395,1.454697 1.991908,1.454697c1.09555,0 1.979836,-0.648879 1.979836,-1.454697c0,-0.81789 -0.884287,-1.466769 -1.979836,-1.466769zm-0.673024,7.780515c1.237398,-0.10865 2.145829,-0.787709 2.076414,-1.5724l-0.389328,-0.712258c-0.425544,-0.359147 -1.167983,-0.54023 -1.922493,-0.470815c-1.195145,0.10865 -2.079432,0.754511 -2.079432,1.493931l0.006036,0.075451l0.4014,0.70924c0.434598,0.368201 1.143838,0.549284 1.907403,0.476851zm-2.704167,3.881203l-0.006036,-0.036217l0.006036,0.036217zm2.634752,1.005008c1.385282,-0.205227 2.363128,-0.965774 2.25146,-1.750465l-0.407436,-0.651897c-0.482887,-0.371219 -1.349065,-0.519103 -2.233352,-0.389328c-1.361137,0.190137 -2.363128,0.965774 -2.25146,1.750465l0.419508,0.648879c0.488923,0.374237 1.336993,0.516085 2.22128,0.392346zm-2.332947,2.357092c0,0.854106 1.038207,1.536184 2.399344,1.536184c1.355101,0 2.381236,-0.682078 2.381236,-1.536184s-1.026135,-1.52713 -2.381236,-1.52713c-1.364155,0.003018 -2.399344,0.673024 -2.399344,1.52713zm4.243369,4.994861c0,-0.905413 -1.237398,-1.596545 -2.818852,-1.596545c-1.563346,0 -2.800744,0.691132 -2.800744,1.596545c0,0.899377 1.237398,1.602581 2.800744,1.602581c1.581455,0 2.818852,-0.703204 2.818852,-1.602581zm-1.798754,4.216206c0,-0.884287 -0.926539,-1.599563 -2.046233,-1.599563c-1.137802,0 -2.064341,0.715276 -2.064341,1.599563s0.926539,1.602581 2.064341,1.602581c1.122712,0 2.046233,-0.718294 2.046233,-1.602581zm-0.965774,5.272521c0,-0.992936 -0.977846,-1.810826 -2.194117,-1.810826c-1.201181,0 -2.176009,0.81789 -2.176009,1.810826c0,1.00199 0.97181,1.807808 2.176009,1.807808c1.216271,0 2.194117,-0.805817 2.194117,-1.807808zm-1.780645,5.130673c0,-0.893341 -0.802799,-1.602581 -1.780645,-1.602581c-0.97181,0 -1.792718,0.706222 -1.792718,1.602581c0,0.878251 0.81789,1.596545 1.792718,1.596545c0.977846,0.003018 1.780645,-0.718294 1.780645,-1.596545zm-3.08444,3.036151c-0.941629,0 -1.720285,0.715276 -1.720285,1.602581c0,0.878251 0.778655,1.593527 1.720285,1.593527c0.938611,0 1.708212,-0.718294 1.708212,-1.593527c0.003018,-0.887305 -0.769601,-1.602581 -1.708212,-1.602581zm-1.454697,7.699028c0.965774,0 1.786681,-0.621717 1.786681,-1.391318s-0.81789,-1.382264 -1.786681,-1.382264c-0.97181,0 -1.768573,0.615681 -1.768573,1.382264s0.796763,1.391318 1.768573,1.391318zm-1.638797,3.371154c0.896359,0 1.632761,-0.522121 1.632761,-1.180055c0,-0.654915 -0.72433,-1.174019 -1.632761,-1.174019c-0.938611,0 -1.65087,0.516085 -1.65087,1.174019s0.736403,1.180055 1.65087,1.180055zm-1.590509,3.241378c0.854106,0 1.578437,-0.528158 1.578437,-1.183073c0,-0.648879 -0.72433,-1.177037 -1.578437,-1.177037c-0.878251,0 -1.5724,0.528158 -1.5724,1.177037c-0.003018,0.654915 0.69415,1.183073 1.5724,1.183073zm-46.532188,-2.870159l0.283696,0.054325l2.148847,-0.38631c1.907403,-0.422526 4.78058,-1.065369 8.314709,-1.158929c2.583445,-0.069415 5.384189,0.83298 7.41835,1.496949c1.847042,0.615681 2.767545,0.881269 3.117638,0.500995c0.220317,-0.250498 0.084505,-0.615681 -0.036217,-0.872214c-0.55532,-1.198163 -2.987863,-5.136709 -10.925316,-5.317792c-5.157836,-0.117704 -9.36197,3.389262 -10.261346,4.871121c-0.178065,0.301804 -0.226353,0.525139 -0.135812,0.691132l0.075451,0.120722zm29.516461,14.921205c0.504013,-0.322931 0.721312,-0.893341 0.688114,-1.71123c-0.16901,-3.211198 -1.029153,-3.576381 -2.800744,-3.576381c-1.795736,0 -3.093494,1.801772 -3.093494,2.737365c0,0.878251 0.645861,1.647852 1.898349,2.275604c0.70924,0.374237 2.342001,0.908431 3.307775,0.274642zm24.352589,39.255686c2.5593,1.195145 3.458677,1.620689 3.841969,1.738393c0.012072,0 0.024144,0.036217 0.024144,0.036217s0.018108,-0.01509 0.018108,-0.021126c0.178065,0.054325 0.235407,0.033198 0.27766,-0.027162c-0.024144,-0.018108 -0.12374,-0.16901 -0.178065,-0.211263c0.03018,-0.024144 0.060361,-0.087523 0.060361,-0.087523s-0.159956,-0.066397 -0.172028,-0.081487c-1.693122,-2.136774 -11.888072,-16.632435 -14.058044,-26.172469c-0.341039,-1.5724 -0.742439,-3.036151 -1.768573,-3.621652c-0.576446,-0.322931 -1.303795,-0.347075 -2.188081,-0.051307l-0.006036,0c-0.205227,0.060361 -0.353111,0.229371 -0.44667,0.476851a2.317857,2.317857 0 0 0 -0.111668,0.83298c0,3.407371 3.630706,12.787448 4.816797,14.715978c6.561226,10.650674 9.766387,12.401139 9.890127,12.473572zm83.334204,4.143773l-0.389328,0.075451c0.012072,0.060361 0.099595,2.906375 0.099595,6.561226c0,5.329864 -0.184101,12.437355 -1.107622,15.630445c-0.748475,2.586463 -4.17999,7.539072 -6.950553,11.501762c0,0 -3.22327,4.834905 -3.22327,4.840941a1.038207,1.038207 0 0 0 -0.135812,0.531176c0,0.476851 0.241443,0.926539 0.666988,1.207217c0.322931,0.223335 1.490913,0.796763 3.117638,-1.143838l2.058305,-2.176009c2.746419,-2.740383 6.159826,-6.141718 8.565206,-13.650609c2.63777,-8.242276 -2.655878,-23.235913 -2.701149,-23.377761zm-85.860306,26.854547c0.24748,0.24748 0.648879,0.316895 1.068387,0.165992a1.762537,1.762537 0 0 0 1.180055,-1.521094c0.099595,-1.032171 0.81789,-2.417452 1.886277,-3.600525a3.256468,3.256468 0 0 0 -0.205227,-4.514992l-1.367173,-0.546266c-0.878251,0.03018 -1.533166,0.733384 -1.569382,0.754511a700.276527,700.276527 0 0 0 -1.343029,6.58537l0,-0.006036c-0.129776,0.365183 -0.24748,2.109612 0.350093,2.68304zm44.455774,24.307319l-0.069415,-0.03018l-0.069415,0.03018c-0.054325,0.042253 -1.201181,0.576446 -1.52713,1.69614c-0.223335,0.754511 0.193155,1.409426 0.519103,1.949656l0.383291,0.718294l0.165992,1.43357l0.259552,2.109612a1.005008,1.005008 0 0 0 1.026135,0.718294c0.537212,-0.018108 1.161947,-0.43158 1.367173,-1.267578c0.27766,-1.131766 0.413472,-2.664932 0.413472,-4.705129c-0.006036,-1.862133 -2.363128,-2.628715 -2.468759,-2.65286zm-68.9985,-17.163611c-0.15392,-0.178065 -16.451353,-17.863797 -19.973409,-22.496493c-3.588453,-4.747382 -5.302702,-5.106529 -7.059203,-4.134719a0.923521,0.923521 0 0 0 -0.461761,0.721312c-0.253516,1.92853 3.817824,6.594424 7.382133,10.019903c4.982789,4.79567 19.701785,16.068061 19.852687,16.179729l0.259552,-0.289732zm-63.876881,-52.197054c-3.301739,-2.049251 -9.017913,-3.187053 -9.075255,-3.211198l-0.150902,0.347075l6.340908,4.78058c1.044243,0.857124 5.658831,3.721247 7.149744,2.550246a0.745457,0.745457 0 0 0 0.295768,-0.627753c-0.048289,-0.860142 -1.647852,-2.010017 -4.560263,-3.838951zm-1.548256,-27.056756l0.44667,-0.190137c0.57041,-0.642843 -0.742439,-2.468759 -2.338983,-3.944582c-1.439607,-1.327939 -2.903357,-2.185063 -3.66994,-2.142811l-0.434598,0.187119a0.588518,0.588518 0 0 0 -0.132794,0.404418c0,0.83298 1.14082,2.305785 2.465741,3.543183c1.442625,1.327939 2.918448,2.191099 3.663904,2.142811zm16.943294,-2.308803l-0.648879,0.039235c-1.231362,0.516085 -3.187053,3.645796 -4.747382,7.608487c-1.098568,2.797726 -1.92853,5.848967 -1.92853,7.686956c0,0.872214 0.187119,1.463751 0.603609,1.638797l0.639825,-0.039235c1.231362,-0.525139 3.181017,-3.660886 4.759454,-7.611505c1.09555,-2.803762 1.916457,-5.855003 1.916457,-7.69601c0,-0.866178 -0.178065,-1.460733 -0.594554,-1.626725zm-30.500343,-19.327548c-1.590509,0 -2.858087,0.754511 -2.858087,1.708212c0,0.947666 1.267578,1.693122 2.858087,1.693122c1.614653,0 2.870159,-0.745457 2.870159,-1.693122c0,-0.953702 -1.255506,-1.708212 -2.870159,-1.708212zm-10.143643,21.117247l0.494959,-0.045271c0.860142,-0.422526 2.160919,-2.761509 3.141783,-5.679957c1.038207,-3.105566 1.605599,-6.440504 0.600591,-6.796633l-0.485905,0.051307c-0.875232,0.43158 -2.172991,2.764527 -3.144801,5.679957c-1.056315,3.108584 -1.590509,6.443522 -0.606627,6.790597zm2.655878,16.065043c0.845052,-1.131766 1.014062,-2.40538 0.38631,-2.882231l-0.730366,-0.156938c-0.609645,0.078469 -1.336993,0.591536 -1.880241,1.349065c-0.845052,1.131766 -1.014062,2.402362 -0.389328,2.870159l0.733384,0.172028c0.606627,-0.093559 1.343029,-0.600591 1.880241,-1.352083zm-0.97181,17.595191l-0.069415,-0.042253l-0.316895,-0.033198c-1.14082,0.265588 -0.338021,5.233287 0.250498,7.846912c0.835998,3.648814 1.967764,6.594424 2.752455,7.083347l0.066397,0.048289l0.310858,0.033198c1.158929,-0.265588 0.338021,-5.257431 -0.24748,-7.846912c-0.829962,-3.66994 -1.949656,-6.597442 -2.746419,-7.089383zm-11.492708,6.669875c-0.920503,0 -1.662942,0.682078 -1.662942,1.533166c0,0.808836 0.742439,1.490913 1.662942,1.490913c0.914467,0 1.68105,-0.682078 1.68105,-1.490913c0.003018,-0.851088 -0.763565,-1.533166 -1.68105,-1.533166zm28.236811,36.059578a1.931548,1.931548 0 0 0 -1.940602,1.904385c0,1.026135 0.872214,1.874205 1.940602,1.874205a1.916457,1.916457 0 0 0 1.949656,-1.874205a1.931548,1.931548 0 0 0 -1.949656,-1.904385zm95.457683,50.238344c0.060361,0.093559 0.235407,0.407436 0.500995,0.377255l0.111668,-0.006036l0.205227,-0.30784l1.750465,-5.3359l1.367173,-3.555255l1.167983,-2.704167c0.359147,-0.908431 0.359147,-1.515058 0.006036,-1.868169c-0.561356,-0.513067 -1.720285,-0.075451 -1.862133,-0.024144c-0.093559,0.075451 -3.289667,5.411351 -3.289667,5.411351c-0.624735,0.953702 -0.860142,2.239388 -0.860142,3.561291c0,1.883259 0.470815,3.7635 0.902395,4.451613zm7.985742,26.655356l0.063379,-0.537212c0.042253,-0.316895 1.00199,-7.738262 -1.27965,-10.605403a2.782636,2.782636 0 0 0 -1.967764,-1.101586c-0.685096,-0.063379 -1.15591,0.135812 -1.415462,0.567392c-1.391318,2.275604 4.068322,10.846847 4.309765,11.218066l0.289732,0.458743zm12.781412,14.118405a1.979836,1.979836 0 0 0 -2.003981,1.961728c0,1.101586 0.896359,1.955692 2.003981,1.955692a1.95871,1.95871 0 1 0 0,-3.91742zm-30.092907,-23.902901c-0.938611,0 -1.738393,0.730366 -1.738393,1.632761c0,0.926539 0.802799,1.638797 1.738393,1.638797c0.959738,0 1.732357,-0.712258 1.732357,-1.638797c0,-0.902395 -0.772619,-1.632761 -1.732357,-1.632761zm21.929101,28.943033l-0.211263,-0.048289c-1.038207,0 -4.967699,3.437551 -8.317727,6.866048c-0.295768,0.313876 -7.569252,7.774479 -6.606496,8.746289l0.054325,0.060361l0.235407,0.048289c1.050279,0 4.973735,-3.449623 8.305654,-6.860012c0.313876,-0.316895 7.599432,-7.750335 6.606496,-8.758361l-0.066397,-0.054325zm-21.841577,20.169582c-0.606627,0 -1.55731,0.567392 -2.40538,1.415462c-1.014062,1.014062 -1.750465,2.417452 -1.207217,2.993899l0.036217,0.036217l-0.036217,-0.036217l0.537212,0.193155c0.618699,0 1.5724,-0.55532 2.417452,-1.421498c0.989918,-1.026135 1.750465,-2.399344 1.186091,-2.981827l-0.528158,-0.199191zm-9.582287,13.807547c-0.745457,0 -1.798754,0.612663 -2.719257,1.545238c-0.962756,0.965774 -1.515058,2.034161 -1.515058,2.7766c0,0.283696 0.075451,0.513067 0.253516,0.673024l0.67906,0.259552c0.733384,0 1.816862,-0.594554 2.719257,-1.533166c1.336993,-1.367173 1.874205,-2.830924 1.267578,-3.464713l-0.685096,-0.256534zm-50.096496,-69.544766c-1.436588,0 -2.604571,0.81789 -2.604571,1.85006c0,1.026135 1.171001,1.816862 2.604571,1.816862c1.448661,0 2.604571,-0.790727 2.604571,-1.816862c0.003018,-1.032171 -1.15591,-1.85006 -2.604571,-1.85006zm21.216843,1.484877c-1.020099,0 -1.813844,0.549284 -1.813844,1.273614c0,0.67906 0.793745,1.237398 1.813844,1.237398c0.983882,0 1.798754,-0.561356 1.798754,-1.237398c0,-0.70924 -0.814872,-1.273614 -1.798754,-1.273614zm25.894809,8.664802l0.156938,-0.241443c0.29275,-1.219289 -5.815769,-3.123675 -9.081292,-3.950618c-3.920438,-1.00199 -8.580296,-1.80479 -9.609449,-1.186091l-0.072433,0.048289l-0.165992,0.253516c-0.295768,1.231362 5.809733,3.111602 9.081292,3.965709c3.91742,0.983882 8.577278,1.762537 9.621521,1.149874l0.069415,-0.039235z"/>
   </g>
   <g stroke="null" id="svg_21">
    <path stroke="null" id="svg_18" d="m100.22461,899.376025l0,-16.684465l9.269622,0c4.632674,0 13.90657,-0.92739 13.90657,-12.051791l0,-100.115336c0,-6.025895 -0.465832,-20.394023 -12.051791,-20.394023l-10.658569,0l12.051791,-21.321413l713.060007,0l0,21.321413l-656.049054,0c-6.025895,0 -13.90657,1.388948 -13.90657,13.440738l0,31.518424c1.393221,3.705285 6.953285,5.094232 9.735454,5.094232s12.513349,-0.461558 12.513349,-15.757075l13.90657,0l0,51.450889l-13.90657,0c0,-4.636948 -5.119874,-12.402233 -12.047517,-12.97918c-5.564337,-0.461558 -10.201285,1.388948 -10.201285,8.808064l0,38.933267c0,4.17539 5.098506,12.051791 17.150296,12.051791l8.346506,0l0,16.684465l-81.118808,0z"/>
    <path stroke="null" id="svg_19" d="m511.729156,774.229718c0,3.709558 4.632674,7.414843 7.410569,8.342232c3.248,-2.316337 20.398297,-12.047517 33.839035,-12.047517s20.389749,6.949011 20.389749,17.611854l0,50.985058l-32.445814,0l0,-39.394825c0,-5.098506 -1.384674,-8.808064 -6.025895,-9.269622c-4.632674,-0.461558 -16.684465,9.269622 -19.923918,13.90657l0,70.451691c0,6.491727 6.487453,11.124401 12.051791,11.124401l0,13.445012l-56.545121,0l0,-13.90657c5.560064,0 11.585959,-1.854779 12.051791,-10.197012l0,-78.340913c0,-2.316337 -3.709558,-8.808064 -12.051791,-8.808064l0,-13.902296l41.249604,0zm388.046291,0l-56.540848,0l0,13.90657c8.337959,0 12.043243,6.487453 12.043243,8.808064l0,78.332366c-0.457284,8.342232 -6.487453,10.197012 -12.043243,10.197012l0,13.90657l56.540848,0l0,-13.445012c-5.560064,0 -12.051791,-4.632674 -12.051791,-11.124401l0,-76.943418c0,-5.560064 6.025895,-9.73118 12.051791,-9.73118l0,-13.90657zm-513.192598,0c0,3.709558 4.632674,7.414843 7.414843,8.342232c3.243727,-2.316337 20.394023,-12.047517 33.834761,-12.047517c13.440738,0 20.394023,6.949011 20.394023,17.611854l0,50.985058l-32.44154,0l0,-39.394825c0,-5.098506 -1.393221,-8.808064 -6.025895,-9.269622c-4.636948,-0.461558 -16.688738,9.269622 -19.932465,13.90657l0,70.451691c0,6.491727 6.491727,11.124401 12.051791,11.124401l0,13.445012l-56.545121,0l0,-13.90657c5.560064,0 11.585959,-1.854779 12.051791,-10.197012l0,-78.340913c0,-2.316337 -3.709558,-8.808064 -12.051791,-8.808064l0,-13.902296l41.249604,0zm375.990226,0c0,3.709558 4.641222,7.414843 7.419117,8.342232c3.248,-2.316337 20.389749,-12.047517 33.839035,-12.047517c13.440738,0 20.389749,6.949011 20.389749,17.611854l0,50.985058l-32.445814,0l0,-39.394825c0,-5.098506 -1.393221,-8.808064 -6.025895,-9.269622s-16.684465,9.269622 -19.932465,13.90657l0,70.451691c0,6.491727 6.487453,11.124401 12.051791,11.124401l0,13.445012l-56.549395,0l0,-13.90657c5.568611,0 11.594506,-1.854779 12.051791,-10.197012l0,-78.340913c0,-2.316337 -3.705285,-8.808064 -12.051791,-8.808064l0,-13.902296l41.253878,0zm-441.715222,86.21304l-32.445814,0l0,12.517622c0,5.094232 -0.92739,15.761349 -16.222907,15.761349s-19.928191,-10.201285 -19.928191,-17.616128l0,-26.419918c0,-2.316337 1.854779,-5.564337 5.098506,-5.564337l63.498406,0l0,-33.834761c0,-15.295517 -3.243727,-19.932465 -9.735454,-26.419918c-6.487453,-6.491727 -29.202087,-8.342232 -39.399099,-8.342232c-25.954087,0 -34.300593,3.705285 -41.715436,9.73118c-7.414843,6.025895 -10.197012,18.539244 -10.197012,27.808866l0,52.374005c0,13.902296 2.782169,23.63775 11.585959,32.445814s35.68954,8.808064 41.253878,8.808064c5.560064,0 24.099308,0.461558 37.544319,-9.269622s10.662843,-31.979982 10.662843,-31.979982zm-68.596912,-57.472511c0,-7.414843 2.316337,-18.539244 18.539244,-18.539244s17.611854,12.051791 17.611854,18.539244l0,16.684465c0,2.777895 -2.316337,5.560064 -5.560064,5.560064l-25.030971,0c-2.777895,0 -5.560064,-2.316337 -5.560064,-5.094232l0,-17.150296zm440.330548,71.840639l0,-69.524302c0,-10.662843 -0.465832,-21.782971 -11.594506,-29.663645c-11.120127,-7.880674 -29.197813,-7.414843 -36.151098,-7.414843s-30.125203,0 -40.79232,12.051791c-10.658569,12.051791 -8.808064,23.63775 -8.808064,28.270424l30.364529,0s2.077011,-15.757075 6.252401,-19.928191c4.196758,-4.196758 15.299791,-8.808064 23.872802,-1.393221c3.153979,2.735158 4.397621,6.256674 4.397621,10.197012l0,19.928191c0,1.859053 -1.854779,4.636948 -4.166843,4.636948c0,0 -42.185541,0.92739 -49.59611,6.491727c-7.410569,5.560064 -13.90657,9.269622 -13.90657,29.663645c0,20.389749 5.098506,28.270424 11.128675,32.445814c6.025895,4.171116 8.808064,8.808064 36.151098,8.808064l64.891627,0l0,-13.445012c-5.55579,0 -12.043243,-4.632674 -12.043243,-11.124401zm-32.450087,7.880674c0,1.158169 -1.854779,2.777895 -3.239453,2.777895l-15.992128,0c-11.359454,0 -14.598907,-9.73118 -14.598907,-15.761349l0,-17.846907c0,-17.376802 18.073412,-16.915244 25.257476,-16.915244s8.573011,6.021622 8.573011,9.961959l0,37.783646zm209.235326,-132.791929c16.227181,0 29.373034,-4.931832 29.373034,-11.017559c0,-6.081453 -13.145854,-11.017559 -29.373034,-11.017559s-29.381582,4.931832 -29.381582,11.017559c0,6.081453 13.154401,11.017559 29.381582,11.017559z"/>
   </g>
  </g>
 </g>
</svg>